NotoFangsongKSSRotated-Regular.glyphspackage
{
glyphname = comma;
layers = (
{
layerId = master01;
shapes = (
{
closed = 1;
nodes = (
(30,-154,l),
(149,-119,o),
(194,-43,o),
(194,42,c),
(194,98,o),
(158,129,o),
(117,129,c),
(80,129,o),
(52,108,o),
(52,70,c),
(52,9,o),
(125,18,o),
(125,-22,c),
(125,-61,o),
(95,-91,o),
(30,-112,c)
);
}
);
width = 250;
}
);
unicode = 44;
}
{
glyphname = zero;
layers = (
{
layerId = master01;
shapes = (
{
closed = 1;
nodes = (
(437,-10,o),
(514,137,o),
(514,358,cs),
(514,580,o),
(437,724,o),
(281,724,cs),
(115,724,o),
(45,580,o),
(45,359,cs),
(45,137,o),
(115,-10,o),
(280,-10,cs)
);
},
{
closed = 1;
nodes = (
(183,44,o),
(149,160,o),
(149,358,cs),
(149,556,o),
(183,670,o),
(281,670,cs),
(377,670,o),
(410,556,o),
(410,358,cs),
(410,160,o),
(377,44,o),
(280,44,cs)
);
}
);
width = 559;
}
);
unicode = 48;
}
{
glyphname = two;
layers = (
{
layerId = master01;
shapes = (
{
closed = 1;
nodes = (
(491,0,l),
(496,173,l),
(454,173,l),
(450,155,l),
(441,116,o),
(426,80,o),
(366,80,c),
(135,80,l),
(304,267,l),
(409,383,o),
(471,464,o),
(471,557,c),
(471,658,o),
(394,724,o),
(268,724,c),
(139,724,o),
(72,667,o),
(72,590,c),
(72,539,o),
(110,525,o),
(158,525,c),
(158,604,o),
(177,674,o),
(268,674,c),
(338,674,o),
(370,623,o),
(370,547,c),
(370,455,o),
(334,389,o),
(228,266,c),
(61,73,l),
(61,0,l)
);
}
);
width = 559;
}
);
unicode = 50;
}
{
glyphname = three;
layers = (
{
layerId = master01;
shapes = (
{
closed = 1;
nodes = (
(362,-10,o),
(501,43,o),
(501,204,c),
(501,336,o),
(390,373,o),
(316,381,c),
(408,403,o),
(476,475,o),
(476,565,c),
(476,666,o),
(392,724,o),
(266,724,c),
(137,724,o),
(70,667,o),
(70,590,c),
(70,539,o),
(108,525,o),
(156,525,c),
(156,604,o),
(175,674,o),
(266,674,c),
(343,674,o),
(373,628,o),
(373,550,c),
(373,455,o),
(304,395,o),
(216,395,c),
(184,395,l),
(184,344,l),
(216,344,l),
(328,344,o),
(397,289,o),
(397,205,c),
(397,85,o),
(327,44,o),
(248,44,c),
(167,44,o),
(121,95,o),
(121,165,c),
(83,165,o),
(58,141,o),
(58,101,c),
(58,42,o),
(115,-10,o),
(247,-10,c)
);
}
);
width = 559;
}
);
unicode = 51;
}
{
glyphname = four;
layers = (
{
layerId = master01;
shapes = (
{
closed = 1;
nodes = (
(516,0,l),
(516,42,l),
(503,42,ls),
(458,42,o),
(421,51,o),
(421,114,cs),
(421,196,l),
(545,196,l),
(545,252,l),
(421,252,l),
(421,714,l),
(326,714,l),
(17,237,l),
(17,196,l),
(325,196,l),
(325,114,ls),
(325,51,o),
(288,42,o),
(243,42,cs),
(215,42,l),
(215,0,l),
(215,0,l)
);
},
{
closed = 1;
nodes = (
(242,490,ls),
(265,526,o),
(319,617,o),
(332,644,c),
(327,582,o),
(325,495,o),
(325,437,cs),
(325,252,l),
(89,252,l),
(89,252,l)
);
}
);
width = 559;
}
);
unicode = 52;
}
{
glyphname = six;
layers = (
{
layerId = master01;
shapes = (
{
closed = 1;
nodes = (
(429,-10,o),
(508,88,o),
(508,229,c),
(508,357,o),
(429,434,o),
(307,434,c),
(242,434,o),
(197,409,o),
(164,382,c),
(171,575,o),
(222,676,o),
(322,676,c),
(386,676,o),
(410,624,o),
(410,559,c),
(460,559,o),
(487,581,o),
(487,619,c),
(487,673,o),
(433,724,o),
(322,724,c),
(145,724,o),
(61,550,o),
(61,360,c),
(61,97,o),
(160,-10,o),
(293,-10,c)
);
},
{
closed = 1;
nodes = (
(216,45,o),
(165,125,o),
(163,325,c),
(190,353,o),
(235,383,o),
(287,383,c),
(364,383,o),
(406,333,o),
(406,219,c),
(406,98,o),
(367,45,o),
(296,45,c)
);
}
);
width = 559;
}
);
unicode = 54;
}
{
glyphname = eight;
layers = (
{
layerId = master01;
shapes = (
{
closed = 1;
nodes = (
(419,-10,o),
(513,64,o),
(513,191,c),
(513,278,o),
(446,336,o),
(347,383,c),
(428,423,o),
(482,464,o),
(482,552,c),
(482,652,o),
(410,724,o),
(285,724,c),
(131,724,o),
(69,637,o),
(69,545,c),
(69,461,o),
(122,405,o),
(198,362,c),
(111,320,o),
(46,275,o),
(46,179,c),
(46,74,o),
(123,-10,o),
(273,-10,c)
);
},
{
closed = 1;
nodes = (
(209,447,o),
(163,485,o),
(163,557,c),
(163,626,o),
(204,677,o),
(279,677,c),
(363,677,o),
(393,615,o),
(393,554,c),
(393,484,o),
(373,443,o),
(298,406,c)
);
},
{
closed = 1;
nodes = (
(189,36,o),
(143,92,o),
(143,175,c),
(143,250,o),
(183,304,o),
(246,338,c),
(375,282,o),
(422,237,o),
(422,169,c),
(422,92,o),
(365,36,o),
(278,36,c)
);
}
);
width = 559;
}
);
unicode = 56;
}
{
glyphname = nine;
layers = (
{
layerId = master01;
shapes = (
{
closed = 1;
nodes = (
(421,-11,o),
(498,178,o),
(498,388,cs),
(498,623,o),
(400,724,o),
(265,724,cs),
(131,724,o),
(51,622,o),
(51,478,cs),
(51,343,o),
(132,275,o),
(248,275,cs),
(318,275,o),
(366,308,o),
(395,343,c),
(388,142,o),
(339,44,o),
(228,44,cs),
(165,44,o),
(130,81,o),
(112,123,c),
(97,118,o),
(82,100,o),
(82,75,cs),
(82,33,o),
(114,-11,o),
(227,-11,cs)
);
},
{
closed = 1;
nodes = (
(193,334,o),
(154,378,o),
(154,488,cs),
(154,605,o),
(195,669,o),
(265,669,cs),
(342,669,o),
(393,593,o),
(396,415,c),
(378,372,o),
(335,334,o),
(270,334,cs)
);
}
);
width = 559;
}
);
unicode = 57;
}
{
glyphname = A;
layers = (
{
layerId = master01;
shapes = (
{
closed = 1;
nodes = (
(164,134,l),
(160,122,o),
(155,99,o),
(155,91,q),
(155,65,o),
(188,42,o),
(221,42,q),
(244,42,l),
(244,0,l),
(0,0,l),
(0,42,l),
(19,42,l),
(34,42,o),
(54,48,o),
(71,66,o),
(86,96,o),
(95,120,q),
(317,714,l),
(395,714,l),
(621,95,l),
(627,80,o),
(639,59,o),
(656,47,o),
(677,42,o),
(692,42,q),
(705,42,l),
(705,0,l),
(430,0,l),
(430,42,l),
(453,42,l),
(513,42,o),
(513,90,q),
(513,98,o),
(509,116,o),
(505,127,q),
(465,239,l),
(202,239,l)
);
},
{
closed = 1;
nodes = (
(369,508,o),
(343,586,o),
(335,622,q),
(332,604,o),
(322,570,o),
(312,535,o),
(298,497,o),
(289,473,q),
(221,289,l),
(447,289,l),
(385,464,l)
);
}
);
width = 705;
}
);
unicode = 65;
}
{
glyphname = B;
layers = (
{
layerId = master01;
shapes = (
{
closed = 1;
nodes = (
(563,444.715,o),
(508.788,402.157,o),
(439,378,c),
(439,374,l),
(529.146,358.092,o),
(593,297.97,o),
(593,193,cs),
(593,63.667,o),
(509.333,0,o),
(336,0,cs),
(38,0,l),
(38,42,l),
(51,42,ls),
(94.943,42,o),
(133,50.617,o),
(133,114,cs),
(133,604,ls),
(133,662.405,o),
(95.11,672,o),
(51,672,cs),
(38,672,l),
(38,714,l),
(306,714,ls),
(479.333,714,o),
(563,657.667,o),
(563,535,cs)
);
},
{
closed = 1;
nodes = (
(331,50,ls),
(443.206,50,o),
(486,88.213,o),
(486,196,cs),
(486,302.984,o),
(448.258,349,o),
(333,349,cs),
(234,349,l),
(234,50,l),
(234,50,l)
);
},
{
closed = 1;
nodes = (
(303,399,ls),
(421.626,399,o),
(456,440.665,o),
(456,535,cs),
(456,632.113,o),
(413.164,664,o),
(301,664,cs),
(234,664,l),
(234,399,l),
(234,399,l)
);
}
);
width = 654;
}
);
unicode = 66;
}
{
glyphname = C;
layers = (
{
layerId = master01;
shapes = (
{
closed = 1;
nodes = (
(429,724,o),
(505,707,o),
(555,677,o),
(580,636,o),
(580,612,q),
(580,596,o),
(567,570,o),
(543,552,o),
(512,542,o),
(493,542,q),
(493,565,o),
(481,611,o),
(453,648,o),
(409,671,o),
(376,671,q),
(319,671,o),
(240,629,o),
(190,550,o),
(168,433,o),
(168,358,q),
(168,291,o),
(191,180,o),
(242,100,o),
(321,56,o),
(376,56,q),
(413,56,o),
(469,70,o),
(512,94,o),
(544,125,o),
(557,141,q),
(565,136,o),
(576,117,o),
(576,102,q),
(576,83,o),
(550,43,o),
(498,11,o),
(417,-10,o),
(361,-10,q),
(286,-10,o),
(173,43,o),
(96,140,o),
(57,275,o),
(57,358,q),
(57,439,o),
(98,574,o),
(179,670,o),
(299,724,o),
(378,724,q)
);
}
);
width = 614;
}
);
unicode = 67;
}
{
glyphname = E;
layers = (
{
layerId = master01;
shapes = (
{
closed = 1;
nodes = (
(427,50,l),
(451,50,o),
(484,63,o),
(507,85,o),
(520,115,o),
(522,132,q),
(529,175,l),
(581,175,l),
(574,0,l),
(38,0,l),
(38,42,l),
(51,42,l),
(67,42,o),
(97,46,o),
(120,60,o),
(133,87,o),
(133,109,q),
(133,600,l),
(133,624,o),
(120,652,o),
(98,667,o),
(68,672,o),
(51,672,q),
(38,672,l),
(38,714,l),
(542,714,l),
(547,539,l),
(495,539,l),
(490,582,l),
(488,599,o),
(477,628,o),
(456,651,o),
(424,664,o),
(402,664,q),
(234,664,l),
(234,398,l),
(475,398,l),
(475,349,l),
(234,349,l),
(234,50,l)
);
}
);
width = 623;
}
);
unicode = 69;
}
{
glyphname = F;
layers = (
{
layerId = master01;
shapes = (
{
closed = 1;
nodes = (
(234,375,l),
(475,375,l),
(475,326,l),
(234,326,l),
(234,114,ls),
(234,50.617,o),
(272.057,42,o),
(316,42,cs),
(349,42,l),
(349,0,l),
(38,0,l),
(38,42,l),
(51,42,ls),
(93.634,42,o),
(133,48.394,o),
(133,109,cs),
(133,604,ls),
(133,662.405,o),
(95.11,672,o),
(51,672,cs),
(38,672,l),
(38,714,l),
(542,714,l),
(547,539,l),
(495,539,l),
(490,582,ls),
(484.771,626.443,o),
(464.165,664,o),
(398,664,cs),
(234,664,l),
(234,664,l)
);
}
);
width = 590;
}
);
unicode = 70;
}
{
glyphname = G;
layers = (
{
layerId = master01;
shapes = (
{
closed = 1;
nodes = (
(168.382,-10,o),
(57,137.371,o),
(57,358,cs),
(57,572.55,o),
(176.857,724,o),
(407,724,cs),
(559.431,724,o),
(628,675.043,o),
(628,612,cs),
(628,569.181,o),
(585.661,542,o),
(535,542,c),
(535,603.962,o),
(499.371,671,o),
(403,671,cs),
(231.108,671,o),
(168,556.059,o),
(168,358,cs),
(168,157.269,o),
(234.741,47,o),
(417,47,cs),
(455.667,47,o),
(493,51,o),
(521,59,c),
(521,220,ls),
(521,276.928,o),
(485.711,288,o),
(439,288,cs),
(435,288,l),
(435,330,l),
(695,330,l),
(695,288,l),
(691,288,ls),
(652.516,288,o),
(622,278.24,o),
(622,216,cs),
(622,36,l),
(555.333,5.333,o),
(486.333,-10,o),
(401,-10,cs)
);
}
);
width = 714;
}
);
unicode = 71;
}
{
glyphname = I;
layers = (
{
layerId = master01;
shapes = (
{
closed = 1;
nodes = (
(38,42,l),
(51,42,l),
(68,42,o),
(98,47,o),
(120,62,o),
(133,90,o),
(133,114,q),
(133,600,l),
(133,624,o),
(120,652,o),
(98,667,o),
(68,672,o),
(51,672,q),
(38,672,l),
(38,714,l),
(329,714,l),
(329,672,l),
(316,672,l),
(299,672,o),
(269,667,o),
(247,652,o),
(234,624,o),
(234,600,q),
(234,114,l),
(234,90,o),
(247,62,o),
(269,47,o),
(299,42,o),
(316,42,q),
(329,42,l),
(329,0,l),
(38,0,l)
);
}
);
width = 367;
}
);
unicode = 73;
}
{
glyphname = J;
layers = (
{
layerId = master01;
shapes = (
{
closed = 1;
nodes = (
(-2,-193,l),
(30,-193,o),
(81,-175,o),
(115,-132,o),
(133,-62,o),
(133,-9,q),
(133,604,l),
(133,626,o),
(120,653,o),
(97,667,o),
(67,672,o),
(51,672,q),
(38,672,l),
(38,714,l),
(329,714,l),
(329,672,l),
(316,672,l),
(299,672,o),
(269,667,o),
(247,652,o),
(234,624,o),
(234,600,q),
(234,-8,l),
(234,-75,o),
(199,-165,o),
(137,-218,o),
(54,-240,o),
(6,-240,q),
(-11,-240,l),
(-11,-193,l)
);
}
);
width = 357;
}
);
unicode = 74;
}
{
glyphname = K;
layers = (
{
layerId = master01;
shapes = (
{
closed = 1;
nodes = (
(484.55,606.716,o),
(496,629.985,o),
(496,651,cs),
(496,659.667,o),
(492,665.5,o),
(484,668.5,cs),
(476,671.5,o),
(463.667,673,o),
(447,673,c),
(447,714,l),
(668,714,l),
(668,673,l),
(620.091,673,o),
(585.937,636.131,o),
(534,579,cs),
(389,416,l),
(600,122,ls),
(638.667,70,o),
(672.667,42,o),
(710,42,cs),
(712,42,l),
(712,0,l),
(701,0,ls),
(564.11,0,o),
(541.418,18.354,o),
(491,90,cs),
(319,337,l),
(234,268,l),
(234,114,ls),
(234,50.617,o),
(272.057,42,o),
(316,42,cs),
(329,42,l),
(329,0,l),
(38,0,l),
(38,42,l),
(51,42,ls),
(93.634,42,o),
(133,48.394,o),
(133,109,cs),
(133,604,ls),
(133,662.405,o),
(95.11,672,o),
(51,672,cs),
(38,672,l),
(38,714,l),
(329,714,l),
(329,672,l),
(316,672,ls),
(272.057,672,o),
(234,663.383,o),
(234,600,cs),
(234,318,l),
(441,555,l),
(441,555,l)
);
}
);
width = 700;
}
);
unicode = 75;
}
{
glyphname = L;
layers = (
{
layerId = master01;
shapes = (
{
closed = 1;
nodes = (
(38,42,l),
(51,42,l),
(68,42,o),
(98,47,o),
(120,62,o),
(133,90,o),
(133,114,q),
(133,600,l),
(133,624,o),
(120,652,o),
(98,667,o),
(68,672,o),
(51,672,q),
(38,672,l),
(38,714,l),
(329,714,l),
(329,672,l),
(316,672,l),
(299,672,o),
(270,667,o),
(247,653,o),
(234,626,o),
(234,604,q),
(234,50,l),
(431,50,l),
(454,50,o),
(485,66,o),
(506,92,o),
(517,124,o),
(519,140,q),
(529,215,l),
(581,215,l),
(574,0,l),
(38,0,l)
);
}
);
width = 623;
}
);
unicode = 76;
}
{
glyphname = N;
layers = (
{
layerId = master01;
shapes = (
{
closed = 1;
nodes = (
(194,576,l),
(194,114,l),
(194,90,o),
(207,62,o),
(229,47,o),
(259,42,o),
(276,42,q),
(289,42,l),
(289,0,l),
(38,0,l),
(38,42,l),
(51,42,l),
(68,42,o),
(98,47,o),
(120,62,o),
(133,90,o),
(133,114,q),
(133,604,l),
(133,626,o),
(120,653,o),
(97,667,o),
(67,672,o),
(51,672,q),
(38,672,l),
(38,714,l),
(221,714,l),
(579,161,l),
(579,604,l),
(579,626,o),
(566,653,o),
(543,667,o),
(514,672,o),
(497,672,q),
(484,672,l),
(484,714,l),
(735,714,l),
(735,672,l),
(722,672,l),
(705,672,o),
(675,667,o),
(653,652,o),
(640,624,o),
(640,600,q),
(640,0,l),
(569,0,l)
);
}
);
width = 763;
}
);
unicode = 78;
}
{
glyphname = P;
layers = (
{
layerId = master01;
shapes = (
{
closed = 1;
nodes = (
(38,42,l),
(51,42,l),
(68,42,o),
(98,47,o),
(120,62,o),
(133,90,o),
(133,114,q),
(133,604,l),
(133,626,o),
(120,653,o),
(97,667,o),
(67,672,o),
(51,672,q),
(38,672,l),
(38,714,l),
(319,714,l),
(382,714,o),
(475,685,o),
(535,631,o),
(565,554,o),
(565,505,q),
(565,460,o),
(537,378,o),
(474,315,o),
(371,278,o),
(297,278,q),
(234,278,l),
(234,109,l),
(234,87,o),
(247,60,o),
(270,46,o),
(299,42,o),
(316,42,q),
(349,42,l),
(349,0,l),
(38,0,l)
);
},
{
closed = 1;
nodes = (
(287,325,l),
(333,325,o),
(397,344,o),
(438,387,o),
(457,454,o),
(457,501,q),
(457,543,o),
(440,605,o),
(403,646,o),
(344,666,o),
(302,666,q),
(234,666,l),
(234,325,l)
);
}
);
width = 604;
}
);
unicode = 80;
}
{
glyphname = Q;
layers = (
{
layerId = master01;
shapes = (
{
closed = 1;
nodes = (
(685,285,o),
(653,162,o),
(590,68,o),
(498,7,o),
(438,-4,q),
(442,-55,o),
(467,-124,o),
(505,-166,o),
(556,-183,o),
(586,-183,q),
(602,-183,l),
(602,-230,l),
(559,-230,l),
(520,-230,o),
(441,-209,o),
(376,-158,o),
(333,-72,o),
(328,-8,q),
(259,0,o),
(157,58,o),
(90,153,o),
(56,281,o),
(56,359,q),
(56,442,o),
(95,577,o),
(173,673,o),
(292,725,o),
(372,725,q),
(448,725,o),
(564,673,o),
(644,577,o),
(685,441,o),
(685,358,q)
);
},
{
closed = 1;
nodes = (
(167,284,o),
(189,167,o),
(238,86,o),
(315,44,o),
(371,44,q),
(427,44,o),
(504,86,o),
(553,167,o),
(574,284,o),
(574,358,q),
(574,432,o),
(553,549,o),
(504,629,o),
(428,671,o),
(372,671,q),
(316,671,o),
(238,629,o),
(189,549,o),
(167,432,o),
(167,358,q)
);
}
);
width = 742;
}
);
unicode = 81;
}
{
glyphname = R;
layers = (
{
layerId = master01;
shapes = (
{
closed = 1;
nodes = (
(580,82,o),
(627,42,o),
(659,42,q),
(662,42,l),
(662,0,l),
(648,0,l),
(601,0,o),
(541,7,o),
(499,26,o),
(469,62,o),
(452,90,q),
(317,315,l),
(234,315,l),
(234,109,l),
(234,87,o),
(247,60,o),
(270,46,o),
(299,42,o),
(316,42,q),
(329,42,l),
(329,0,l),
(38,0,l),
(38,42,l),
(51,42,l),
(67,42,o),
(97,46,o),
(120,60,o),
(133,87,o),
(133,109,q),
(133,604,l),
(133,626,o),
(120,653,o),
(97,667,o),
(67,672,o),
(51,672,q),
(38,672,l),
(38,714,l),
(307,714,l),
(437,714,o),
(564,618,o),
(564,521,q),
(564,481,o),
(538,421,o),
(496,377,o),
(443,348,o),
(417,339,q),
(554,122,l)
);
},
{
closed = 1;
nodes = (
(304,362,l),
(348,362,o),
(407,381,o),
(442,420,o),
(457,479,o),
(457,518,q),
(457,558,o),
(440,614,o),
(403,650,o),
(344,666,o),
(302,666,q),
(234,666,l),
(234,362,l)
);
}
);
width = 656;
}
);
unicode = 82;
}
{
glyphname = S;
layers = (
{
layerId = master01;
shapes = (
{
closed = 1;
nodes = (
(198,-10,o),
(124,11,o),
(73,47,o),
(48,100,o),
(48,131,q),
(48,161,o),
(85,198,o),
(120,198,q),
(122,167,o),
(138,109,o),
(170,65,o),
(220,39,o),
(255,39,q),
(322,39,o),
(398,104,o),
(398,165,q),
(398,192,o),
(382,234,o),
(346,270,o),
(287,303,o),
(243,321,q),
(197,340,o),
(127,383,o),
(82,437,o),
(59,502,o),
(59,543,q),
(59,586,o),
(92,653,o),
(150,700,o),
(230,724,o),
(278,724,q),
(323,724,o),
(392,706,o),
(440,674,o),
(465,634,o),
(465,612,q),
(465,580,o),
(422,547,o),
(386,547,q),
(386,570,o),
(375,616,o),
(349,651,o),
(306,674,o),
(274,674,q),
(245,674,o),
(200,658,o),
(168,628,o),
(152,586,o),
(152,560,q),
(152,530,o),
(167,485,o),
(204,448,o),
(264,416,o),
(307,398,q),
(351,380,o),
(420,340,o),
(468,291,o),
(493,229,o),
(493,191,q),
(493,144,o),
(458,69,o),
(394,17,o),
(303,-10,o),
(247,-10,q)
);
}
);
width = 544;
}
);
unicode = 83;
}
{
glyphname = T;
layers = (
{
layerId = master01;
shapes = (
{
closed = 1;
nodes = (
(356,90,o),
(369,62,o),
(391,47,o),
(421,42,o),
(438,42,q),
(461,42,l),
(461,0,l),
(150,0,l),
(150,42,l),
(173,42,l),
(189,42,o),
(219,46,o),
(242,60,o),
(255,87,o),
(255,109,q),
(255,664,l),
(159,664,l),
(137,664,o),
(107,651,o),
(88,628,o),
(79,599,o),
(77,582,q),
(72,539,l),
(20,539,l),
(25,714,l),
(588,714,l),
(593,539,l),
(541,539,l),
(536,582,l),
(534,599,o),
(524,628,o),
(506,651,o),
(476,664,o),
(453,664,q),
(356,664,l),
(356,114,l)
);
}
);
width = 613;
}
);
unicode = 84;
}
{
glyphname = U;
layers = (
{
layerId = master01;
shapes = (
{
closed = 1;
nodes = (
(303,-10,o),
(209,15,o),
(144,69,o),
(110,155,o),
(110,216,q),
(110,604,l),
(110,626,o),
(97,653,o),
(74,667,o),
(44,672,o),
(28,672,q),
(15,672,l),
(15,714,l),
(306,714,l),
(306,672,l),
(293,672,l),
(276,672,o),
(246,667,o),
(224,652,o),
(211,624,o),
(211,600,q),
(211,210,l),
(211,167,o),
(236,105,o),
(280,67,o),
(341,50,o),
(378,50,q),
(421,50,o),
(484,73,o),
(526,115,o),
(546,172,o),
(546,206,q),
(546,604,l),
(546,626,o),
(533,653,o),
(510,667,o),
(480,672,o),
(464,672,q),
(451,672,l),
(451,714,l),
(702,714,l),
(702,672,l),
(689,672,l),
(672,672,o),
(642,667,o),
(620,652,o),
(607,624,o),
(607,600,q),
(607,204,l),
(607,154,o),
(575,75,o),
(513,20,o),
(421,-10,o),
(362,-10,q)
);
}
);
width = 717;
}
);
unicode = 85;
}
{
glyphname = V;
layers = (
{
layerId = master01;
shapes = (
{
closed = 1;
nodes = (
(84,619,l),
(79,635,o),
(66,655,o),
(49,667,o),
(28,672,o),
(13,672,q),
(0,672,l),
(0,714,l),
(275,714,l),
(275,672,l),
(252,672,l),
(222,672,o),
(192,649,o),
(192,624,q),
(192,616,o),
(196,598,o),
(200,587,q),
(310,262,l),
(325,218,o),
(347,134,o),
(355,98,q),
(363,134,o),
(384,215,o),
(401,262,q),
(511,580,l),
(515,592,o),
(520,615,o),
(520,623,q),
(520,649,o),
(487,672,o),
(454,672,q),
(431,672,l),
(431,714,l),
(675,714,l),
(675,672,l),
(656,672,l),
(641,672,o),
(620,666,o),
(603,649,o),
(588,619,o),
(580,594,q),
(373,0,l),
(300,0,l)
);
}
);
width = 675;
}
);
unicode = 86;
}
{
glyphname = W;
layers = (
{
layerId = master01;
shapes = (
{
closed = 1;
nodes = (
(701,274,l),
(715,224,o),
(737,133,o),
(744,98,q),
(751,134,o),
(771,214,o),
(784,262,q),
(872,571,l),
(874,577,o),
(877,591,o),
(880,606,o),
(883,619,o),
(883,623,q),
(883,649,o),
(850,672,o),
(817,672,q),
(794,672,l),
(794,714,l),
(1038,714,l),
(1038,672,l),
(1019,672,l),
(1004,672,o),
(982,666,o),
(965,649,o),
(950,619,o),
(943,594,q),
(774,0,l),
(684,0,l),
(521,560,l),
(368,0,l),
(276,0,l),
(93,619,l),
(88,635,o),
(76,655,o),
(59,667,o),
(37,672,o),
(22,672,q),
(9,672,l),
(9,714,l),
(284,714,l),
(284,672,l),
(261,672,l),
(231,672,o),
(201,649,o),
(201,624,q),
(201,616,o),
(206,598,o),
(209,587,q),
(301,267,l),
(313,222,o),
(336,134,o),
(344,98,q),
(352,137,o),
(372,229,o),
(385,278,q),
(504,707,l),
(576,707,l)
);
}
);
width = 1047;
}
);
unicode = 87;
}
{
glyphname = X;
layers = (
{
layerId = master01;
shapes = (
{
closed = 1;
nodes = (
(466,652,o),
(458,663,o),
(443,669,o),
(424,672,o),
(412,672,q),
(409,672,l),
(409,714,l),
(628,714,l),
(628,672,l),
(619,672,l),
(604,672,o),
(581,665,o),
(558,648,o),
(534,621,o),
(520,600,q),
(375,391,l),
(559,95,l),
(581,66,o),
(620,42,o),
(639,42,q),
(652,42,l),
(652,0,l),
(382,0,l),
(382,42,l),
(387,42,l),
(447,42,o),
(447,75,q),
(447,81,o),
(444,91,o),
(438,106,o),
(424,127,o),
(414,144,q),
(315,303,l),
(204,139,l),
(200,133,o),
(191,117,o),
(183,99,o),
(178,81,o),
(178,73,q),
(178,56,o),
(210,42,o),
(243,42,q),
(246,42,l),
(246,0,l),
(8,0,l),
(8,42,l),
(14,42,l),
(32,42,o),
(59,49,o),
(82,66,o),
(104,92,o),
(118,112,q),
(285,351,l),
(120,619,l),
(102,648,o),
(57,672,o),
(34,672,q),
(21,672,l),
(21,714,l),
(292,714,l),
(292,672,l),
(289,672,l),
(272,672,o),
(250,667,o),
(237,660,o),
(232,649,o),
(232,643,q),
(232,638,o),
(233,628,o),
(238,615,o),
(248,597,o),
(256,584,q),
(346,438,l),
(441,582,l),
(452,599,o),
(466,629,o),
(466,643,q)
);
}
);
width = 660;
}
);
unicode = 88;
}
{
glyphname = Y;
layers = (
{
layerId = master01;
shapes = (
{
closed = 1;
nodes = (
(159,42,l),
(182,42,l),
(199,42,o),
(229,46,o),
(251,60,o),
(264,87,o),
(264,109,q),
(264,298,l),
(79,619,l),
(71,633,o),
(56,653,o),
(40,666,o),
(21,672,o),
(8,672,q),
(-5,672,l),
(-5,714,l),
(270,714,l),
(270,672,l),
(233,672,l),
(219,672,o),
(202,667,o),
(192,658,o),
(189,646,o),
(189,640,q),
(189,626,o),
(201,598,o),
(207,587,q),
(281,453,l),
(298,422,o),
(323,362,o),
(331,339,q),
(335,350,o),
(349,376,o),
(365,406,o),
(382,438,o),
(391,453,q),
(455,568,l),
(465,585,o),
(473,616,o),
(473,628,q),
(473,650,o),
(442,672,o),
(413,672,q),
(384,672,l),
(384,714,l),
(628,714,l),
(628,672,l),
(616,672,l),
(605,672,o),
(586,665,o),
(567,646,o),
(546,617,o),
(533,594,q),
(365,298,l),
(365,114,l),
(365,90,o),
(378,62,o),
(400,47,o),
(430,42,o),
(447,42,q),
(470,42,l),
(470,0,l),
(159,0,l)
);
}
);
width = 625;
}
);
unicode = 89;
}
{
glyphname = Z;
layers = (
{
layerId = master01;
shapes = (
{
closed = 1;
nodes = (
(158,50,l),
(410,50,l),
(433,50,o),
(463,63,o),
(481,85,o),
(491,115,o),
(493,132,q),
(498,175,l),
(550,175,l),
(545,0,l),
(36,0,l),
(36,40,l),
(411,664,l),
(194,664,l),
(172,664,o),
(142,651,o),
(124,628,o),
(114,599,o),
(112,582,q),
(107,539,l),
(55,539,l),
(60,714,l),
(534,714,l),
(534,673,l)
);
}
);
width = 592;
}
);
unicode = 90;
}
{
glyphname = a;
layers = (
{
layerId = master01;
shapes = (
{
closed = 1;
nodes = (
(147,98,o),
(187,52,o),
(228,52,q),
(258,52,o),
(308,71,o),
(342,107,o),
(361,159,o),
(361,191,q),
(361,272,l),
(297,269,l),
(254,267,o),
(197,250,o),
(162,219,o),
(147,174,o),
(147,145,q)
);
},
{
closed = 1;
nodes = (
(239,496,o),
(204,480,o),
(184,451,o),
(177,411,o),
(177,387,q),
(135,387,o),
(92,416,o),
(92,450,q),
(92,476,o),
(120,512,o),
(169,535,o),
(235,546,o),
(272,546,q),
(318,546,o),
(386,528,o),
(432,487,o),
(455,421,o),
(455,373,q),
(455,114,l),
(455,93,o),
(462,65,o),
(477,49,o),
(500,42,o),
(517,42,q),
(520,42,l),
(520,0,l),
(385,0,l),
(369,86,l),
(361,86,l),
(345,65,o),
(316,30,o),
(281,4,o),
(236,-10,o),
(205,-10,q),
(172,-10,o),
(115,9,o),
(73,49,o),
(50,109,o),
(50,150,q),
(50,229,o),
(163,307,o),
(278,310,q),
(361,313,l),
(361,373,l),
(361,400,o),
(355,445,o),
(335,478,o),
(299,496,o),
(268,496,q)
);
}
);
width = 563;
}
);
unicode = 97;
}
{
glyphname = b;
layers = (
{
layerId = master01;
shapes = (
{
closed = 1;
nodes = (
(559,197,o),
(532,91,o),
(480,23,o),
(404,-10,o),
(355,-10,q),
(326,-10,o),
(279,3,o),
(242,26,o),
(213,59,o),
(202,78,q),
(196,78,l),
(178,0,l),
(18,0,l),
(18,42,l),
(26,42,l),
(43,42,o),
(73,47,o),
(95,62,o),
(108,90,o),
(108,114,q),
(108,650,l),
(108,672,o),
(95,699,o),
(72,713,o),
(42,718,o),
(26,718,q),
(18,718,l),
(18,760,l),
(202,760,l),
(202,576,l),
(202,559,o),
(201,515,o),
(200,494,q),
(199,471,o),
(198,446,q),
(202,446,l),
(213,469,o),
(242,506,o),
(279,532,o),
(326,546,o),
(355,546,q),
(404,546,o),
(480,513,o),
(532,445,o),
(559,341,o),
(559,269,q)
);
},
{
closed = 1;
nodes = (
(299,482,o),
(247,456,o),
(215,403,o),
(202,323,o),
(202,269,q),
(202,217,o),
(215,137,o),
(247,82,o),
(299,54,o),
(339,54,q),
(372,54,o),
(418,82,o),
(448,137,o),
(462,217,o),
(462,270,q),
(462,323,o),
(448,403,o),
(418,456,o),
(371,482,o),
(338,482,q)
);
}
);
width = 614;
}
);
unicode = 98;
}
{
glyphname = d;
layers = (
{
layerId = master01;
shapes = (
{
closed = 1;
nodes = (
(506,88,o),
(519,61,o),
(542,46,o),
(571,42,o),
(588,42,q),
(596,42,l),
(596,0,l),
(427,0,l),
(416,90,l),
(412,90,l),
(401,67,o),
(372,30,o),
(335,4,o),
(288,-10,o),
(259,-10,q),
(209,-10,o),
(133,23,o),
(82,91,o),
(55,195,o),
(55,267,q),
(55,339,o),
(82,445,o),
(133,513,o),
(209,546,o),
(259,546,q),
(288,546,o),
(334,533,o),
(372,510,o),
(401,478,o),
(412,458,q),
(418,458,l),
(417,482,o),
(415,504,q),
(414,522,o),
(412,559,o),
(412,568,q),
(412,650,l),
(412,672,o),
(399,699,o),
(376,713,o),
(347,718,o),
(330,718,q),
(322,718,l),
(322,760,l),
(506,760,l),
(506,110,l)
);
},
{
closed = 1;
nodes = (
(315,54,o),
(367,80,o),
(399,133,o),
(412,213,o),
(412,267,q),
(412,319,o),
(399,399,o),
(367,454,o),
(314,482,o),
(275,482,q),
(242,482,o),
(195,454,o),
(166,399,o),
(152,318,o),
(152,266,q),
(152,160,o),
(209,54,o),
(276,54,q)
);
}
);
width = 614;
}
);
unicode = 100;
}
{
glyphname = e;
layers = (
{
layerId = master01;
shapes = (
{
closed = 1;
nodes = (
(219,492,o),
(159,402,o),
(154,315,q),
(384,315,l),
(384,354,o),
(372,420,o),
(347,467,o),
(305,492,o),
(275,492,q)
);
},
{
closed = 1;
nodes = (
(233,-10,o),
(146,27,o),
(87,97,o),
(55,199,o),
(55,264,q),
(55,404,o),
(170,546,o),
(277,546,q),
(325,546,o),
(402,516,o),
(456,456,o),
(485,366,o),
(485,307,q),
(485,261,l),
(152,261,l),
(153,207,o),
(173,128,o),
(210,77,o),
(265,53,o),
(301,53,q),
(327,53,o),
(371,65,o),
(407,84,o),
(435,109,o),
(444,123,q),
(451,120,o),
(463,102,o),
(463,89,q),
(463,74,o),
(441,39,o),
(397,10,o),
(332,-10,o),
(287,-10,q)
);
}
);
width = 535;
}
);
unicode = 101;
}
{
glyphname = g;
layers = (
{
layerId = master01;
shapes = (
{
closed = 1;
nodes = (
(526,504,o),
(520,485,o),
(507,471,o),
(487,463,o),
(473,463,q),
(473,469,o),
(470,480,o),
(463,491,o),
(450,497,o),
(440,497,q),
(427,497,o),
(407,491,o),
(397,485,q),
(414,464,o),
(436,407,o),
(436,364,q),
(436,327,o),
(414,264,o),
(369,218,o),
(301,192,o),
(256,192,q),
(250,192,o),
(235,192,o),
(221,193,o),
(208,194,o),
(204,195,q),
(194,190,o),
(177,178,o),
(164,164,o),
(156,145,o),
(156,134,q),
(156,122,o),
(165,107,o),
(182,99,o),
(205,96,o),
(218,96,q),
(331,96,l),
(376,96,o),
(438,74,o),
(478,34,o),
(496,-21,o),
(496,-53,q),
(496,-96,o),
(464,-166,o),
(399,-214,o),
(299,-240,o),
(231,-240,q),
(126,-240,o),
(23,-163,o),
(23,-94,q),
(23,-65,o),
(43,-21,o),
(78,10,o),
(123,30,o),
(148,34,q),
(138,39,o),
(118,53,o),
(103,74,o),
(93,100,o),
(93,116,q),
(93,146,o),
(124,189,o),
(158,210,q),
(137,219,o),
(103,250,o),
(80,289,o),
(68,336,o),
(68,361,q),
(68,404,o),
(91,473,o),
(138,521,o),
(208,546,o),
(256,546,q),
(274,546,o),
(309,541,o),
(339,531,o),
(363,520,o),
(370,513,q),
(377,521,o),
(397,540,o),
(421,556,o),
(450,567,o),
(467,567,q),
(482,567,o),
(504,559,o),
(519,544,o),
(526,525,o),
(526,515,q)
);
},
{
closed = 1;
nodes = (
(104,-110,o),
(116,-148,o),
(145,-175,o),
(195,-191,o),
(233,-191,q),
(287,-191,o),
(356,-173,o),
(397,-141,o),
(414,-96,o),
(414,-70,q),
(414,-47,o),
(401,-17,o),
(375,0,o),
(337,7,o),
(312,7,q),
(214,7,l),
(193,7,o),
(153,0,o),
(123,-21,o),
(104,-58,o),
(104,-88,q)
);
},
{
closed = 1;
nodes = (
(162,300,o),
(205,240,o),
(253,240,q),
(277,240,o),
(311,255,o),
(333,285,o),
(342,333,o),
(342,365,q),
(342,433,o),
(301,497,o),
(252,497,q),
(204,497,o),
(162,431,o),
(162,364,q)
);
}
);
width = 538;
}
);
unicode = 103;
}
{
glyphname = h;
layers = (
{
layerId = master01;
shapes = (
{
closed = 1;
nodes = (
(287,0,l),
(18,0,l),
(18,42,l),
(26,42,l),
(43,42,o),
(73,47,o),
(95,62,o),
(108,90,o),
(108,114,q),
(108,650,l),
(108,672,o),
(95,699,o),
(72,713,o),
(42,718,o),
(26,718,q),
(18,718,l),
(18,760,l),
(202,760,l),
(202,540,l),
(202,526,o),
(201,497,o),
(200,484,q),
(199,469,o),
(198,455,q),
(203,455,l),
(248,546,o),
(350,546,q),
(393,546,o),
(458,523,o),
(503,476,o),
(527,401,o),
(527,350,q),
(527,114,l),
(527,90,o),
(539,62,o),
(559,47,o),
(587,42,o),
(604,42,q),
(607,42,l),
(607,0,l),
(433,0,l),
(433,345,l),
(433,378,o),
(421,429,o),
(396,464,o),
(354,482,o),
(323,482,q),
(292,482,o),
(247,459,o),
(217,417,o),
(202,356,o),
(202,320,q),
(202,109,l),
(202,87,o),
(215,60,o),
(238,46,o),
(268,42,o),
(284,42,q),
(287,42,l)
);
}
);
width = 635;
}
);
unicode = 104;
}
{
glyphname = i;
layers = (
{
layerId = master01;
shapes = (
{
closed = 1;
nodes = (
(53,42,o),
(83,46,o),
(105,60,o),
(118,87,o),
(118,109,q),
(118,426,l),
(118,448,o),
(105,475,o),
(83,489,o),
(53,494,o),
(36,494,q),
(33,494,l),
(33,536,l),
(212,536,l),
(212,114,l),
(212,90,o),
(225,62,o),
(247,47,o),
(277,42,o),
(294,42,q),
(307,42,l),
(307,0,l),
(23,0,l),
(23,42,l),
(36,42,l)
);
},
{
closed = 1;
nodes = (
(104,716,o),
(113,739,o),
(128,754,o),
(149,760,o),
(161,760,q),
(173,760,o),
(193,754,o),
(208,739,o),
(218,716,o),
(218,698,q),
(218,681,o),
(208,657,o),
(193,643,o),
(173,636,o),
(161,636,q),
(149,636,o),
(128,643,o),
(113,657,o),
(104,681,o),
(104,698,q)
);
}
);
width = 320;
}
);
unicode = 105;
}
{
glyphname = k;
layers = (
{
layerId = master01;
shapes = (
{
closed = 1;
nodes = (
(472,124,ls),
(506.667,70.667,o),
(537.667,42,o),
(583,42,cs),
(586,42,l),
(586,0,l),
(572,0,ls),
(455.751,0,o),
(432.968,7.479,o),
(376,97,cs),
(276,254,l),
(202,199,l),
(202,109,ls),
(202,48.394,o),
(241.366,42,o),
(284,42,cs),
(287,42,l),
(287,0,l),
(18,0,l),
(18,42,l),
(26,42,ls),
(69.943,42,o),
(108,50.617,o),
(108,114,cs),
(108,650,ls),
(108,708.405,o),
(70.11,718,o),
(26,718,cs),
(18,718,l),
(18,760,l),
(202,760,l),
(202,374,ls),
(202,355.333,o),
(201.333,325,o),
(200,297,cs),
(199.333,281.667,o),
(198.667,265.333,o),
(198,248,c),
(323,385,ls),
(366.711,434.175,o),
(378,455.591,o),
(378,474,cs),
(378,482.667,o),
(374,488.167,o),
(366,490.5,cs),
(358,492.833,o),
(345.667,494,o),
(329,494,c),
(329,536,l),
(550,536,l),
(550,494,l),
(503.333,494,o),
(461,459.667,o),
(409,401,cs),
(339,322,l),
(339,322,l)
);
}
);
width = 585;
}
);
unicode = 107;
}
{
glyphname = l;
layers = (
{
layerId = master01;
shapes = (
{
closed = 1;
nodes = (
(43,42,o),
(73,47,o),
(95,62,o),
(108,90,o),
(108,114,q),
(108,650,l),
(108,672,o),
(95,699,o),
(72,713,o),
(42,718,o),
(26,718,q),
(13,718,l),
(13,760,l),
(202,760,l),
(202,114,l),
(202,90,o),
(215,62,o),
(237,47,o),
(267,42,o),
(284,42,q),
(297,42,l),
(297,0,l),
(13,0,l),
(13,42,l),
(26,42,l)
);
}
);
width = 310;
}
);
unicode = 108;
}
{
glyphname = o;
layers = (
{
layerId = master01;
shapes = (
{
closed = 1;
nodes = (
(522,128,o),
(402,-10,o),
(287,-10,q),
(233,-10,o),
(147,24,o),
(87,94,o),
(55,199,o),
(55,269,q),
(55,409,o),
(174,546,o),
(290,546,q),
(344,546,o),
(430,512,o),
(490,443,o),
(522,339,o),
(522,269,q)
);
},
{
closed = 1;
nodes = (
(152,213,o),
(167,128,o),
(199,71,o),
(251,42,o),
(289,42,q),
(327,42,o),
(378,71,o),
(411,128,o),
(425,213,o),
(425,269,q),
(425,325,o),
(410,409,o),
(378,465,o),
(326,493,o),
(288,493,q),
(250,493,o),
(199,465,o),
(167,409,o),
(152,325,o),
(152,269,q)
);
}
);
width = 577;
}
);
unicode = 111;
}
{
glyphname = p;
layers = (
{
layerId = master01;
shapes = (
{
closed = 1;
nodes = (
(299,482,o),
(247,456,o),
(215,403,o),
(202,323,o),
(202,269,q),
(202,217,o),
(215,137,o),
(247,82,o),
(299,54,o),
(339,54,q),
(372,54,o),
(418,82,o),
(448,137,o),
(462,217,o),
(462,270,q),
(462,323,o),
(448,403,o),
(418,456,o),
(371,482,o),
(338,482,q)
);
},
{
closed = 1;
nodes = (
(559,197,o),
(532,91,o),
(480,23,o),
(404,-10,o),
(355,-10,q),
(326,-10,o),
(279,3,o),
(242,26,o),
(213,59,o),
(202,78,q),
(198,78,l),
(199,52,o),
(200,30,q),
(201,21,o),
(201,0,o),
(202,-17,o),
(202,-31,o),
(202,-35,q),
(202,-131,l),
(202,-153,o),
(215,-180,o),
(238,-194,o),
(268,-198,o),
(284,-198,q),
(287,-198,l),
(287,-240,l),
(18,-240,l),
(18,-198,l),
(26,-198,l),
(43,-198,o),
(73,-193,o),
(95,-178,o),
(108,-149,o),
(108,-126,q),
(108,426,l),
(108,448,o),
(95,475,o),
(72,489,o),
(42,494,o),
(26,494,q),
(13,494,l),
(13,536,l),
(188,536,l),
(198,446,l),
(202,446,l),
(213,469,o),
(242,506,o),
(279,532,o),
(326,546,o),
(355,546,q),
(404,546,o),
(480,513,o),
(532,445,o),
(559,341,o),
(559,269,q)
);
}
);
width = 614;
}
);
unicode = 112;
}
{
glyphname = q;
layers = (
{
layerId = master01;
shapes = (
{
closed = 1;
nodes = (
(297,-240,l),
(297,-198,l),
(330,-198,ls),
(375.892,-198,o),
(412,-187.89,o),
(412,-126,cs),
(412,-40,ls),
(412,-17.333,o),
(412.667,14,o),
(414,42,cs),
(414.667,57.333,o),
(415.333,73.333,o),
(416,90,c),
(412,90,l),
(382.01,27.293,o),
(334.645,-10,o),
(259,-10,cs),
(192.333,-10,o),
(141.5,11.667,o),
(107.5,57,cs),
(73.5,102.333,o),
(55,171,o),
(55,267,cs),
(55,363,o),
(73.5,433.667,o),
(107.5,479,cs),
(141.5,524.333,o),
(192.333,546,o),
(259,546,cs),
(337.213,546,o),
(383.049,510.639,o),
(412,458,c),
(418,458,l),
(436,536,l),
(596,536,l),
(596,494,l),
(588,494,ls),
(542.108,494,o),
(506,483.89,o),
(506,422,cs),
(506,-130,ls),
(506,-186.928,o),
(541.289,-198,o),
(588,-198,cs),
(596,-198,l),
(596,-240,l),
(596,-240,l)
);
},
{
closed = 1;
nodes = (
(380.3,54,o),
(412,123.721,o),
(412,267,cs),
(412,408.128,o),
(378.665,482,o),
(275,482,cs),
(185.8,482,o),
(152,403.655,o),
(152,266,cs),
(152,124.667,o),
(186.667,54,o),
(276,54,cs)
);
}
);
width = 614;
}
);
unicode = 113;
}
{
glyphname = r;
layers = (
{
layerId = master01;
shapes = (
{
closed = 1;
nodes = (
(33,0,l),
(33,42,l),
(36,42,ls),
(79.943,42,o),
(118,50.617,o),
(118,114,cs),
(118,426,ls),
(118,484.112,o),
(81.565,494,o),
(36,494,cs),
(33,494,l),
(33,536,l),
(187,536,l),
(206,437,l),
(211,437,l),
(237.377,495.03,o),
(257.231,546,o),
(348,546,cs),
(421.333,546,o),
(456,519.667,o),
(456,473,cs),
(456,430.472,o),
(429.857,402,o),
(363,402,c),
(363,456.667,o),
(348.667,480,o),
(310,480,cs),
(275.543,480,o),
(248.628,449.885,o),
(232.5,401.5,cs),
(218.287,358.861,o),
(212,307.751,o),
(212,266,cs),
(212,109,ls),
(212,50.414,o),
(247.895,42,o),
(294,42,cs),
(322,42,l),
(322,0,l),
(322,0,l)
);
}
);
width = 471;
}
);
unicode = 114;
}
{
glyphname = s;
layers = (
{
layerId = master01;
shapes = (
{
closed = 1;
nodes = (
(172,-10,o),
(111,3,o),
(68,30,o),
(45,70,o),
(45,96,q),
(45,116,o),
(58,143,o),
(77,159,o),
(99,165,o),
(108,165,q),
(108,139,o),
(119,93,o),
(144,58,o),
(186,38,o),
(216,38,q),
(243,38,o),
(284,51,o),
(312,75,o),
(326,109,o),
(326,129,q),
(326,147,o),
(315,174,o),
(287,198,o),
(239,222,o),
(203,238,q),
(165,255,o),
(107,287,o),
(70,324,o),
(52,371,o),
(52,404,q),
(52,438,o),
(79,491,o),
(128,526,o),
(198,545,o),
(240,545,q),
(276,545,o),
(331,530,o),
(368,505,o),
(386,472,o),
(386,453,q),
(386,426,o),
(349,393,o),
(314,393,q),
(314,443,o),
(272,499,o),
(228,499,q),
(203,499,o),
(167,487,o),
(144,466,o),
(133,437,o),
(133,419,q),
(133,400,o),
(146,372,o),
(176,349,o),
(224,327,o),
(257,313,q),
(296,296,o),
(353,264,o),
(390,226,o),
(407,178,o),
(407,147,q),
(407,108,o),
(379,49,o),
(327,10,o),
(254,-10,o),
(210,-10,q)
);
}
);
width = 451;
}
);
unicode = 115;
}
{
glyphname = t;
layers = (
{
layerId = master01;
shapes = (
{
closed = 1;
nodes = (
(283,43,o),
(313,47,o),
(329,50,q),
(329,6,l),
(323,3,o),
(302,-3,o),
(278,-7,o),
(252,-10,o),
(240,-10,q),
(202,-10,o),
(147,6,o),
(112,42,o),
(95,102,o),
(95,145,q),
(95,479,l),
(19,479,l),
(19,519,l),
(37,519,o),
(81,534,o),
(97,551,q),
(114,569,o),
(135,621,o),
(143,659,q),
(189,659,l),
(189,536,l),
(320,536,l),
(320,479,l),
(189,479,l),
(189,142,l),
(189,91,o),
(230,43,o),
(265,43,q)
);
}
);
width = 352;
}
);
unicode = 116;
}
{
glyphname = w;
layers = (
{
layerId = master01;
shapes = (
{
closed = 1;
nodes = (
(576,237,ls),
(591.118,191.646,o),
(613.847,121.495,o),
(619,88,c),
(622,88,l),
(627.333,121.333,o),
(641,170,o),
(661,234,cs),
(711,395,ls),
(716.333,412.333,o),
(720,434.333,o),
(720,445,cs),
(720,479.667,o),
(699.333,494,o),
(654,494,cs),
(647,494,l),
(647,536,l),
(861,536,l),
(861,494,l),
(848,494,ls),
(810.394,494,o),
(790.931,480.038,o),
(773,416,cs),
(644,0,l),
(564,0,l),
(445,352,l),
(427,418,l),
(285,0,l),
(206,0,l),
(75,441,l),
(59.551,482.196,o),
(44.979,494,o),
(4,494,cs),
(1,494,l),
(1,536,l),
(248,536,l),
(248,494,l),
(235,494,ls),
(195,494,o),
(175,485.333,o),
(175,452,cs),
(175,441.333,o),
(179,423.667,o),
(183,409,cs),
(230,241,ls),
(245.438,185.424,o),
(260.163,119.443,o),
(265,88,c),
(268,88,l),
(277.919,130.982,o),
(285.307,159.921,o),
(309,231,cs),
(413,533,l),
(476,533,l),
(476,533,l)
);
}
);
width = 862;
}
);
unicode = 119;
}
{
glyphname = x;
layers = (
{
layerId = master01;
shapes = (
{
closed = 1;
nodes = (
(384,483,o),
(353,494,o),
(330,494,q),
(327,494,l),
(327,536,l),
(546,536,l),
(546,494,l),
(537,494,l),
(522,494,o),
(499,489,o),
(476,476,o),
(451,450,o),
(436,430,q),
(333,293,l),
(480,95,l),
(502,66,o),
(542,42,o),
(560,42,q),
(573,42,l),
(573,0,l),
(315,0,l),
(315,42,l),
(320,42,l),
(380,42,o),
(380,75,q),
(380,81,o),
(377,92,o),
(368,107,o),
(354,128,o),
(342,144,q),
(275,234,l),
(205,136,l),
(201,130,o),
(191,115,o),
(183,98,o),
(178,81,o),
(178,73,q),
(178,56,o),
(207,42,o),
(240,42,q),
(243,42,l),
(243,0,l),
(5,0,l),
(5,42,l),
(14,42,l),
(32,42,o),
(60,48,o),
(84,63,o),
(108,87,o),
(123,106,q),
(249,269,l),
(123,441,l),
(101,467,o),
(60,494,o),
(37,494,q),
(24,494,l),
(24,536,l),
(278,536,l),
(278,494,l),
(275,494,l),
(258,494,o),
(235,490,o),
(223,481,o),
(218,471,o),
(218,465,q),
(218,455,o),
(230,435,o),
(241,419,q),
(307,329,l),
(359,404,l),
(370,421,o),
(384,451,o),
(384,465,q)
);
}
);
width = 578;
}
);
unicode = 120;
}
{
glyphname = y;
layers = (
{
layerId = master01;
shapes = (
{
closed = 1;
nodes = (
(565,494,l),
(562,494,ls),
(522.53,494,o),
(511.097,482.924,o),
(486,416,cs),
(334,-4,ls),
(310,-68,o),
(290.667,-116.167,o),
(268,-151.5,cs),
(256.667,-169.167,o),
(244.167,-183.667,o),
(230.5,-195,cs),
(188.28,-230.012,o),
(133.719,-240,o),
(47,-240,cs),
(38,-240,l),
(38,-193,l),
(171.797,-193,o),
(230.973,-108.093,o),
(263,4,c),
(78,441,ls),
(60.691,480.564,o),
(51.98,494,o),
(7,494,cs),
(4,494,l),
(4,536,l),
(244,536,l),
(244,494,l),
(241,494,ls),
(201,494,o),
(181,479.333,o),
(181,446,cs),
(181,435.333,o),
(183.667,423.667,o),
(189,409,cs),
(262,231,ls),
(280.018,187.242,o),
(305.105,117.82,o),
(310,86,c),
(313,86,l),
(319.667,115.333,o),
(332.667,159,o),
(350,207,cs),
(417,402,ls),
(422.333,418,o),
(426,434.333,o),
(426,445,cs),
(426,479.667,o),
(404,494,o),
(360,494,cs),
(357,494,l),
(357,536,l),
(565,536,l),
(565,536,l)
);
}
);
width = 565;
}
);
unicode = 121;
}
{
glyphname = uni4E39;
layers = (
{
layerId = master01;
shapes = (
{
closed = 1;
nodes = (
(717,-132,o),
(699,-152,q),
(696,-156,o),
(691,-156,q),
(685,-156,o),
(681,-151,q),
(643,-106,o),
(542,-25,o),
(499,1,q),
(515,31,l),
(653,-32,l),
(661,-36,o),
(666,-36,q),
(669,-36,o),
(672,-29,o),
(672,-23,q),
(677,31,o),
(677,369,q),
(677,586,o),
(675,640,q),
(675,650,o),
(664,648,q),
(315,614,l),
(311,663,l),
(560,688,l),
(608,693,o),
(657,710,o),
(686,737,q),
(693,744,o),
(699,738,q),
(765,684,l),
(769,680,o),
(764,673,q),
(748,652,l),
(740,642,o),
(740,631,q),
(736,469,o),
(736,341,q),
(736,138,o),
(742,-32,q),
(743,-62,o)
);
},
{
closed = 1;
nodes = (
(253,705,o),
(230,735,q),
(241,747,l),
(352,661,l),
(345,638,o),
(343,590,q),
(341,549,o),
(341,437,q),
(341,292,o),
(297,91,o),
(176,-79,o),
(62,-157,q),
(41,-128,l),
(147,-45,o),
(247,132,o),
(273,299,o),
(275,422,q),
(275,472,l),
(275,545,o),
(274,584,q),
(273,633,o)
);
},
{
closed = 1;
nodes = (
(122,235,q),
(46,294,l),
(51,307,l),
(97,302,o),
(149,302,q),
(169,302,o),
(209,304,q),
(471,318,o),
(713,343,q),
(759,346,o),
(816,358,o),
(840,371,q),
(845,374,o),
(850,371,q),
(942,320,l),
(939,305,l),
(685,290,o),
(243,254,q),
(181,249,o)
);
},
{
closed = 1;
nodes = (
(566,408,q),
(570,403,o),
(567,395,q),
(535,311,l),
(532,302,o),
(527,302,q),
(523,302,o),
(520,313,q),
(507,365,o),
(464,482,o),
(439,528,q),
(459,543,l),
(512,483,o)
);
}
);
width = 1000;
}
);
unicode = 20025;
}
{
glyphname = uni4EFF;
layers = (
{
layerId = master01;
shapes = (
{
closed = 1;
nodes = (
(679,313,o),
(714,320,q),
(784,334,o),
(816,367,q),
(822,373,o),
(828,367,q),
(886,304,l),
(891,299,o),
(885,293,q),
(862,272,l),
(857,268,o),
(853,262,o),
(852,257,o),
(852,255,q),
(806,44,o),
(749,-81,q),
(740,-103,o),
(704,-144,o),
(686,-153,q),
(680,-155,o),
(679,-155,q),
(674,-155,o),
(671,-150,q),
(629,-81,o),
(545,10,q),
(559,28,l),
(672,-52,l),
(679,-57,o),
(682,-57,q),
(686,-57,o),
(691,-46,q),
(719,10,o),
(768,171,o),
(786,258,q),
(787,264,o),
(787,271,q),
(787,275,o),
(783,278,o),
(777,277,q),
(538,246,l),
(551,299,l),
(585,301,o)
);
},
{
closed = 1;
nodes = (
(505,200,o),
(527,360,q),
(534,401,o),
(534,437,q),
(534,476,o),
(525,491,q),
(558,493,l),
(613,441,l),
(605,412,o),
(593,349,o),
(592,342,q),
(561,166,o),
(415,-77,o),
(295,-161,q),
(277,-139,l),
(383,-45,o)
);
},
{
closed = 1;
nodes = (
(275,583,o),
(306,666,q),
(315,693,o),
(315,724,q),
(315,745,o),
(311,762,q),
(324,768,l),
(398,653,l),
(372,623,o),
(356,599,q),
(228,413,o),
(47,269,q),
(26,294,l),
(117,375,o)
);
},
{
closed = 1;
nodes = (
(267,335,q),
(267,278,l),
(266,220,o),
(266,-72,q),
(252,-78,l),
(189,-10,l),
(186,-7,o),
(189,-1,q),
(204,31,o),
(204,64,q),
(206,182,o),
(206,265,q),
(206,349,o),
(205,385,q),
(205,409,o),
(195,447,q),
(222,482,l),
(275,438,l),
(267,396,o)
);
},
{
closed = 1;
nodes = (
(403,454,q),
(337,508,l),
(342,520,l),
(392,515,o),
(418,515,q),
(435,515,o),
(465,517,q),
(539,520,o),
(731,538,o),
(796,546,q),
(839,551,o),
(875,569,q),
(879,571,o),
(884,568,q),
(966,522,l),
(963,505,l),
(735,491,o),
(498,467,q),
(450,462,o)
);
},
{
closed = 1;
nodes = (
(699,634,o),
(715,610,q),
(719,605,o),
(716,597,q),
(678,509,l),
(675,500,o),
(671,500,q),
(667,500,o),
(663,511,q),
(647,565,o),
(590,698,o),
(561,747,q),
(580,763,l),
(621,722,o)
);
}
);
width = 1000;
}
);
unicode = 20223;
}
{
glyphname = uni4F53;
layers = (
{
layerId = master01;
shapes = (
{
closed = 1;
nodes = (
(492,337,o),
(536,467,q),
(594,460,l),
(543,319,o),
(398,113,o),
(294,15,q),
(273,38,l),
(361,131,o)
);
},
{
closed = 1;
nodes = (
(832,208,q),
(872,147,o),
(931,96,o),
(979,82,q),
(978,59,l),
(852,55,l),
(843,55,o),
(837,65,q),
(744,261,o),
(640,459,q),
(664,490,l),
(781,285,o)
);
},
{
closed = 1;
nodes = (
(275,591,o),
(303,667,q),
(314,696,o),
(314,728,q),
(314,748,o),
(310,763,q),
(322,770,l),
(395,664,l),
(382,649,o),
(354,608,q),
(229,425,o),
(47,264,q),
(25,290,l),
(118,382,o)
);
},
{
closed = 1;
nodes = (
(250,331,q),
(250,265,l),
(249,196,o),
(249,-121,q),
(235,-127,l),
(179,-59,l),
(176,-56,o),
(179,-50,q),
(194,-19,o),
(194,15,q),
(196,139,o),
(196,245,q),
(196,343,o),
(195,381,q),
(195,405,o),
(185,443,q),
(212,478,l),
(258,434,l),
(250,392,o)
);
},
{
closed = 1;
nodes = (
(392,424,q),
(326,474,l),
(331,486,l),
(381,481,o),
(407,481,q),
(424,481,o),
(454,483,q),
(620,492,o),
(753,510,q),
(796,515,o),
(832,533,q),
(836,535,o),
(841,532,q),
(923,490,l),
(920,473,l),
(870,471,o),
(562,445,o),
(487,437,q),
(439,432,o)
);
},
{
closed = 1;
nodes = (
(492,50,q),
(431,97,l),
(436,109,l),
(477,106,o),
(501,106,q),
(520,106,o),
(550,108,q),
(617,113,o),
(645,117,q),
(670,120,o),
(694,130,o),
(709,139,q),
(714,142,o),
(718,139,q),
(792,100,l),
(789,84,l),
(716,79,o),
(616,68,q),
(584,65,l),
(531,60,o)
);
},
{
closed = 1;
nodes = (
(646,580,q),
(645,212,l),
(643,-38,o),
(643,-156,q),
(630,-162,l),
(570,-94,l),
(568,-92,o),
(570,-85,q),
(582,-58,o),
(584,-20,q),
(589,118,o),
(589,371,q),
(589,529,o),
(586,632,q),
(585,663,o),
(565,728,o),
(543,752,q),
(554,764,l),
(656,683,l),
(646,640,o)
);
}
);
width = 1000;
}
);
unicode = 20307;
}
{
glyphname = uni5951;
layers = (
{
layerId = master01;
shapes = (
{
closed = 1;
nodes = (
(586,599,o),
(565,593,q),
(502,644,l),
(508,656,l),
(543,649,o),
(578,649,q),
(618,649,o),
(715,660,o),
(751,668,q),
(791,677,o),
(818,704,q),
(822,708,o),
(826,704,q),
(883,647,l),
(887,643,o),
(882,638,q),
(858,617,l),
(851,611,o),
(849,607,o),
(848,600,q),
(835,485,o),
(813,361,o),
(794,314,q),
(774,265,o),
(753,246,q),
(745,236,o),
(740,246,q),
(719,279,o),
(670,337,o),
(632,373,q),
(645,390,l),
(728,342,l),
(733,338,o),
(737,338,q),
(741,338,o),
(745,349,q),
(763,395,o),
(786,537,o),
(789,612,q),
(789,624,o),
(780,623,q),
(660,609,l),
(634,606,o)
);
},
{
closed = 1;
nodes = (
(691,566,l),
(674,533,o),
(651,481,q),
(601,374,o),
(512,280,q),
(493,296,l),
(535,350,o),
(595,476,o),
(607,523,q),
(620,572,o),
(620,606,q),
(620,618,o),
(619,622,q),
(631,633,l)
);
},
{
closed = 1;
nodes = (
(397,38,o),
(439,157,q),
(452,193,o),
(452,231,q),
(452,268,o),
(441,293,q),
(454,301,l),
(538,222,l),
(527,202,o),
(509,158,q),
(493,118,o),
(479,92,q),
(424,-11,o),
(227,-133,o),
(85,-168,q),
(76,-142,l),
(210,-99,o)
);
},
{
closed = 1;
nodes = (
(148,91,q),
(70,145,l),
(75,158,l),
(120,155,o),
(157,155,q),
(198,155,o),
(235,158,q),
(329,165,l),
(360,167,o),
(576,183,o),
(698,196,q),
(750,202,o),
(804,213,o),
(828,227,q),
(832,229,o),
(837,226,q),
(930,177,l),
(927,162,l),
(646,144,o),
(271,110,q),
(210,105,o)
);
},
{
closed = 1;
nodes = (
(158,548,q),
(94,591,l),
(98,603,l),
(134,599,o),
(168,599,q),
(188,599,o),
(214,601,q),
(294,608,o),
(334,615,q),
(367,621,o),
(395,637,q),
(400,639,o),
(403,637,q),
(484,602,l),
(481,586,l),
(399,580,o),
(247,563,q),
(196,558,o)
);
},
{
closed = 1;
nodes = (
(221,445,o),
(198,439,q),
(133,482,l),
(138,494,l),
(174,490,o),
(207,490,q),
(227,490,o),
(253,492,q),
(284,493,o),
(338,503,q),
(357,506,o),
(380,515,o),
(392,522,q),
(397,524,o),
(400,522,q),
(481,489,l),
(478,473,l),
(434,470,o),
(310,458,o),
(274,454,q),
(268,453,o)
);
},
{
closed = 1;
nodes = (
(151,322,q),
(86,365,l),
(91,377,l),
(127,373,o),
(161,373,q),
(180,373,o),
(206,375,q),
(312,384,o),
(359,393,q),
(389,398,o),
(421,415,q),
(426,417,o),
(430,415,q),
(509,380,l),
(506,364,l),
(447,360,o),
(287,343,o),
(239,337,q),
(190,332,o)
);
},
{
closed = 1;
nodes = (
(335,584,q),
(335,213,l),
(322,207,l),
(267,272,l),
(264,275,o),
(267,281,q),
(282,313,o),
(282,346,q),
(283,384,o),
(283,458,q),
(283,516,o),
(281,638,q),
(280,668,o),
(261,732,o),
(240,756,q),
(252,768,l),
(344,687,l),
(335,648,o)
);
},
{
closed = 1;
nodes = (
(575,92,q),
(654,23,o),
(688,-4,q),
(744,-49,o),
(860,-97,o),
(935,-107,q),
(934,-132,l),
(754,-149,l),
(751,-149,l),
(744,-149,o),
(738,-143,q),
(667,-64,o),
(552,56,o),
(481,124,q),
(509,149,l),
(491,164,o)
);
}
);
width = 1000;
}
);
unicode = 22865;
}
{
glyphname = uni6B4C;
layers = (
{
layerId = master01;
shapes = (
{
closed = 1;
nodes = (
(811,62,o),
(829,31,q),
(860,-23,o),
(928,-80,o),
(972,-90,q),
(971,-110,l),
(834,-118,l),
(825,-118,o),
(822,-108,q),
(791,-23,o),
(709,155,q),
(690,196,l),
(704,256,l),
(749,175,l)
);
},
{
closed = 1;
nodes = (
(278,522,q),
(278,524,l),
(278,530,o),
(271,530,q),
(236,528,o),
(184,520,q),
(170,558,l),
(218,562,o),
(244,568,q),
(261,572,o),
(280,585,o),
(293,598,q),
(297,602,o),
(303,598,q),
(354,560,l),
(358,557,o),
(354,552,q),
(341,533,l),
(336,526,o),
(334,519,q),
(333,515,o),
(320,456,o),
(320,435,q),
(272,426,l),
(278,497,o)
);
},
{
closed = 1;
nodes = (
(233,450,q),
(238,451,o),
(268,453,o),
(286,458,o),
(296,463,q),
(304,467,o),
(306,467,q),
(308,467,o),
(316,462,o),
(319,460,q),
(363,431,l),
(359,416,l),
(287,413,o),
(198,405,o),
(189,404,q),
(172,448,l),
(203,448,o)
);
},
{
closed = 1;
nodes = (
(459,168,q),
(459,125,l),
(459,23,o),
(462,-46,q),
(463,-66,o),
(437,-121,o),
(423,-137,q),
(418,-143,o),
(413,-138,q),
(377,-102,o),
(324,-59,o),
(278,-30,q),
(290,-8,l),
(390,-45,l),
(396,-48,o),
(398,-40,q),
(407,41,o),
(407,139,q),
(406,206,l),
(404,245,o),
(397,291,o),
(387,305,q),
(401,318,l),
(469,266,l),
(459,219,o)
);
},
{
closed = 1;
nodes = (
(753,541,q),
(791,545,l),
(813,548,o),
(853,563,o),
(880,588,q),
(885,591,o),
(888,588,q),
(948,525,l),
(952,522,o),
(947,517,q),
(905,482,l),
(884,464,o),
(817,359,q),
(797,371,l),
(842,491,l),
(845,498,o),
(837,498,q),
(610,478,l),
(629,528,l),
(668,531,o)
);
},
{
closed = 1;
nodes = (
(200,493,q),
(200,428,o),
(207,368,q),
(193,359,l),
(146,412,l),
(142,416,o),
(145,422,q),
(150,433,o),
(152,453,o),
(152,481,q),
(152,518,o),
(137,560,o),
(116,584,q),
(126,597,l),
(201,542,l),
(200,526,o)
);
},
{
closed = 1;
nodes = (
(269,156,q),
(269,158,l),
(269,164,o),
(262,164,q),
(229,162,o),
(163,152,q),
(149,192,l),
(186,195,o),
(225,202,q),
(260,208,o),
(284,232,q),
(289,237,o),
(294,232,q),
(342,194,l),
(346,191,o),
(343,187,q),
(329,167,l),
(324,160,o),
(322,153,q),
(317,131,o),
(307,67,o),
(307,52,q),
(263,43,l),
(269,114,o)
);
},
{
closed = 1;
nodes = (
(631,682,q),
(632,688,o),
(632,700,q),
(632,734,o),
(619,753,q),
(633,764,l),
(716,684,l),
(697,648,o),
(676,589,q),
(625,452,o),
(542,334,q),
(518,350,l),
(611,539,o)
);
},
{
closed = 1;
nodes = (
(671,167,o),
(671,306,q),
(671,331,o),
(670,343,q),
(668,390,o),
(650,419,q),
(661,430,l),
(748,368,l),
(737,325,o),
(732,275,q),
(720,124,o),
(597,-86,o),
(476,-163,q),
(461,-141,l),
(565,-59,o)
);
},
{
closed = 1;
nodes = (
(137,617,q),
(69,663,l),
(74,675,l),
(111,671,o),
(147,671,q),
(167,671,o),
(195,673,q),
(345,684,o),
(396,693,q),
(429,699,o),
(460,715,q),
(465,717,o),
(469,715,q),
(552,676,l),
(549,660,l),
(482,657,o),
(279,638,o),
(229,632,q),
(176,627,o)
);
},
{
closed = 1;
nodes = (
(102,270,q),
(34,315,l),
(39,327,l),
(76,323,o),
(112,323,q),
(132,323,o),
(160,325,q),
(209,328,o),
(384,346,o),
(414,352,q),
(461,360,o),
(478,369,q),
(483,371,o),
(487,369,q),
(570,334,l),
(567,318,l),
(498,314,o),
(260,292,o),
(194,285,q),
(141,280,o)
);
},
{
closed = 1;
nodes = (
(462,516,q),
(461,329,l),
(449,323,l),
(396,388,l),
(393,391,o),
(396,397,q),
(409,430,o),
(409,459,q),
(409,570,l),
(409,615,o),
(389,658,q),
(412,667,l),
(470,614,l),
(462,581,o)
);
},
{
closed = 1;
nodes = (
(214,74,q),
(219,75,o),
(249,77,o),
(267,82,o),
(277,87,q),
(285,91,o),
(287,91,q),
(289,91,o),
(297,86,o),
(300,84,q),
(344,55,l),
(340,40,l),
(268,37,o),
(179,29,o),
(170,28,q),
(153,72,l),
(184,72,o)
);
},
{
closed = 1;
nodes = (
(182,132,q),
(182,36,o),
(189,-24,q),
(175,-33,l),
(126,21,l),
(122,25,o),
(125,31,q),
(129,42,o),
(132,57,o),
(132,71,q),
(132,126,l),
(132,163,o),
(117,205,o),
(96,229,q),
(106,242,l),
(183,187,l),
(182,171,o)
);
}
);
width = 1000;
}
);
unicode = 27468;
}
{
glyphname = u16FE4;
layers = (
{
layerId = master01;
shapes = (
{
closed = 1;
nodes = (
(200,650,l),
(200,600,l),
(150,600,l),
(150,650,l)
);
},
{
closed = 1;
nodes = (
(309,650,l),
(309,600,l),
(259,600,l),
(259,650,l)
);
},
{
closed = 1;
nodes = (
(418,650,l),
(418,600,l),
(368,600,l),
(368,650,l)
);
},
{
closed = 1;
nodes = (
(522,650,l),
(522,600,l),
(472,600,l),
(472,650,l)
);
},
{
closed = 1;
nodes = (
(631,650,l),
(631,600,l),
(581,600,l),
(581,650,l)
);
},
{
closed = 1;
nodes = (
(740,650,l),
(740,600,l),
(690,600,l),
(690,650,l)
);
},
{
closed = 1;
nodes = (
(850,650,l),
(850,600,l),
(800,600,l),
(800,650,l)
);
},
{
closed = 1;
nodes = (
(200,541,l),
(200,491,l),
(150,491,l),
(150,541,l)
);
},
{
closed = 1;
nodes = (
(850,541,l),
(850,491,l),
(800,491,l),
(800,541,l)
);
},
{
closed = 1;
nodes = (
(200,432,l),
(200,382,l),
(150,382,l),
(150,432,l)
);
},
{
closed = 1;
nodes = (
(850,432,l),
(850,382,l),
(800,382,l),
(800,432,l)
);
},
{
closed = 1;
nodes = (
(200,328,l),
(200,278,l),
(150,278,l),
(150,328,l)
);
},
{
closed = 1;
nodes = (
(850,328,l),
(850,278,l),
(800,278,l),
(800,328,l)
);
},
{
closed = 1;
nodes = (
(200,219,l),
(200,169,l),
(150,169,l),
(150,219,l)
);
},
{
closed = 1;
nodes = (
(850,219,l),
(850,169,l),
(800,169,l),
(800,219,l)
);
},
{
closed = 1;
nodes = (
(200,110,l),
(200,60,l),
(150,60,l),
(150,110,l)
);
},
{
closed = 1;
nodes = (
(850,110,l),
(850,60,l),
(800,60,l),
(800,110,l)
);
},
{
closed = 1;
nodes = (
(200,0,l),
(200,-50,l),
(150,-50,l),
(150,0,l)
);
},
{
closed = 1;
nodes = (
(309,0,l),
(309,-50,l),
(259,-50,l),
(259,0,l)
);
},
{
closed = 1;
nodes = (
(418,0,l),
(418,-50,l),
(368,-50,l),
(368,0,l)
);
},
{
closed = 1;
nodes = (
(522,0,l),
(522,-50,l),
(472,-50,l),
(472,0,l)
);
},
{
closed = 1;
nodes = (
(631,0,l),
(631,-50,l),
(581,-50,l),
(581,0,l)
);
},
{
closed = 1;
nodes = (
(740,0,l),
(740,-50,l),
(690,-50,l),
(690,0,l)
);
},
{
closed = 1;
nodes = (
(850,0,l),
(850,-50,l),
(800,-50,l),
(800,0,l)
);
},
{
closed = 1;
nodes = (
(472,309,l),
(619,309,l),
(619,280,l),
(472,280,l),
(472,150,l),
(472,136,o),
(480,119,o),
(494,110,o),
(512,107,o),
(522,107,q),
(542,107,l),
(542,81,l),
(353,81,l),
(353,107,l),
(361,107,l),
(371,107,o),
(389,109,o),
(403,118,o),
(411,134,o),
(411,147,q),
(411,449,l),
(411,462,o),
(403,479,o),
(389,487,o),
(371,490,o),
(361,490,q),
(353,490,l),
(353,516,l),
(660,516,l),
(663,409,l),
(631,409,l),
(628,436,l),
(627,446,o),
(620,464,o),
(607,478,o),
(586,486,o),
(572,486,q),
(472,486,l)
);
}
);
width = 1000;
}
);
unicode = 94180;
}
{
glyphname = u18B00;
layers = (
{
layerId = master01;
shapes = (
{
closed = 1;
nodes = (
(318,232,l),
(510,147,o),
(655,58,q),
(660,56,o),
(661,47,q),
(680,-66,l),
(666,-75,l),
(598,-6,o),
(409,142,o),
(305,204,q)
);
},
{
closed = 1;
nodes = (
(338,673,l),
(500,622,o),
(635,562,q),
(640,559,o),
(641,551,q),
(663,447,l),
(648,437,l),
(577,499,o),
(433,594,o),
(327,649,q)
);
}
);
width = 1000;
}
);
unicode = 101120;
}
{
glyphname = u18B02;
layers = (
{
layerId = master01;
shapes = (
{
closed = 1;
nodes = (
(231.333,587.667,o),
(188.667,581.667,o),
(136,573,c),
(56,631,l),
(61,644,l),
(101,640,o),
(136,638,o),
(166,638,cs),
(180.667,638,o),
(200.667,638.667,o),
(226,640,cs),
(270.667,644,o),
(310,647.167,o),
(344,649.5,cs),
(378,651.833,o),
(408,654,o),
(434,656,cs),
(518.667,662,o),
(607.333,669,o),
(700,677,cs),
(774.667,682.333,o),
(805.333,687.333,o),
(840,706,cs),
(842,707.333,o),
(844.667,707,o),
(848,705,cs),
(944,651,l),
(941,637,l),
(760.333,627.667,o),
(534.667,612.333,o),
(264,591,cs)
);
},
{
closed = 1;
nodes = (
(556,578,l),
(548,544.667,o),
(545,524.333,o),
(545,475,cs),
(545,361.667,o),
(550,131.667,o),
(554,25,cs),
(554.667,4.333,o),
(553.333,-17.333,o),
(550,-40,cs),
(542,-82.667,o),
(532.333,-105.667,o),
(515,-131,cs),
(510.333,-137.667,o),
(505.333,-138.333,o),
(500,-133,cs),
(437.333,-71.667,o),
(350.333,-7.333,o),
(265,42,c),
(278,67,l),
(464,-15,ls),
(468,-16.333,o),
(470.333,-17,o),
(471,-17,cs),
(477.667,-17,o),
(481.667,-10.667,o),
(483,2,cs),
(485.667,26.667,o),
(487,81.667,o),
(487,167,cs),
(487,301.667,o),
(484.667,469,o),
(482,517,cs),
(480.667,553,o),
(471.667,600,o),
(453,632,c),
(485,636,l),
(485,636,l)
);
}
);
width = 1000;
}
);
unicode = 101122;
}
{
glyphname = u18B03;
layers = (
{
layerId = master01;
shapes = (
{
closed = 1;
nodes = (
(304,613.667,o),
(263.333,607.667,o),
(220,599,c),
(144,654,l),
(149,667,l),
(179.667,663.667,o),
(212.333,662,o),
(247,662,cs),
(260.333,662,o),
(280.333,662.667,o),
(307,664,cs),
(412.333,672.667,o),
(499.333,680,o),
(568,686,cs),
(612,690,ls),
(676,695.333,o),
(709,701.333,o),
(741,720,cs),
(743.667,721.333,o),
(745.667,721.5,o),
(747,720.5,cs),
(748.333,719.5,o),
(749.333,719,o),
(750,719,c),
(841,669,l),
(838,654,l),
(685.333,645.333,o),
(520,633,o),
(342,617,cs)
);
},
{
closed = 1;
nodes = (
(226.333,288.333,o),
(184,281.667,o),
(138,273,c),
(57,331,l),
(62,344,l),
(92,340.667,o),
(124.333,339,o),
(159,339,cs),
(175,339,o),
(197.667,339.667,o),
(227,341,cs),
(311.667,349,o),
(384.667,355.333,o),
(446,360,cs),
(698,383,ls),
(771.333,389.667,o),
(803.333,395,o),
(838,415,cs),
(840,416.333,o),
(842.667,416,o),
(846,414,cs),
(943,361,l),
(940,347,l),
(778.667,336.333,o),
(553.667,318.333,o),
(265,293,cs)
);
},
{
closed = 1;
nodes = (
(542,602,l),
(535.333,573.333,o),
(532,539,o),
(532,499,cs),
(532,360.333,o),
(531.667,254.667,o),
(531,182,cs),
(530,-136,l),
(517,-142,l),
(452,-74,ls),
(450.667,-72.667,o),
(450.667,-69.667,o),
(452,-65,cs),
(460,-47,o),
(464.667,-25.333,o),
(466,0,cs),
(469.333,78,o),
(471,191.333,o),
(471,340,cs),
(471,424,o),
(470,496,o),
(468,556,cs),
(466.667,591.333,o),
(460,621.667,o),
(448,647,c),
(477,659,l),
(477,659,l)
);
}
);
width = 1000;
}
);
unicode = 101123;
}
{
glyphname = u18B04;
layers = (
{
layerId = master01;
shapes = (
{
closed = 1;
nodes = (
(198,-109,o),
(117,-122,q),
(37,-63,l),
(42,-50,l),
(99,-57,o),
(150,-57,q),
(169,-57,o),
(207,-55,q),
(353,-46,o),
(593,-29,o),
(719,-20,q),
(773,-16,o),
(833,-4,o),
(859,10,q),
(862,12,o),
(867,9,q),
(963,-45,l),
(960,-59,l),
(545,-80,o),
(244,-104,q)
);
},
{
closed = 1;
nodes = (
(285,595,o),
(220,582,q),
(144,637,l),
(149,650,l),
(195,645,o),
(247,645,q),
(267,645,o),
(307,647,q),
(465,660,o),
(568,669,q),
(612,673,l),
(660,677,o),
(717,689,o),
(741,703,q),
(745,705,o),
(749,702,o),
(750,702,q),
(841,652,l),
(838,637,l),
(609,624,o),
(342,600,q)
);
},
{
closed = 1;
nodes = (
(345,256,o),
(272,241,q),
(196,296,l),
(201,309,l),
(259,304,o),
(293,304,q),
(326,304,o),
(359,307,q),
(496,317,o),
(580,325,q),
(628,329,o),
(685,341,o),
(708,356,q),
(713,358,o),
(717,355,q),
(809,306,l),
(806,291,l),
(669,281,l),
(500,269,o),
(394,260,q)
);
},
{
closed = 1;
nodes = (
(541,578,l),
(532,531,o),
(532,475,q),
(532,-59,l),
(472,-66,l),
(472,239,l),
(472,491,o),
(471,532,q),
(470,555,o),
(456,606,o),
(443,628,q),
(467,639,l)
);
}
);
width = 1000;
}
);
unicode = 101124;
}
{
glyphname = u18B05;
layers = (
{
layerId = master01;
shapes = (
{
closed = 1;
nodes = (
(285,593,o),
(220,580,q),
(144,635,l),
(149,648,l),
(195,643,o),
(247,643,q),
(267,643,o),
(307,645,q),
(465,658,o),
(568,667,q),
(612,671,l),
(660,675,o),
(717,687,o),
(741,701,q),
(745,703,o),
(749,700,o),
(750,700,q),
(841,650,l),
(838,635,l),
(609,622,o),
(342,598,q)
);
},
{
closed = 1;
nodes = (
(345,278,o),
(272,263,q),
(196,318,l),
(201,331,l),
(259,326,o),
(293,326,q),
(326,326,o),
(359,329,q),
(496,339,o),
(580,347,q),
(628,351,o),
(685,363,o),
(708,378,q),
(713,380,o),
(717,377,q),
(809,328,l),
(806,313,l),
(669,303,l),
(500,291,o),
(394,282,q)
);
},
{
closed = 1;
nodes = (
(541,578,l),
(532,531,o),
(532,475,q),
(532,-20,l),
(472,-27,l),
(472,258,l),
(472,493,o),
(471,532,q),
(470,555,o),
(456,606,o),
(443,628,q),
(467,639,l)
);
},
{
closed = 1;
nodes = (
(173,-68,o),
(116,-80,q),
(40,-25,l),
(45,-12,l),
(86,-16,o),
(131,-16,q),
(154,-16,o),
(202,-14,q),
(308,-7,o),
(506,5,o),
(603,12,q),
(756,23,l),
(824,27,o),
(885,55,q),
(892,58,o),
(895,55,q),
(958,-6,l),
(962,-10,o),
(958,-13,q),
(943,-30,o),
(806,-159,o),
(778,-181,q),
(754,-157,l),
(788,-123,o),
(853,-44,o),
(862,-29,q),
(867,-21,o),
(859,-21,q),
(529,-39,o),
(238,-63,q)
);
}
);
width = 1000;
}
);
unicode = 101125;
}
{
glyphname = u18B06;
layers = (
{
layerId = master01;
shapes = (
{
closed = 1;
nodes = (
(69,-90,l),
(187,-44,o),
(351,78,o),
(452,288,o),
(456,447,q),
(457,491,l),
(457,607,o),
(425,647,q),
(435,655,l),
(535,587,l),
(527,536,o),
(525,471,q),
(521,225,o),
(291,-54,o),
(81,-121,q)
);
},
{
closed = 1;
nodes = (
(255,362,o),
(217,354,q),
(140,409,l),
(145,422,l),
(187,416,o),
(230,416,q),
(242,416,o),
(305,419,q),
(424,428,o),
(716,458,o),
(745,463,q),
(818,477,o),
(852,511,q),
(857,516,o),
(861,511,q),
(914,447,l),
(919,442,o),
(914,437,q),
(890,416,l),
(883,410,o),
(881,406,o),
(880,399,q),
(874,305,l),
(866,170,o),
(849,-11,o),
(834,-62,q),
(816,-121,o),
(803,-139,q),
(797,-146,o),
(790,-139,q),
(708,-60,o),
(585,9,q),
(596,30,l),
(758,-34,l),
(764,-37,o),
(767,-37,q),
(770,-37,o),
(774,-25,q),
(791,28,o),
(814,290,o),
(816,408,q),
(816,421,o),
(806,420,q),
(635,402,l),
(390,377,o),
(320,369,q)
);
},
{
closed = 1;
nodes = (
(214,601,o),
(152,587,q),
(74,644,l),
(79,657,l),
(124,654,o),
(161,654,q),
(202,654,o),
(239,657,q),
(408,668,o),
(615,689,q),
(636,692,o),
(675,695,o),
(692,697,q),
(744,703,o),
(798,714,o),
(822,728,q),
(826,730,o),
(831,727,q),
(924,675,l),
(921,660,l),
(681,644,o),
(354,613,q),
(302,609,o),
(275,606,q)
);
},
{
closed = 1;
nodes = (
(485,304,l),
(559,279,o),
(658,240,o),
(711,215,q),
(715,213,o),
(716,204,q),
(728,101,l),
(711,96,l),
(652,157,o),
(552,238,o),
(474,282,q)
);
}
);
width = 1000;
}
);
unicode = 101126;
}
{
glyphname = u18B07;
layers = (
{
layerId = master01;
shapes = (
{
closed = 1;
nodes = (
(564,4,o),
(567,-43,q),
(569,-65,o),
(562,-82,q),
(549,-127,o),
(530,-154,q),
(525,-159,o),
(518,-159,q),
(509,-159,o),
(502,-151,q),
(425,-80,o),
(349,-30,q),
(362,-7,l),
(474,-48,l),
(480,-50,o),
(483,-50,q),
(492,-50,o),
(492,-37,q),
(497,134,o),
(497,338,q),
(496,632,l),
(555,641,l),
(555,544,l),
(555,407,o),
(560,116,q)
);
},
{
closed = 1;
nodes = (
(544,457,l),
(713,308,o),
(920,63,q),
(922,60,o),
(923,57,o),
(923,53,q),
(923,51,o),
(923,48,o),
(922,45,q),
(897,-59,l),
(883,-59,l),
(746,202,o),
(523,434,q)
);
},
{
closed = 1;
nodes = (
(533,270,l),
(226,33,o),
(145,-42,q),
(47,-10,l),
(47,5,l),
(216,88,o),
(514,299,q)
);
},
{
closed = 1;
nodes = (
(221,589,o),
(159,575,q),
(81,632,l),
(86,645,l),
(131,642,o),
(168,642,q),
(208,642,o),
(246,645,q),
(415,656,o),
(622,677,q),
(643,680,o),
(682,683,o),
(699,685,q),
(751,691,o),
(805,702,o),
(829,716,q),
(833,718,o),
(838,715,q),
(931,663,l),
(928,648,l),
(688,632,o),
(361,601,q),
(309,597,o),
(282,594,q)
);
},
{
closed = 1;
nodes = (
(555,514,l),
(555,164,o),
(565,1,q),
(566,-30,o),
(561,-64,q),
(555,-96,o),
(538,-135,o),
(525,-155,q),
(518,-165,o),
(510,-157,q),
(429,-78,o),
(345,-28,q),
(358,-3,l),
(475,-50,l),
(478,-51,o),
(482,-51,q),
(492,-51,o),
(494,-33,q),
(499,33,o),
(499,248,q),
(499,335,o),
(496,608,q),
(496,636,l),
(555,642,l)
);
},
{
closed = 1;
nodes = (
(171,481,l),
(286,440,o),
(351,404,q),
(357,399,o),
(359,387,q),
(368,296,l),
(355,290,l),
(320,334,o),
(209,431,o),
(160,459,q)
);
}
);
width = 1000;
}
);
unicode = 101127;
}
{
glyphname = u18B08;
layers = (
{
layerId = master01;
shapes = (
{
closed = 1;
nodes = (
(796,116,o),
(853,61,o),
(916,29,o),
(973,10,q),
(972,-13,l),
(810,-23,l),
(806,-23,l),
(795,-23,o),
(790,-15,q),
(759,42,l),
(722,108,o),
(726,101,q),
(689,165,o),
(599,292,o),
(527,388,q),
(528,446,l),
(642,306,l),
(715,218,o),
(752,171,q)
);
},
{
closed = 1;
nodes = (
(330,425,o),
(368,459,q),
(373,464,o),
(378,459,q),
(434,399,l),
(439,395,o),
(434,390,q),
(413,368,l),
(404,359,o),
(399,348,q),
(343,211,o),
(171,3,o),
(47,-86,q),
(29,-63,l),
(244,119,o),
(329,350,q),
(331,359,l),
(331,371,o),
(314,368,q),
(234,357,o),
(105,330,q),
(42,383,l),
(47,395,l),
(69,392,o),
(94,392,q),
(164,392,o),
(251,410,q)
);
},
{
closed = 1;
nodes = (
(253,592,o),
(213,583,q),
(146,637,l),
(151,649,l),
(187,645,o),
(219,645,q),
(239,645,o),
(273,647,q),
(366,653,o),
(627,675,o),
(675,682,q),
(719,689,o),
(752,705,q),
(756,707,o),
(761,704,q),
(844,659,l),
(841,642,l),
(794,639,o),
(396,605,o),
(306,597,q)
);
},
{
closed = 1;
nodes = (
(535,515,l),
(535,174,o),
(545,11,q),
(546,-20,o),
(541,-54,q),
(535,-86,o),
(518,-125,o),
(505,-145,q),
(498,-155,o),
(490,-147,q),
(419,-73,o),
(327,-6,q),
(340,17,l),
(455,-40,l),
(461,-42,o),
(462,-42,q),
(472,-42,o),
(474,-23,q),
(479,43,o),
(479,254,q),
(479,334,o),
(476,604,q),
(476,636,l),
(535,642,l)
);
},
{
closed = 1;
nodes = (
(614,306,l),
(667,343,o),
(749,432,o),
(770,471,q),
(796,514,o),
(796,552,q),
(811,554,l),
(859,450,l),
(840,433,l),
(809,404,o),
(797,395,q),
(717,329,o),
(630,282,q)
);
}
);
width = 1000;
}
);
unicode = 101128;
}
{
glyphname = u18B09;
layers = (
{
layerId = master01;
shapes = (
{
closed = 1;
nodes = (
(800.667,97.667,o),
(832.5,66.333,o),
(874.5,45,cs),
(895.5,34.333,o),
(925,22.667,o),
(963,10,c),
(962,-13,l),
(800,-23,l),
(796,-23,ls),
(788.667,-23,o),
(783.333,-20.333,o),
(780,-15,cs),
(749,42,ls),
(724.333,86,o),
(713.333,105.667,o),
(716,101,cs),
(666.667,186.333,o),
(613,260,o),
(517,388,c),
(518,446,l),
(632,306,ls),
(680.667,247.333,o),
(717.333,202.333,o),
(742,171,cs)
);
},
{
closed = 1;
nodes = (
(293.667,420,o),
(332.667,436.333,o),
(358,459,cs),
(361.333,462.333,o),
(364.667,462.333,o),
(368,459,cs),
(424,399,l),
(427.333,396.333,o),
(427.333,393.333,o),
(424,390,cs),
(403,368,ls),
(397,362,o),
(392.333,355.333,o),
(389,348,cs),
(314.333,165.333,o),
(202.333,32.667,o),
(37,-86,c),
(19,-63,l),
(162.333,58.333,o),
(262.333,196,o),
(319,350,cs),
(324.333,364.667,o),
(306.333,367.667,o),
(289,365,cs),
(237,357.667,o),
(172.333,346,o),
(95,330,c),
(32,383,l),
(37,395,l),
(52.333,393,o),
(68,392,o),
(84,392,cs),
(130.667,392,o),
(183,398,o),
(241,410,cs)
);
},
{
closed = 1;
nodes = (
(525,515,ls),
(525,287.667,o),
(528.333,119.667,o),
(535,11,cs),
(535.667,-9.667,o),
(534.333,-31.333,o),
(531,-54,cs),
(523,-96.667,o),
(512.333,-118.333,o),
(495,-145,cs),
(490.333,-151.667,o),
(485.333,-152.333,o),
(480,-147,cs),
(432.667,-97.667,o),
(378.333,-50.667,o),
(317,-6,c),
(330,17,l),
(445,-40,l),
(449,-41.333,o),
(451.333,-42,o),
(452,-42,cs),
(458.667,-42,o),
(462.667,-35.667,o),
(464,-23,cs),
(467.333,21,o),
(469,113.333,o),
(469,254,cs),
(469,307.333,o),
(468,424,o),
(466,604,cs),
(466,636,l),
(525,642,l),
(525,642,l)
);
},
{
closed = 1;
nodes = (
(604,314,l),
(658.667,362,o),
(686.667,393.333,o),
(720,448,cs),
(730.667,468,o),
(743,502,o),
(743,522,c),
(758,523,l),
(800,417,l),
(790.667,411.667,o),
(770.667,397,o),
(740,373,cs),
(723,360,ls),
(691.667,335.333,o),
(657,312.667,o),
(619,292,c)
);
},
{
closed = 1;
nodes = (
(830,649,l),
(887.333,574.333,o),
(920.667,527.333,o),
(950,474,cs),
(951.333,471.333,o),
(951,467.333,o),
(949,462,cs),
(915,372,l),
(893,373,l),
(874.333,477,o),
(859.333,523.667,o),
(806,637,c)
);
},
{
closed = 1;
nodes = (
(292.667,595.667,o),
(261.667,591,o),
(235,585,c),
(168,639,l),
(173,651,l),
(197,648.333,o),
(219.667,647,o),
(241,647,cs),
(254.333,647,o),
(272.333,647.667,o),
(295,649,cs),
(378.333,653.667,o),
(480,664.333,o),
(600,681,cs),
(629.333,685.667,o),
(655,693.333,o),
(677,704,cs),
(679.667,705.333,o),
(682.667,705,o),
(686,703,cs),
(769,658,l),
(766,641,l),
(707.333,637,o),
(428,609.667,o),
(328,599,cs)
);
}
);
width = 1000;
}
);
unicode = 101129;
}
{
glyphname = u18B0B;
layers = (
{
layerId = master01;
shapes = (
{
closed = 1;
nodes = (
(214.333,195.667,o),
(172.333,189.333,o),
(117,180,c),
(36,237,l),
(41,250,l),
(81,246.667,o),
(113.333,245,o),
(138,245,cs),
(160.667,245,o),
(183,246,o),
(205,248,cs),
(292,255,ls),
(517.333,273,o),
(660.333,285,o),
(721,291,cs),
(787.667,296.333,o),
(823,304.333,o),
(859,323,cs),
(861,324.333,o),
(863.667,324,o),
(867,322,cs),
(963,269,l),
(960,255,l),
(752.667,241.667,o),
(513.667,223,o),
(243,199,cs)
);
},
{
closed = 1;
nodes = (
(538,602,l),
(531.333,573.333,o),
(528,539,o),
(528,499,cs),
(528,357.667,o),
(527.667,249.667,o),
(527,175,cs),
(526,-149,l),
(513,-155,l),
(448,-87,ls),
(446.667,-85.667,o),
(446.667,-82.667,o),
(448,-78,cs),
(456,-60,o),
(460.667,-38.333,o),
(462,-13,cs),
(465.333,65.667,o),
(467,181.667,o),
(467,335,cs),
(467,421.667,o),
(466,495.333,o),
(464,556,cs),
(462.667,591.333,o),
(456,621.667,o),
(444,647,c),
(473,659,l),
(473,659,l)
);
},
{
closed = 1;
nodes = (
(269.667,620.667,o),
(238.667,616,o),
(212,610,c),
(145,664,l),
(150,676,l),
(174,673.333,o),
(196.667,672,o),
(218,672,cs),
(231.333,672,o),
(249.333,672.667,o),
(272,674,cs),
(389.333,682,o),
(606,700.667,o),
(670,710,cs),
(699.333,714.667,o),
(725,722.333,o),
(747,733,cs),
(749.667,734.333,o),
(752.667,734,o),
(756,732,cs),
(839,687,l),
(836,670,l),
(769.333,666,o),
(347.667,629.333,o),
(305,624,cs)
);
},
{
closed = 1;
nodes = (
(745,601,l),
(795,505,l),
(790.333,501.667,o),
(785,496.333,o),
(779,489,cs),
(773,481.667,o),
(767.667,475.667,o),
(763,471,cs),
(711,414.333,o),
(651,364.333,o),
(583,321,c),
(566,340,l),
(622.667,390.667,o),
(667,444.333,o),
(699,501,cs),
(715,530.333,o),
(725.667,566,o),
(723,594,c)
);
},
{
closed = 1;
nodes = (
(202,555,l),
(258,512.333,o),
(323.667,450,o),
(369,398,cs),
(371,396,o),
(371,392.667,o),
(369,388,cs),
(340,308,l),
(327,309,l),
(300.333,378.333,o),
(239.333,481.333,o),
(186,540,c)
);
}
);
width = 1000;
}
);
unicode = 101131;
}
{
glyphname = u18B0C;
layers = (
{
layerId = master01;
shapes = (
{
closed = 1;
nodes = (
(305.667,611.667,o),
(265,605.333,o),
(223,596,c),
(145,653,l),
(150,667,l),
(178.667,664.333,o),
(207.333,663,o),
(236,663,cs),
(261.333,663,o),
(286,664,o),
(310,666,cs),
(332,668,ls),
(407.333,674,o),
(500,682.333,o),
(610,693,cs),
(674,699.667,o),
(707,706,o),
(739,726,cs),
(741.667,727.333,o),
(744.667,727,o),
(748,725,cs),
(841,672,l),
(838,657,l),
(640.667,643.667,o),
(586.333,639,o),
(345,615,cs)
);
},
{
closed = 1;
nodes = (
(374.667,159.667,o),
(343.667,155,o),
(317,149,c),
(250,203,l),
(255,215,l),
(279,212.333,o),
(301.667,211,o),
(323,211,cs),
(336.333,211,o),
(354.333,211.667,o),
(377,213,cs),
(444.333,216.333,o),
(514.667,223,o),
(588,233,cs),
(617.333,237.667,o),
(643,245.333,o),
(665,256,cs),
(667.667,257.333,o),
(670.667,257,o),
(674,255,cs),
(757,210,l),
(754,193,l),
(692,189,o),
(577.333,179,o),
(410,163,cs)
);
},
{
closed = 1;
nodes = (
(540,594,l),
(534,562.667,o),
(531,528.333,o),
(531,491,cs),
(531,-65,l),
(471,-72,l),
(471,244,ls),
(471,419.333,o),
(470.667,520.667,o),
(470,548,cs),
(468.667,578.667,o),
(458.667,618.667,o),
(440,648,c),
(467,655,l),
(467,655,l)
);
},
{
closed = 1;
nodes = (
(655,542,l),
(755.667,456,o),
(831,382.667,o),
(881,322,cs),
(883,320,o),
(883,316.333,o),
(881,311,cs),
(855,211,l),
(838,211,l),
(792.667,313.667,o),
(724.667,417.333,o),
(634,522,c)
);
},
{
closed = 1;
nodes = (
(294.667,335.333,o),
(213.667,230.667,o),
(163,184,c),
(145,186,l),
(118,277,ls),
(117.333,281,o),
(118.333,283.333,o),
(121,284,cs),
(138.333,289.333,o),
(153,297,o),
(165,307,cs),
(245,371,o),
(299,444,o),
(303,520,c),
(325,520,l),
(327,496,o),
(328,475.333,o),
(328,458,cs),
(328,428,o),
(324,404,o),
(316,386,cs)
);
},
{
closed = 1;
nodes = (
(213.333,-107.333,o),
(171,-113.333,o),
(117,-122,c),
(37,-63,l),
(42,-50,l),
(80,-54.667,o),
(116,-57,o),
(150,-57,cs),
(162.667,-57,o),
(181.667,-56.333,o),
(207,-55,cs),
(401.667,-43,o),
(551,-32,o),
(719,-20,cs),
(791,-14.667,o),
(824.333,-8.667,o),
(859,10,cs),
(861,11.333,o),
(863.667,11,o),
(867,9,cs),
(963,-45,l),
(960,-59,l),
(683.333,-73,o),
(444.667,-88,o),
(244,-104,cs)
);
}
);
width = 1000;
}
);
unicode = 101132;
}
{
glyphname = u18B0D;
layers = (
{
layerId = master01;
shapes = (
{
closed = 1;
nodes = (
(286,610,o),
(223,596,q),
(145,653,l),
(150,667,l),
(193,663,o),
(236,663,q),
(274,663,o),
(310,666,q),
(438,677,o),
(581,691,q),
(629,696,o),
(686,709,o),
(710,724,q),
(714,726,o),
(719,723,q),
(812,670,l),
(809,655,l),
(677,646,o),
(516,632,o),
(413,622,q),
(335,614,o),
(345,615,q)
);
},
{
closed = 1;
nodes = (
(357,158,o),
(317,149,q),
(250,203,l),
(255,215,l),
(291,211,o),
(323,211,q),
(343,211,o),
(377,213,q),
(478,218,o),
(588,233,q),
(632,240,o),
(665,256,q),
(669,258,o),
(674,255,q),
(757,210,l),
(754,193,l),
(661,187,o),
(410,163,q)
);
},
{
closed = 1;
nodes = (
(530,594,l),
(521,547,o),
(521,491,q),
(521,-65,l),
(461,-72,l),
(461,244,l),
(461,507,o),
(460,548,q),
(459,571,o),
(444,626,o),
(430,648,q),
(457,655,l)
);
},
{
closed = 1;
nodes = (
(198,-109,o),
(117,-122,q),
(37,-63,l),
(42,-50,l),
(99,-57,o),
(150,-57,q),
(169,-57,o),
(207,-55,q),
(353,-46,o),
(593,-29,o),
(719,-20,q),
(773,-16,o),
(833,-4,o),
(859,10,q),
(862,12,o),
(867,9,q),
(963,-45,l),
(960,-59,l),
(545,-80,o),
(244,-104,q)
);
},
{
closed = 1;
nodes = (
(801,615,l),
(888,535,o),
(949,458,q),
(952,454,o),
(950,447,q),
(924,357,l),
(904,359,l),
(875,433,o),
(824,534,o),
(780,597,q)
);
},
{
closed = 1;
nodes = (
(301,349,o),
(201,220,o),
(163,185,q),
(145,187,l),
(118,278,l),
(117,284,o),
(121,285,q),
(152,295,o),
(166,305,q),
(223,347,o),
(299,463,o),
(302,521,q),
(324,521,l),
(327,481,o),
(327,451,q),
(327,410,o),
(317,387,q)
);
},
{
closed = 1;
nodes = (
(686,514,l),
(752,445,o),
(839,342,o),
(872,293,q),
(875,289,o),
(872,281,q),
(836,184,l),
(819,186,l),
(793,268,o),
(723,412,o),
(664,496,q)
);
}
);
width = 1000;
}
);
unicode = 101133;
}
{
glyphname = u18B0E;
layers = (
{
layerId = master01;
shapes = (
{
closed = 1;
nodes = (
(357,-104,l),
(300,-109,o),
(233,-122,q),
(155,-64,l),
(160,-50,l),
(216,-56,o),
(258,-56,q),
(290,-56,o),
(322,-53,q),
(412,-46,o),
(519,-36,q),
(593,-29,l),
(644,-24,o),
(701,-11,o),
(725,3,q),
(729,5,o),
(734,2,q),
(827,-52,l),
(824,-67,l),
(623,-80,o),
(493,-92,q)
);
},
{
closed = 1;
nodes = (
(461,-68,l),
(461,42,o),
(460,87,q),
(459,116,o),
(437,183,o),
(415,207,q),
(426,219,l),
(530,133,l),
(521,86,o),
(521,30,q),
(521,-62,l)
);
},
{
closed = 1;
nodes = (
(585,570,l),
(671,533,o),
(757,493,o),
(797,467,q),
(802,464,o),
(802,456,q),
(807,352,l),
(790,348,l),
(733,413,o),
(630,503,o),
(548,553,q),
(562,579,l)
);
},
{
closed = 1;
nodes = (
(23,15,l),
(133,84,o),
(307,242,o),
(345,311,q),
(358,337,o),
(358,368,q),
(358,382,o),
(355,392,q),
(371,398,l),
(431,282,l),
(412,267,o),
(385,240,q),
(358,214,l),
(288,149,o),
(139,40,o),
(42,-15,q)
);
},
{
closed = 1;
nodes = (
(109,308,l),
(178,354,o),
(290,456,o),
(318,498,q),
(347,541,o),
(346,585,q),
(361,587,l),
(404,478,l),
(370,450,l),
(369,449,o),
(351,434,q),
(240,345,o),
(126,282,q)
);
},
{
closed = 1;
nodes = (
(240,606,o),
(200,597,q),
(122,654,l),
(127,668,l),
(170,664,o),
(213,664,q),
(251,664,o),
(287,667,q),
(452,681,o),
(594,697,q),
(643,703,o),
(700,717,o),
(723,731,q),
(727,733,o),
(732,730,q),
(825,677,l),
(822,662,l),
(630,652,o),
(322,616,q)
);
},
{
closed = 1;
nodes = (
(721,248,o),
(774,202,q),
(830,153,o),
(925,108,o),
(981,101,q),
(981,75,l),
(827,61,l),
(823,61,l),
(813,61,o),
(809,67,q),
(721,179,o),
(615,297,q),
(594,320,o),
(550,347,o),
(515,356,q),
(513,372,l),
(605,384,l),
(626,353,o),
(667,307,q)
);
}
);
width = 1000;
}
);
unicode = 101134;
}
{
glyphname = u18B0F;
layers = (
{
layerId = master01;
shapes = (
{
closed = 1;
nodes = (
(520,286,l),
(556,203,l),
(532,182,o),
(499,145,q),
(416,59,o),
(189,-105,o),
(53,-164,q),
(36,-134,l),
(141,-79,o),
(339,71,o),
(475,225,o),
(489,284,q)
);
},
{
closed = 1;
nodes = (
(961,-130,l),
(800,-146,l),
(795,-146,l),
(786,-146,o),
(782,-141,q),
(659,-4,o),
(475,152,q),
(504,187,l),
(621,89,o),
(717,13,q),
(769,-29,o),
(844,-72,o),
(910,-94,o),
(962,-104,q)
);
},
{
closed = 1;
nodes = (
(244,571,l),
(359,483,o),
(411,424,q),
(415,420,o),
(415,415,q),
(415,410,o),
(412,402,q),
(387,329,l),
(372,331,l),
(347,385,o),
(266,512,o),
(226,554,q)
);
},
{
closed = 1;
nodes = (
(166,224,o),
(119,215,q),
(40,272,l),
(45,285,l),
(107,280,o),
(143,280,q),
(165,280,o),
(207,282,q),
(290,288,l),
(509,303,o),
(731,322,q),
(784,328,o),
(838,338,o),
(862,352,q),
(866,354,o),
(871,351,q),
(965,298,l),
(962,283,l),
(609,262,o),
(244,232,q)
);
},
{
closed = 1;
nodes = (
(251,611,o),
(211,602,q),
(144,656,l),
(149,668,l),
(185,664,o),
(217,664,q),
(237,664,o),
(271,666,q),
(353,671,o),
(602,692,o),
(649,698,q),
(693,705,o),
(726,721,q),
(730,723,o),
(735,720,q),
(818,675,l),
(815,658,l),
(768,655,o),
(390,624,o),
(304,616,q)
);
},
{
closed = 1;
nodes = (
(477,295,l),
(544,354,o),
(643,479,o),
(661,526,q),
(679,574,o),
(675,610,q),
(690,614,l),
(752,516,l),
(747,510,o),
(737,498,o),
(732,493,q),
(698,454,l),
(647,398,o),
(567,326,o),
(497,275,q)
);
}
);
width = 1000;
}
);
unicode = 101135;
}
{
glyphname = u18B11;
layers = (
{
layerId = master01;
shapes = (
{
closed = 1;
nodes = (
(59,-139,l),
(236,-65,o),
(411,129,o),
(463,354,o),
(463,520,q),
(463,552,o),
(446,626,o),
(430,650,q),
(442,659,l),
(540,594,l),
(536,562,o),
(534,502,q),
(528,291,o),
(430,39,o),
(239,-109,o),
(72,-169,q)
);
},
{
closed = 1;
nodes = (
(261,178,l),
(194,171,o),
(136,160,q),
(57,217,l),
(62,230,l),
(122,225,o),
(157,225,q),
(191,225,o),
(224,228,q),
(484,249,o),
(710,271,q),
(758,276,o),
(817,289,o),
(841,303,q),
(845,305,o),
(850,302,q),
(944,250,l),
(941,235,l),
(716,219,o),
(408,191,q)
);
},
{
closed = 1;
nodes = (
(258,388,o),
(218,379,q),
(151,433,l),
(156,445,l),
(192,441,o),
(224,441,q),
(244,441,o),
(278,443,q),
(360,448,o),
(600,469,o),
(651,476,q),
(695,483,o),
(728,499,q),
(732,501,o),
(737,498,q),
(820,453,l),
(817,436,l),
(771,433,o),
(397,401,o),
(311,393,q)
);
},
{
closed = 1;
nodes = (
(250,609,o),
(210,600,q),
(143,654,l),
(148,666,l),
(184,662,o),
(216,662,q),
(236,662,o),
(270,664,q),
(352,669,o),
(601,690,o),
(648,696,q),
(692,703,o),
(725,719,q),
(729,721,o),
(734,718,q),
(817,673,l),
(814,656,l),
(767,653,o),
(389,622,o),
(303,614,q)
);
},
{
closed = 1;
nodes = (
(538,118,l),
(656,70,o),
(817,-6,o),
(901,-56,q),
(906,-58,o),
(906,-64,q),
(910,-164,l),
(894,-169,l),
(825,-100,o),
(634,36,o),
(527,93,q)
);
}
);
width = 1000;
}
);
unicode = 101137;
}
{
glyphname = u18B12;
layers = (
{
layerId = master01;
shapes = (
{
closed = 1;
nodes = (
(485,236,l),
(578,143,o),
(696,29,o),
(748,-14,q),
(793,-51,o),
(887,-88,o),
(961,-100,q),
(961,-126,l),
(771,-139,l),
(768,-139,l),
(756,-139,o),
(751,-131,q),
(698,-62,o),
(550,112,o),
(474,193,q)
);
},
{
closed = 1;
nodes = (
(56,-138,l),
(232,-68,o),
(410,126,o),
(465,355,o),
(465,520,q),
(465,552,o),
(449,626,o),
(433,650,q),
(445,659,l),
(547,597,l),
(539,558,o),
(537,499,q),
(530,296,o),
(429,42,o),
(233,-112,o),
(70,-167,q)
);
},
{
closed = 1;
nodes = (
(232,458,l),
(299,461,o),
(633,488,o),
(683,497,q),
(753,511,o),
(787,545,q),
(792,550,o),
(797,545,q),
(855,482,l),
(860,478,o),
(855,473,q),
(830,450,l),
(824,445,o),
(820,438,o),
(820,433,q),
(817,338,o),
(807,248,o),
(792,188,q),
(787,166,o),
(769,122,o),
(761,111,q),
(755,104,o),
(749,110,q),
(715,146,o),
(659,193,o),
(608,225,q),
(618,245,l),
(715,207,l),
(721,204,o),
(724,204,q),
(728,204,o),
(731,216,q),
(745,267,o),
(755,356,o),
(756,440,q),
(756,452,o),
(746,451,q),
(663,442,o),
(427,422,q),
(259,408,o),
(238,405,q)
);
},
{
closed = 1;
nodes = (
(280,442,l),
(271,403,o),
(271,339,q),
(271,91,l),
(258,85,l),
(196,153,l),
(193,156,o),
(196,162,q),
(211,194,o),
(211,227,q),
(211,277,l),
(211,356,o),
(210,396,q),
(209,426,o),
(190,492,o),
(169,516,q),
(179,528,l)
);
},
{
closed = 1;
nodes = (
(207,608,o),
(158,599,q),
(80,657,l),
(85,669,l),
(132,664,o),
(186,664,q),
(207,664,o),
(247,666,q),
(451,682,o),
(623,697,q),
(695,703,l),
(743,708,o),
(802,721,o),
(827,734,q),
(831,736,o),
(836,733,q),
(929,681,l),
(926,666,l),
(703,651,o),
(448,632,o),
(284,616,q)
);
}
);
width = 1000;
}
);
unicode = 101138;
}
{
glyphname = u18B13;
layers = (
{
layerId = master01;
shapes = (
{
closed = 1;
nodes = (
(253,401,l),
(344,410,o),
(377,413,q),
(422,418,o),
(683,444,o),
(698,447,q),
(741,456,o),
(763,479,q),
(769,483,o),
(774,479,q),
(826,436,l),
(831,433,o),
(826,427,q),
(812,408,l),
(807,401,o),
(805,393,q),
(801,371,o),
(785,241,o),
(781,200,q),
(719,191,l),
(726,246,o),
(738,362,o),
(740,390,q),
(740,394,l),
(740,398,o),
(733,398,q),
(652,391,o),
(294,357,o),
(252,352,q)
);
},
{
closed = 1;
nodes = (
(287,393,l),
(278,354,o),
(278,290,q),
(277,70,l),
(264,64,l),
(205,132,l),
(202,135,o),
(205,141,q),
(220,173,o),
(220,206,q),
(221,234,o),
(221,281,q),
(221,325,o),
(220,347,q),
(219,377,o),
(200,443,o),
(179,467,q),
(189,479,l)
);
},
{
closed = 1;
nodes = (
(233,-107,l),
(168,-112,o),
(111,-124,q),
(36,-65,l),
(41,-52,l),
(101,-58,o),
(147,-58,q),
(165,-58,o),
(199,-56,q),
(423,-46,o),
(734,-19,q),
(784,-16,o),
(840,-5,o),
(863,9,q),
(867,11,o),
(871,8,o),
(872,8,q),
(963,-46,l),
(960,-61,l),
(809,-68,o),
(453,-91,o),
(279,-104,q)
);
},
{
closed = 1;
nodes = (
(275,607,o),
(214,593,q),
(136,650,l),
(141,664,l),
(184,660,o),
(227,660,q),
(265,660,o),
(301,663,q),
(408,672,o),
(538,685,q),
(578,690,o),
(622,694,q),
(670,699,o),
(727,712,o),
(751,727,q),
(755,729,o),
(760,726,q),
(853,673,l),
(850,658,l),
(682,647,o),
(475,628,o),
(336,613,q)
);
},
{
closed = 1;
nodes = (
(236,179,l),
(417,194,o),
(610,212,q),
(658,217,o),
(715,230,o),
(739,244,q),
(743,246,o),
(748,243,q),
(841,194,l),
(838,179,l),
(651,167,o),
(412,149,o),
(240,132,q)
);
},
{
closed = 1;
nodes = (
(541,594,l),
(532,547,o),
(532,491,q),
(532,-65,l),
(472,-72,l),
(472,244,l),
(472,507,o),
(471,548,q),
(470,571,o),
(455,626,o),
(441,648,q),
(468,655,l)
);
}
);
width = 1000;
}
);
unicode = 101139;
}
{
glyphname = u18B15;
layers = (
{
layerId = master01;
shapes = (
{
closed = 1;
nodes = (
(198,588,o),
(134,577,q),
(55,635,l),
(60,648,l),
(110,642,o),
(171,642,q),
(205,642,o),
(222,643,q),
(416,657,l),
(628,672,o),
(705,679,q),
(759,683,o),
(817,694,o),
(842,707,q),
(845,709,o),
(850,706,q),
(944,652,l),
(941,638,l),
(655,623,o),
(259,594,q)
);
},
{
closed = 1;
nodes = (
(541,588,l),
(531,545,o),
(531,485,q),
(530,168,l),
(528,-48,o),
(528,-149,q),
(515,-155,l),
(450,-87,l),
(448,-85,o),
(450,-78,q),
(462,-51,o),
(464,-13,q),
(469,114,o),
(469,351,q),
(469,487,o),
(467,542,q),
(465,595,o),
(447,633,q),
(476,645,l)
);
},
{
closed = 1;
nodes = (
(216,289,l),
(283,245,o),
(347,136,o),
(347,78,q),
(347,22,o),
(320,-31,q),
(308,-55,o),
(275,-94,o),
(257,-102,q),
(252,-104,l),
(248,-104,o),
(245,-99,q),
(225,-67,o),
(145,26,o),
(99,69,q),
(113,87,l),
(243,-2,l),
(250,-7,o),
(253,-7,q),
(257,-7,o),
(262,4,q),
(286,51,o),
(286,98,q),
(286,143,o),
(242,228,o),
(199,264,q)
);
},
{
closed = 1;
nodes = (
(100,437,l),
(107,450,l),
(131,447,o),
(159,447,q),
(214,447,o),
(278,460,q),
(313,468,o),
(337,480,o),
(362,504,q),
(367,509,o),
(370,504,q),
(419,437,l),
(423,432,o),
(418,430,q),
(391,419,o),
(356,391,q),
(338,378,o),
(295,329,o),
(262,287,q),
(225,242,l),
(199,264,l),
(303,410,l),
(309,418,o),
(302,417,q),
(231,405,o),
(165,385,q)
);
},
{
closed = 1;
nodes = (
(693,297,l),
(764,254,o),
(833,149,o),
(833,92,q),
(833,34,o),
(797,-24,q),
(761,-82,o),
(734,-95,q),
(729,-97,l),
(725,-97,o),
(722,-92,q),
(700,-57,o),
(628,30,o),
(585,71,q),
(599,89,l),
(720,5,l),
(725,2,o),
(727,2,q),
(733,2,o),
(739,11,q),
(772,61,o),
(772,112,q),
(772,201,o),
(676,272,q)
);
},
{
closed = 1;
nodes = (
(580,447,l),
(587,460,l),
(614,457,o),
(645,457,q),
(695,457,o),
(744,465,q),
(779,474,o),
(802,487,o),
(827,512,q),
(830,517,o),
(835,512,q),
(887,447,l),
(891,442,o),
(886,440,q),
(862,430,o),
(827,399,q),
(804,379,o),
(731,290,o),
(726,283,q),
(715,271,o),
(702,254,q),
(676,272,l),
(773,416,l),
(779,424,o),
(772,423,q),
(730,418,o),
(675,405,o),
(645,395,q)
);
}
);
width = 1000;
}
);
unicode = 101141;
}
{
glyphname = u18B18;
layers = (
{
layerId = master01;
shapes = (
{
closed = 1;
nodes = (
(282,422,l),
(680,450,o),
(711,455,q),
(782,469,o),
(816,503,q),
(821,508,o),
(826,503,q),
(886,440,l),
(891,436,o),
(886,431,q),
(861,408,l),
(855,403,o),
(851,397,o),
(851,391,q),
(851,184,o),
(842,0,o),
(827,-65,q),
(816,-113,o),
(792,-136,q),
(789,-139,o),
(786,-139,q),
(781,-139,o),
(777,-134,q),
(739,-88,o),
(629,-10,q),
(640,10,l),
(748,-38,l),
(754,-41,o),
(757,-41,q),
(762,-41,o),
(764,-30,q),
(785,46,o),
(785,254,q),
(785,348,o),
(783,399,q),
(783,406,o),
(778,411,o),
(773,410,q),
(691,403,o),
(516,390,q),
(265,371,o),
(198,364,q),
(194,416,l)
);
},
{
closed = 1;
nodes = (
(229,413,l),
(221,371,o),
(221,310,q),
(221,-128,l),
(207,-134,l),
(144,-66,l),
(141,-63,o),
(144,-57,q),
(159,-26,o),
(159,8,q),
(161,114,o),
(161,185,q),
(161,256,o),
(159,360,q),
(158,390,o),
(137,462,o),
(116,486,q),
(128,497,l)
);
},
{
closed = 1;
nodes = (
(214,607,o),
(156,596,q),
(77,651,l),
(82,664,l),
(123,660,o),
(165,660,q),
(194,660,o),
(244,662,q),
(440,677,l),
(619,690,o),
(691,697,q),
(739,701,o),
(797,713,o),
(821,726,q),
(825,728,o),
(830,725,q),
(924,675,l),
(921,661,l),
(652,645,o),
(281,614,q)
);
},
{
closed = 1;
nodes = (
(545,593,l),
(535,550,o),
(535,490,q),
(534,175,l),
(532,-41,o),
(532,-141,q),
(519,-147,l),
(456,-79,l),
(454,-77,o),
(456,-70,q),
(468,-43,o),
(470,-5,q),
(475,113,o),
(475,331,q),
(475,456,o),
(472,547,q),
(470,604,o),
(444,647,q),
(462,661,l)
);
},
{
closed = 1;
nodes = (
(434,166,o),
(432,166,q),
(422,165,o),
(350,157,o),
(331,152,q),
(261,204,l),
(266,217,l),
(303,213,o),
(338,213,q),
(361,213,o),
(393,215,q),
(402,216,o),
(431,218,o),
(451,219,q),
(560,225,o),
(587,230,q),
(620,235,o),
(650,249,o),
(654,251,q),
(658,253,o),
(663,251,q),
(749,209,l),
(746,191,l),
(679,187,o),
(523,175,o),
(469,170,q)
);
}
);
width = 1000;
}
);
unicode = 101144;
}
{
glyphname = u18B19;
layers = (
{
layerId = master01;
shapes = (
{
closed = 1;
nodes = (
(285,457,l),
(683,485,o),
(714,490,q),
(785,504,o),
(819,538,q),
(824,543,o),
(829,538,q),
(889,475,l),
(894,471,o),
(889,466,q),
(864,443,l),
(858,438,o),
(854,432,o),
(854,426,q),
(854,198,o),
(845,4,o),
(830,-65,q),
(819,-113,o),
(795,-136,q),
(792,-139,o),
(789,-139,q),
(784,-139,o),
(780,-134,q),
(742,-88,o),
(632,-10,q),
(643,10,l),
(751,-38,l),
(757,-41,o),
(760,-41,q),
(765,-41,o),
(767,-30,q),
(789,47,o),
(789,262,q),
(789,343,o),
(786,434,q),
(786,441,o),
(781,446,o),
(776,445,q),
(694,438,o),
(519,425,q),
(268,406,o),
(201,399,q),
(197,451,l)
);
},
{
closed = 1;
nodes = (
(226,448,l),
(218,406,o),
(218,345,q),
(218,-133,l),
(204,-139,l),
(144,-71,l),
(141,-68,o),
(144,-62,q),
(159,-31,o),
(159,3,q),
(161,121,o),
(161,199,q),
(161,279,o),
(159,395,q),
(158,425,o),
(137,497,o),
(116,521,q),
(128,532,l)
);
},
{
closed = 1;
nodes = (
(273,609,l),
(206,602,o),
(148,591,q),
(69,649,l),
(74,662,l),
(121,657,o),
(175,657,q),
(216,657,o),
(236,658,q),
(497,679,o),
(692,697,q),
(740,701,o),
(798,713,o),
(822,726,q),
(826,728,o),
(831,725,q),
(925,672,l),
(922,658,l),
(710,645,o),
(320,613,q)
);
},
{
closed = 1;
nodes = (
(544,593,l),
(534,550,o),
(534,490,q),
(533,175,l),
(531,-41,o),
(531,-141,q),
(518,-147,l),
(457,-79,l),
(455,-77,o),
(457,-70,q),
(469,-43,o),
(471,-5,q),
(476,113,o),
(476,331,q),
(476,456,o),
(473,547,q),
(471,604,o),
(445,647,q),
(463,661,l)
);
},
{
closed = 1;
nodes = (
(392,243,o),
(341,232,q),
(271,284,l),
(276,297,l),
(328,292,o),
(356,292,q),
(375,292,o),
(403,294,q),
(464,298,l),
(482,299,o),
(550,304,o),
(565,306,q),
(598,311,o),
(628,325,o),
(632,327,q),
(636,329,o),
(641,327,q),
(727,284,l),
(724,266,l),
(670,264,o),
(492,252,o),
(437,247,q)
);
},
{
closed = 1;
nodes = (
(389,80,o),
(338,69,q),
(267,121,l),
(272,134,l),
(324,129,o),
(352,129,q),
(371,129,o),
(399,131,q),
(454,135,l),
(549,141,o),
(581,145,q),
(614,150,o),
(646,164,o),
(649,166,q),
(653,168,o),
(658,166,q),
(743,123,l),
(740,105,l),
(687,103,o),
(492,89,o),
(434,84,q)
);
}
);
width = 1000;
}
);
unicode = 101145;
}
{
glyphname = u18B1A;
layers = (
{
layerId = master01;
shapes = (
{
closed = 1;
nodes = (
(500,307,l),
(465,243,o),
(334,106,o),
(255,50,q),
(240,70,l),
(316,137,o),
(451,317,o),
(488,427,q)
);
},
{
closed = 1;
nodes = (
(287,422,l),
(685,450,o),
(716,455,q),
(787,469,o),
(821,503,q),
(826,508,o),
(831,503,q),
(890,440,l),
(895,436,o),
(890,431,q),
(865,408,l),
(859,403,o),
(855,397,o),
(855,391,q),
(855,199,o),
(841,8,o),
(825,-65,q),
(814,-113,o),
(790,-136,q),
(787,-139,o),
(784,-139,q),
(779,-139,o),
(775,-134,q),
(736,-87,o),
(628,-10,q),
(639,10,l),
(747,-38,l),
(753,-41,o),
(756,-41,q),
(761,-41,o),
(763,-30,q),
(775,16,o),
(790,186,o),
(790,294,q),
(790,327,o),
(788,399,q),
(788,406,o),
(783,411,o),
(778,410,q),
(696,403,o),
(521,390,q),
(270,371,o),
(203,364,q),
(199,416,l)
);
},
{
closed = 1;
nodes = (
(226,413,l),
(218,371,o),
(218,310,q),
(218,-133,l),
(204,-139,l),
(143,-71,l),
(140,-68,o),
(143,-62,q),
(158,-31,o),
(158,3,q),
(160,111,o),
(160,182,q),
(160,256,o),
(158,360,q),
(157,390,o),
(136,462,o),
(116,486,q),
(128,497,l)
);
},
{
closed = 1;
nodes = (
(214,605,o),
(156,594,q),
(77,652,l),
(82,665,l),
(130,660,o),
(183,660,q),
(224,660,o),
(244,661,q),
(378,672,l),
(527,683,o),
(690,698,q),
(738,702,o),
(796,714,o),
(820,727,q),
(824,729,o),
(829,726,q),
(923,673,l),
(920,659,l),
(654,643,o),
(281,612,q)
);
},
{
closed = 1;
nodes = (
(539,593,l),
(529,550,o),
(529,490,q),
(528,175,l),
(526,-41,o),
(526,-141,q),
(513,-147,l),
(450,-79,l),
(448,-77,o),
(450,-70,q),
(462,-43,o),
(464,-5,q),
(469,113,o),
(469,331,q),
(469,456,o),
(466,547,q),
(464,604,o),
(438,647,q),
(456,661,l)
);
},
{
closed = 1;
nodes = (
(504,309,l),
(563,284,o),
(687,220,o),
(728,194,q),
(734,188,o),
(734,184,q),
(739,95,l),
(723,86,l),
(672,147,o),
(570,237,o),
(493,287,q)
);
}
);
width = 1000;
}
);
unicode = 101146;
}
{
glyphname = u18B1B;
layers = (
{
layerId = master01;
shapes = (
{
closed = 1;
nodes = (
(453,663,l),
(540,599,l),
(538,584,o),
(535,543,o),
(534,532,q),
(533,511,l),
(529,412,o),
(485,246,o),
(370,88,o),
(267,21,q),
(249,44,l),
(373,140,o),
(464,359,o),
(464,495,q),
(464,538,o),
(461,581,q),
(459,603,o),
(443,646,o),
(431,657,q)
);
},
{
closed = 1;
nodes = (
(285,422,l),
(683,450,o),
(714,455,q),
(785,469,o),
(819,503,q),
(824,508,o),
(829,503,q),
(889,440,l),
(894,436,o),
(889,431,q),
(864,408,l),
(858,403,o),
(854,397,o),
(854,391,q),
(854,184,o),
(845,0,o),
(830,-65,q),
(819,-113,o),
(795,-136,q),
(792,-139,o),
(789,-139,q),
(784,-139,o),
(780,-134,q),
(742,-88,o),
(632,-10,q),
(643,10,l),
(751,-38,l),
(757,-41,o),
(760,-41,q),
(765,-41,o),
(767,-30,q),
(788,46,o),
(788,254,q),
(788,348,o),
(786,399,q),
(786,406,o),
(781,411,o),
(776,410,q),
(694,403,o),
(519,390,q),
(268,371,o),
(201,364,q),
(197,416,l)
);
},
{
closed = 1;
nodes = (
(228,413,l),
(220,371,o),
(220,310,q),
(220,-133,l),
(206,-139,l),
(143,-71,l),
(140,-68,o),
(143,-62,q),
(158,-31,o),
(158,3,q),
(160,111,o),
(160,182,q),
(160,256,o),
(158,360,q),
(157,390,o),
(136,462,o),
(115,486,q),
(127,497,l)
);
},
{
closed = 1;
nodes = (
(214,604,o),
(156,593,q),
(77,651,l),
(82,664,l),
(130,659,o),
(183,659,q),
(224,659,o),
(244,660,q),
(517,682,o),
(690,697,q),
(738,701,o),
(796,713,o),
(820,726,q),
(824,728,o),
(829,725,q),
(923,672,l),
(920,658,l),
(759,649,o),
(450,625,o),
(281,611,q)
);
},
{
closed = 1;
nodes = (
(477,304,l),
(536,279,o),
(660,215,o),
(701,189,q),
(707,183,o),
(707,179,q),
(712,90,l),
(696,81,l),
(645,142,o),
(543,232,o),
(466,282,q)
);
}
);
width = 1000;
}
);
unicode = 101147;
}
{
glyphname = u18B1C;
layers = (
{
layerId = master01;
shapes = (
{
closed = 1;
nodes = (
(501,669,l),
(544,573,l),
(540.667,569.667,o),
(529.667,558,o),
(511,538,cs),
(443,460.667,o),
(399.667,419,o),
(325,367,c),
(306,385,l),
(368,446.333,o),
(415.667,508.667,o),
(449,572,cs),
(469.667,608,o),
(480,638.333,o),
(480,663,c)
);
},
{
closed = 1;
nodes = (
(200,384,l),
(393.333,398.667,o),
(662,422.667,o),
(694,428,cs),
(741.333,437.333,o),
(776.333,453.333,o),
(799,476,cs),
(802.333,479.333,o),
(805.667,479.333,o),
(809,476,cs),
(869,413,l),
(872.333,410.333,o),
(872.333,407.333,o),
(869,404,cs),
(844,381,ls),
(836,374.333,o),
(834,372,o),
(834,364,cs),
(834,230,o),
(832.5,135.333,o),
(829.5,80,cs),
(826.5,24.667,o),
(819.667,-26,o),
(809,-72,cs),
(801.667,-104,o),
(790,-127.667,o),
(774,-143,cs),
(772,-145,o),
(770,-146,o),
(768,-146,cs),
(765.333,-146,o),
(762.333,-144.333,o),
(759,-141,cs),
(708.333,-90.333,o),
(639.667,-38.667,o),
(553,14,c),
(564,34,l),
(731,-45,ls),
(735,-47,o),
(738,-48,o),
(740,-48,cs),
(743.333,-48,o),
(745.667,-44.333,o),
(747,-37,cs),
(761.667,17,o),
(769,104.667,o),
(769,226,cs),
(769,270.667,o),
(768,319.333,o),
(766,372,cs),
(766,381.333,o),
(762.667,384.333,o),
(756,383,cs),
(734.667,381,o),
(710,378.667,o),
(682,376,cs),
(654,373.333,o),
(622,370.667,o),
(586,368,cs),
(384,350,o),
(256.667,338,o),
(204,332,c)
);
},
{
closed = 1;
nodes = (
(254,387,l),
(248.667,359,o),
(246,324.667,o),
(246,284,cs),
(246,-133,l),
(232,-139,l),
(169,-71,ls),
(167,-69,o),
(167,-66,o),
(169,-62,cs),
(179,-41.333,o),
(184,-19.667,o),
(184,3,cs),
(185.333,69.667,o),
(186,125,o),
(186,169,cs),
(186,215,o),
(185.333,270,o),
(184,334,cs),
(182.667,374,o),
(169,428,o),
(141,460,c),
(153,471,l),
(153,471,l)
);
},
{
closed = 1;
nodes = (
(237.333,608.333,o),
(195.667,602.333,o),
(157,595,c),
(78,653,l),
(83,666,l),
(114.333,662.667,o),
(148,661,o),
(184,661,cs),
(211.333,661,o),
(231.667,661.333,o),
(245,662,cs),
(379,673,ls),
(478.333,680.333,o),
(582.333,689,o),
(691,699,cs),
(755,704.333,o),
(789,710.667,o),
(821,728,cs),
(823.667,729.333,o),
(826.667,729,o),
(830,727,cs),
(924,674,l),
(921,660,l),
(743.667,649.333,o),
(530.667,633.667,o),
(282,613,cs)
);
}
);
width = 1000;
}
);
unicode = 101148;
}
{
glyphname = u18B1D;
layers = (
{
layerId = master01;
shapes = (
{
closed = 1;
nodes = (
(503,665,l),
(540,567,l),
(535,563,o),
(506,534,q),
(449,476,o),
(378,414,o),
(324,382,q),
(306,401,l),
(394,486,o),
(446,571,q),
(480,625,o),
(481,661,q)
);
},
{
closed = 1;
nodes = (
(209,417,l),
(354,428,o),
(679,457,o),
(703,461,q),
(774,475,o),
(808,509,q),
(813,514,o),
(818,509,q),
(878,446,l),
(883,442,o),
(878,437,q),
(853,414,l),
(847,409,o),
(843,403,o),
(843,397,q),
(843,191,o),
(831,2,o),
(815,-70,q),
(803,-122,o),
(780,-144,q),
(777,-147,o),
(774,-147,q),
(770,-147,o),
(765,-142,q),
(677,-54,o),
(562,16,q),
(573,36,l),
(740,-43,l),
(746,-46,o),
(749,-46,q),
(754,-46,o),
(756,-35,q),
(778,46,o),
(778,247,q),
(778,321,o),
(775,405,q),
(775,412,o),
(770,417,o),
(765,416,q),
(733,413,o),
(649,405,o),
(595,401,q),
(292,374,o),
(213,365,q)
);
},
{
closed = 1;
nodes = (
(244,413,l),
(236,371,o),
(236,310,q),
(236,-133,l),
(222,-139,l),
(159,-71,l),
(156,-68,o),
(159,-62,q),
(174,-31,o),
(174,3,q),
(176,111,o),
(176,182,q),
(176,256,o),
(174,360,q),
(173,390,o),
(152,462,o),
(131,486,q),
(143,497,l)
);
},
{
closed = 1;
nodes = (
(209,602,o),
(151,591,q),
(72,649,l),
(77,662,l),
(133,656,o),
(175,656,q),
(208,656,o),
(239,659,q),
(279,662,o),
(343,666,o),
(368,668,q),
(559,682,o),
(691,694,q),
(738,698,o),
(796,711,o),
(821,724,q),
(825,726,o),
(830,723,q),
(924,670,l),
(921,656,l),
(623,639,o),
(276,609,q)
);
},
{
closed = 1;
nodes = (
(359,312,l),
(430,288,o),
(582,219,o),
(638,187,q),
(644,183,o),
(645,177,q),
(658,84,l),
(643,74,l),
(574,137,o),
(447,231,o),
(350,289,q)
);
}
);
width = 1000;
}
);
unicode = 101149;
}
{
glyphname = u18B1E;
layers = (
{
layerId = master01;
shapes = (
{
closed = 1;
nodes = (
(297,416,l),
(378,499,o),
(422,570,q),
(455,622,o),
(456,661,q),
(478,665,l),
(515,567,l),
(510,563,o),
(481,534,q),
(438,490,o),
(378,436,o),
(341,409,q)
);
},
{
closed = 1;
nodes = (
(208,417,l),
(668,452,o),
(702,458,q),
(773,472,o),
(807,506,q),
(812,511,o),
(817,506,q),
(877,443,l),
(882,439,o),
(877,434,q),
(852,411,l),
(846,406,o),
(842,400,o),
(842,394,q),
(842,187,o),
(833,6,o),
(818,-60,q),
(806,-114,o),
(783,-135,q),
(780,-138,o),
(777,-138,q),
(772,-138,o),
(768,-133,q),
(746,-106,o),
(672,-40,o),
(627,-8,q),
(638,12,l),
(739,-33,l),
(745,-36,o),
(748,-36,q),
(753,-36,o),
(755,-25,q),
(776,52,o),
(776,256,q),
(776,350,o),
(774,402,q),
(774,409,o),
(769,414,o),
(764,413,q),
(492,389,l),
(342,377,o),
(212,365,q)
);
},
{
closed = 1;
nodes = (
(247,413,l),
(239,371,o),
(239,310,q),
(239,-133,l),
(225,-139,l),
(162,-71,l),
(159,-68,o),
(162,-62,q),
(177,-31,o),
(177,3,q),
(179,111,o),
(179,182,q),
(179,256,o),
(177,360,q),
(176,390,o),
(155,462,o),
(134,486,q),
(146,497,l)
);
},
{
closed = 1;
nodes = (
(213,605,o),
(155,594,q),
(76,652,l),
(81,665,l),
(128,660,o),
(182,660,q),
(223,660,o),
(243,661,q),
(522,683,o),
(692,698,q),
(740,702,o),
(798,714,o),
(822,727,q),
(826,729,o),
(831,726,q),
(925,673,l),
(922,659,l),
(760,650,o),
(450,626,o),
(280,612,q)
);
},
{
closed = 1;
nodes = (
(530,244,l),
(530,191,o),
(529,154,q),
(528,-113,l),
(514,-119,l),
(453,-51,l),
(450,-48,o),
(453,-42,q),
(468,-11,o),
(468,23,q),
(469,68,o),
(469,172,q),
(469,238,l)
);
},
{
closed = 1;
nodes = (
(389,203,o),
(338,192,q),
(267,244,l),
(272,257,l),
(324,252,o),
(352,252,q),
(371,252,o),
(399,254,q),
(454,258,l),
(549,264,o),
(581,268,q),
(614,273,o),
(646,287,o),
(649,289,q),
(653,291,o),
(658,289,q),
(743,246,l),
(740,228,l),
(687,226,o),
(492,212,o),
(434,207,q)
);
}
);
width = 1000;
}
);
unicode = 101150;
}
{
glyphname = u18B20;
layers = (
{
layerId = master01;
shapes = (
{
closed = 1;
nodes = (
(655,701,l),
(710,608,l),
(693,591,o),
(680,572,q),
(613,473,o),
(526,392,q),
(505,407,l),
(579,508,o),
(614,599,q),
(625,628,o),
(637,674,o),
(634,693,q)
);
},
{
closed = 1;
nodes = (
(268,623,l),
(364,558,o),
(424,496,q),
(428,492,o),
(425,486,q),
(396,415,l),
(382,415,l),
(333,527,o),
(254,608,q)
);
},
{
closed = 1;
nodes = (
(305,412,l),
(692,441,o),
(717,446,q),
(788,460,o),
(822,494,q),
(827,499,o),
(832,494,q),
(892,431,l),
(897,427,o),
(892,422,q),
(867,399,l),
(861,394,o),
(857,388,o),
(857,382,q),
(857,186,o),
(845,1,o),
(829,-70,q),
(818,-118,o),
(794,-141,q),
(791,-144,o),
(788,-144,q),
(786,-144,o),
(779,-139,q),
(707,-79,o),
(612,-27,q),
(624,-5,l),
(751,-50,l),
(760,-52,l),
(765,-52,o),
(767,-41,q),
(791,46,o),
(791,266,q),
(791,304,o),
(789,390,q),
(789,397,o),
(784,402,o),
(779,401,q),
(760,399,o),
(547,382,q),
(270,360,o),
(198,352,q),
(194,404,l)
);
},
{
closed = 1;
nodes = (
(223,403,l),
(215,361,o),
(215,300,q),
(215,-133,l),
(201,-139,l),
(138,-71,l),
(135,-68,o),
(138,-62,q),
(153,-31,o),
(153,3,q),
(155,111,o),
(155,177,q),
(155,246,o),
(153,350,q),
(152,380,o),
(131,452,o),
(110,476,q),
(122,487,l)
);
},
{
closed = 1;
nodes = (
(347,295,l),
(485,245,o),
(610,172,q),
(614,169,o),
(616,161,q),
(637,55,l),
(622,46,l),
(503,173,o),
(335,272,q)
);
},
{
closed = 1;
nodes = (
(212,630,o),
(154,619,q),
(75,677,l),
(80,690,l),
(128,685,o),
(181,685,q),
(222,685,o),
(242,686,q),
(285,690,o),
(425,700,q),
(439,701,o),
(567,711,o),
(691,722,q),
(738,726,o),
(796,739,o),
(821,752,q),
(825,754,o),
(830,751,q),
(924,698,l),
(921,684,l),
(644,667,o),
(279,637,q)
);
}
);
width = 1000;
}
);
unicode = 101152;
}
{
glyphname = u18B22;
layers = (
{
layerId = master01;
shapes = (
{
closed = 1;
nodes = (
(410,664,l),
(472,579,l),
(459,563,o),
(446,539,q),
(412,481,o),
(353,396,o),
(314,352,q),
(292,366,l),
(325,421,o),
(364,509,o),
(379,559,q),
(392,600,o),
(392,630,q),
(392,643,o),
(389,655,q)
);
},
{
closed = 1;
nodes = (
(194,606,o),
(136,595,q),
(57,653,l),
(62,666,l),
(104,661,o),
(154,661,q),
(178,661,o),
(224,663,q),
(286,668,o),
(425,677,o),
(461,680,q),
(581,686,o),
(712,698,q),
(759,702,o),
(817,715,o),
(842,728,q),
(846,730,o),
(851,727,q),
(945,674,l),
(942,660,l),
(582,640,o),
(261,613,q)
);
},
{
closed = 1;
nodes = (
(217,376,l),
(209,334,o),
(209,273,q),
(209,-133,l),
(195,-139,l),
(132,-71,l),
(129,-68,o),
(132,-62,q),
(147,-31,o),
(147,3,q),
(149,109,o),
(149,164,q),
(149,221,o),
(147,323,q),
(146,353,o),
(125,425,o),
(104,449,q),
(116,460,l)
);
},
{
closed = 1;
nodes = (
(589,-36,l),
(589,343,o),
(585,454,q),
(584,484,o),
(565,550,o),
(544,574,q),
(554,586,l),
(657,500,l),
(647,457,o),
(647,397,q),
(647,-29,l)
);
},
{
closed = 1;
nodes = (
(425,-44,l),
(367,-51,l),
(365,372,l),
(425,376,l)
);
},
{
closed = 1;
nodes = (
(202,379,l),
(346,388,o),
(690,415,o),
(722,421,q),
(788,434,o),
(829,468,q),
(834,473,o),
(838,468,q),
(901,403,l),
(905,400,o),
(901,396,q),
(876,374,l),
(866,365,o),
(866,357,q),
(866,176,o),
(857,10,o),
(845,-54,q),
(840,-78,o),
(824,-126,o),
(816,-137,q),
(813,-141,o),
(808,-142,o),
(806,-139,q),
(738,-17,l),
(784,-25,l),
(796,21,o),
(802,200,o),
(802,365,q),
(802,376,o),
(792,375,q),
(669,363,o),
(411,344,q),
(261,333,o),
(193,327,q)
);
},
{
closed = 1;
nodes = (
(808,-50,l),
(642,-57,o),
(351,-76,q),
(317,-78,o),
(239,-83,o),
(194,-86,q),
(195,-35,l),
(304,-29,o),
(506,-16,o),
(613,-9,q),
(666,-4,o),
(719,5,o),
(743,17,q),
(744,17,o),
(750,18,o),
(752,16,q),
(820,-22,l)
);
}
);
width = 1000;
}
);
unicode = 101154;
}
{
glyphname = u18B24;
layers = (
{
layerId = master01;
shapes = (
{
closed = 1;
nodes = (
(175,229,o),
(117,218,q),
(38,275,l),
(43,288,l),
(87,284,o),
(130,284,q),
(169,284,o),
(205,287,q),
(247,291,o),
(266,292,q),
(320,297,o),
(468,310,o),
(571,320,q),
(621,325,o),
(678,337,o),
(702,351,q),
(706,353,o),
(711,350,q),
(805,298,l),
(802,283,l),
(598,269,o),
(420,254,o),
(242,236,q)
);
},
{
closed = 1;
nodes = (
(221,585,o),
(192,579,q),
(124,632,l),
(129,644,l),
(167,641,o),
(193,641,q),
(215,641,o),
(251,643,q),
(337,650,o),
(511,665,o),
(561,672,q),
(604,680,o),
(637,696,q),
(641,698,o),
(646,695,q),
(730,651,l),
(727,634,l),
(628,628,o),
(284,594,q)
);
},
{
closed = 1;
nodes = (
(800,631,l),
(839,578,o),
(917,451,o),
(942,401,q),
(944,394,o),
(942,389,q),
(902,310,l),
(884,310,l),
(866,394,o),
(820,531,o),
(779,617,q)
);
},
{
closed = 1;
nodes = (
(477,565,l),
(467,527,o),
(467,463,q),
(467,-2,l),
(467,-33,o),
(480,-55,o),
(502,-56,q),
(553,-59,o),
(620,-59,q),
(681,-59,o),
(799,-54,o),
(827,-50,q),
(843,-48,o),
(853,-37,o),
(854,-21,q),
(863,130,l),
(887,130,l),
(892,80,o),
(915,-47,o),
(927,-81,q),
(928,-82,o),
(928,-85,q),
(928,-90,o),
(923,-92,q),
(880,-111,o),
(811,-115,q),
(709,-122,o),
(623,-122,q),
(577,-122,o),
(489,-118,q),
(443,-116,o),
(403,-68,o),
(403,-15,q),
(403,518,l),
(403,579,o),
(370,627,q),
(397,631,l)
);
}
);
width = 1000;
}
);
unicode = 101156;
}
{
glyphname = u18B28;
layers = (
{
layerId = master01;
shapes = (
{
closed = 1;
nodes = (
(425,216,ls),
(421,212.667,o),
(417.333,212.667,o),
(414,216,c),
(361,285,ls),
(358.333,289,o),
(358.333,292.333,o),
(361,295,cs),
(397,333.667,o),
(404.333,358.333,o),
(411,421,cs),
(414,450,ls),
(421.333,513.333,o),
(425.667,561,o),
(427,593,cs),
(429,625,o),
(422.667,650,o),
(408,668,c),
(417,675,l),
(495,611,l),
(481.667,570.333,o),
(467.333,470.333,o),
(452,311,cs),
(451,305,ls),
(451,298.333,o),
(455,295.333,o),
(463,296,cs),
(523,300,o),
(635.333,310,o),
(678,318,cs),
(726.667,327.333,o),
(761.667,342.667,o),
(783,364,cs),
(786.333,367.333,o),
(789.333,367.333,o),
(792,364,cs),
(854,304,ls),
(857.333,301.333,o),
(857.333,298.333,o),
(854,295,cs),
(829,270,ls),
(821.266,262.266,o),
(819,257.351,o),
(819,253,c),
(815,232,ls),
(785.667,72,o),
(768,-9.667,o),
(732,-87,cs),
(718.667,-116.333,o),
(691,-147,o),
(667,-159,cs),
(664.333,-160.333,o),
(662.333,-161,o),
(661,-161,cs),
(658.333,-161,o),
(656,-159.333,o),
(654,-156,cs),
(630,-112,o),
(587.333,-69.667,o),
(518,-11,c),
(532,7,l),
(655,-58,ls),
(657,-58.667,o),
(658.667,-59.5,o),
(660,-60.5,cs),
(661.333,-61.5,o),
(663,-62,o),
(665,-62,cs),
(667.667,-62,o),
(670.667,-58.667,o),
(674,-52,cs),
(710,18.667,o),
(731,118.333,o),
(755,265,cs),
(755,267,ls),
(755,273,o),
(751.333,275.667,o),
(744,275,cs),
(476,248,ls),
(468,247.333,o),
(461,244.333,o),
(455,239,cs)
);
},
{
closed = 1;
nodes = (
(202.333,406.333,o),
(160.667,400.333,o),
(122,393,c),
(43,450,l),
(48,463,l),
(78,460.333,o),
(108.667,459,o),
(140,459,cs),
(156,459,o),
(179.333,459.667,o),
(210,461,cs),
(319,469,ls),
(456.333,479.667,o),
(592.667,491.333,o),
(728,504,cs),
(798.667,512,o),
(827,515.333,o),
(859,534,cs),
(861.667,535.333,o),
(864.667,535,o),
(868,533,cs),
(962,481,l),
(959,466,l),
(699.667,448.667,o),
(462.333,430.333,o),
(247,411,cs)
);
},
{
closed = 1;
nodes = (
(346.333,626.667,o),
(305.667,620,o),
(257,610,c),
(180,666,l),
(185,679,l),
(214.333,676.333,o),
(244,675,o),
(274,675,cs),
(297.333,675,o),
(320.333,676,o),
(343,678,cs),
(454.333,686,o),
(533.667,693.333,o),
(581,700,cs),
(647.667,708,o),
(677,713.333,o),
(709,732,c),
(712.333,733.333,o),
(715.333,733,o),
(718,731,c),
(810,681,l),
(807,666,l),
(673,656,o),
(530.333,644,o),
(379,630,cs)
);
},
{
closed = 1;
nodes = (
(70,-63,l),
(156.667,11.667,o),
(230.667,98,o),
(260,162,cs),
(272.667,187.333,o),
(279,212.333,o),
(279,237,cs),
(279,241.667,o),
(278.333,248,o),
(277,256,c),
(292,259,l),
(349,147,l),
(302,97,ls),
(238.667,31,o),
(168,-30.333,o),
(90,-87,c)
);
},
{
closed = 1;
nodes = (
(457,198,l),
(511,172.667,o),
(561.667,144,o),
(609,112,c),
(612.333,112,o),
(614,108.667,o),
(614,102,cs),
(607,3,l),
(591,-2,l),
(548.333,70.667,o),
(499,131.667,o),
(443,181,c)
);
}
);
width = 1000;
}
);
unicode = 101160;
}
{
glyphname = u18B29;
layers = (
{
layerId = master01;
shapes = (
{
closed = 1;
nodes = (
(198,284,o),
(140,273,q),
(61,330,l),
(66,343,l),
(111,339,o),
(158,339,q),
(182,339,o),
(228,341,q),
(281,345,o),
(298,346,q),
(569,367,o),
(706,381,q),
(759,387,o),
(813,397,o),
(837,411,q),
(841,413,o),
(846,410,q),
(940,358,l),
(937,343,l),
(597,320,o),
(265,291,q)
);
},
{
closed = 1;
nodes = (
(294,586,o),
(221,571,q),
(144,627,l),
(149,640,l),
(193,636,o),
(238,636,q),
(272,636,o),
(307,639,q),
(460,651,o),
(625,667,q),
(672,672,o),
(729,685,o),
(753,699,q),
(758,701,o),
(762,698,q),
(854,648,l),
(851,633,l),
(541,610,o),
(343,591,q)
);
},
{
closed = 1;
nodes = (
(551,576,l),
(544,553,o),
(540,504,q),
(529,341,o),
(465,128,o),
(403,51,q),
(283,-99,o),
(57,-163,q),
(45,-128,l),
(145,-93,o),
(308,22,o),
(356,90,q),
(412,170,o),
(466,356,o),
(473,509,q),
(474,539,o),
(459,610,o),
(441,635,q),
(477,643,l)
);
},
{
closed = 1;
nodes = (
(510,348,l),
(614,190,o),
(743,26,q),
(783,-25,o),
(875,-74,o),
(956,-89,q),
(956,-116,l),
(752,-126,l),
(741,-126,o),
(738,-119,q),
(703,-46,o),
(573,178,o),
(500,294,q)
);
}
);
width = 1000;
}
);
unicode = 101161;
}
{
glyphname = u18B2A;
layers = (
{
layerId = master01;
shapes = (
{
closed = 1;
nodes = (
(552,444,l),
(590.667,410,o),
(643.667,367.333,o),
(711,316,cs),
(783,261.333,o),
(849.333,226.667,o),
(964,212,c),
(964,184,l),
(779,169,ls),
(773,169,o),
(767.667,171.333,o),
(763,176,cs),
(707,238.667,o),
(623,324.333,o),
(511,433,c)
);
},
{
closed = 1;
nodes = (
(583,594,l),
(561.667,562,o),
(547.667,540.667,o),
(541,530,cs),
(443.667,368.667,o),
(270.667,191,o),
(76,83,c),
(60,109,l),
(248,231.667,o),
(413.333,414.667,o),
(488,584,cs),
(497.333,608,o),
(500.667,633.667,o),
(498,661,c),
(526,668,l),
(526,668,l)
);
},
{
closed = 1;
nodes = (
(232.333,388.333,o),
(190.667,382.333,o),
(152,375,c),
(73,432,l),
(78,445,l),
(108,442.333,o),
(138.667,441,o),
(170,441,cs),
(186,441,o),
(209.333,441.667,o),
(240,443,cs),
(400.667,455,o),
(556,468,o),
(706,482,cs),
(776.667,490,o),
(805,493.333,o),
(837,512,cs),
(839.667,513.333,o),
(842.667,513,o),
(846,511,cs),
(940,459,l),
(937,444,l),
(726.333,430,o),
(506.333,413,o),
(277,393,cs)
);
},
{
closed = 1;
nodes = (
(151,-132,l),
(285.667,-36,o),
(399.667,91,o),
(445,199,cs),
(455,223,o),
(460,247,o),
(460,271,cs),
(460,275.667,o),
(459.333,283.333,o),
(458,294,c),
(471,299,l),
(533,183,l),
(527,177,o),
(518,166,o),
(506,150,cs),
(499.333,140.667,o),
(494,133.667,o),
(490,129,cs),
(402,17,o),
(306,-71,o),
(170,-159,c)
);
},
{
closed = 1;
nodes = (
(492,149,l),
(618.667,81,o),
(700.333,30.667,o),
(799,-44,cs),
(802.333,-46,o),
(804,-49,o),
(804,-53,cs),
(796,-152,l),
(779,-155,l),
(700.333,-56.333,o),
(589.667,46.333,o),
(471,125,c)
);
},
{
closed = 1;
nodes = (
(304.667,626.667,o),
(273.667,622,o),
(247,616,c),
(180,670,l),
(185,682,l),
(209,679.333,o),
(231.667,678,o),
(253,678,cs),
(266.333,678,o),
(284.333,678.667,o),
(307,680,cs),
(416.333,686.667,o),
(575.333,700.667,o),
(646,710,cs),
(675.333,714.667,o),
(701,722.333,o),
(723,733,cs),
(725.667,734.333,o),
(728.667,734,o),
(732,732,cs),
(815,687,l),
(812,670,l),
(742.667,666,o),
(382.667,635.333,o),
(340,630,cs)
);
}
);
width = 1000;
}
);
unicode = 101162;
}
{
glyphname = u18B2D;
layers = (
{
layerId = master01;
shapes = (
{
closed = 1;
nodes = (
(489,111,l),
(502,83,l),
(259,-44,l),
(191,-80,o),
(158,-104,q),
(63,-68,l),
(63,-55,l),
(135,-38,o),
(197,-12,q)
);
},
{
closed = 1;
nodes = (
(543,621,l),
(543,654,o),
(521,717,o),
(500,743,q),
(511,755,l),
(617,668,l),
(607,630,o),
(607,566,q),
(607,-5,l),
(607,-36,o),
(620,-58,o),
(642,-59,q),
(684,-61,o),
(715,-61,q),
(802,-61,o),
(858,-53,q),
(874,-52,o),
(884,-40,o),
(885,-24,q),
(893,176,l),
(917,176,l),
(923,103,o),
(945,-46,o),
(958,-84,q),
(959,-85,o),
(959,-88,q),
(959,-93,o),
(954,-95,q),
(917,-111,o),
(842,-118,q),
(790,-124,o),
(722,-124,q),
(673,-124,o),
(629,-121,q),
(583,-119,o),
(543,-71,o),
(543,-18,q)
);
},
{
closed = 1;
nodes = (
(184,256,o),
(138,244,q),
(69,289,l),
(74,302,l),
(106,300,o),
(118,300,q),
(141,300,o),
(196,305,q),
(216,308,l),
(292,317,o),
(315,323,q),
(350,330,o),
(370,345,q),
(373,347,o),
(378,345,o),
(379,345,q),
(463,309,l),
(460,292,l),
(411,288,o),
(271,270,o),
(231,263,q)
);
},
{
closed = 1;
nodes = (
(227,551,l),
(162,540,o),
(134,533,q),
(66,580,l),
(71,593,l),
(103,590,o),
(126,590,q),
(155,590,o),
(193,594,q),
(283,603,o),
(317,609,q),
(353,615,o),
(375,631,q),
(378,633,o),
(383,631,o),
(384,631,q),
(467,593,l),
(464,576,l),
(421,573,o),
(259,555,q)
);
},
{
closed = 1;
nodes = (
(307,519,l),
(297,487,o),
(297,417,q),
(297,3,l),
(237,-29,l),
(237,472,l),
(237,526,o),
(213,572,q),
(233,584,l)
);
},
{
closed = 1;
nodes = (
(577,219,l),
(650,273,o),
(784,413,o),
(812,464,q),
(836,515,o),
(833,558,q),
(847,562,l),
(899,445,l),
(890,438,o),
(876,421,q),
(860,403,o),
(851,395,q),
(712,262,o),
(594,191,q)
);
}
);
width = 1000;
}
);
unicode = 101165;
}
{
glyphname = u18B2E;
layers = (
{
layerId = master01;
shapes = (
{
closed = 1;
nodes = (
(329,146,o),
(264,133,q),
(188,190,l),
(193,203,l),
(239,198,o),
(291,198,q),
(311,198,o),
(351,200,q),
(463,207,o),
(533,214,q),
(583,218,l),
(631,222,o),
(688,234,o),
(712,248,q),
(717,250,o),
(721,247,q),
(812,195,l),
(809,180,l),
(636,170,o),
(386,151,q)
);
},
{
closed = 1;
nodes = (
(321,359,o),
(256,346,q),
(180,403,l),
(185,416,l),
(231,411,o),
(283,411,q),
(303,411,o),
(343,413,q),
(455,420,o),
(525,427,q),
(575,431,l),
(623,435,o),
(680,447,o),
(704,461,q),
(709,463,o),
(713,460,q),
(804,408,l),
(801,393,l),
(628,382,o),
(378,364,q)
);
},
{
closed = 1;
nodes = (
(169,-72,o),
(116,-83,q),
(41,-24,l),
(46,-11,l),
(106,-17,o),
(152,-17,q),
(170,-17,o),
(204,-15,q),
(585,3,o),
(731,17,q),
(780,20,o),
(837,32,o),
(861,46,q),
(865,48,o),
(870,45,q),
(961,-9,l),
(958,-23,l),
(522,-45,o),
(239,-65,q)
);
},
{
closed = 1;
nodes = (
(250,588,o),
(196,577,q),
(119,634,l),
(124,647,l),
(168,643,o),
(213,643,q),
(236,643,o),
(282,645,q),
(452,659,l),
(550,666,o),
(643,674,q),
(692,679,o),
(747,691,o),
(771,704,q),
(776,706,o),
(780,704,q),
(872,652,l),
(869,637,l),
(593,622,o),
(318,595,q)
);
},
{
closed = 1;
nodes = (
(538,578,l),
(529,531,o),
(529,475,q),
(529,-23,l),
(469,-30,l),
(469,257,l),
(469,491,o),
(468,532,q),
(467,555,o),
(453,606,o),
(440,628,q),
(464,639,l)
);
}
);
width = 1000;
}
);
unicode = 101166;
}
{
glyphname = u18B2F;
layers = (
{
layerId = master01;
shapes = (
{
closed = 1;
nodes = (
(295,231,o),
(250,63,o),
(146,-82,o),
(53,-148,q),
(34,-127,l),
(117,-58,o),
(208,95,o),
(243,279,o),
(243,407,q),
(243,438,o),
(223,504,o),
(201,528,q),
(212,540,l),
(314,454,l),
(307,426,o),
(303,350,q)
);
},
{
closed = 1;
nodes = (
(523,417,l),
(523,450,o),
(501,513,o),
(480,539,q),
(491,551,l),
(596,464,l),
(586,426,o),
(586,362,q),
(586,14,l),
(586,-17,o),
(599,-39,o),
(621,-40,q),
(661,-42,o),
(687,-42,q),
(780,-42,o),
(848,-32,q),
(864,-31,o),
(874,-19,o),
(875,-3,q),
(882,177,l),
(906,177,l),
(912,115,o),
(936,-27,o),
(948,-63,q),
(949,-64,o),
(949,-67,q),
(949,-72,o),
(944,-74,q),
(907,-90,o),
(832,-97,q),
(770,-104,o),
(686,-104,q),
(657,-104,o),
(609,-102,q),
(563,-100,o),
(523,-52,o),
(523,1,q)
);
},
{
closed = 1;
nodes = (
(451,195,o),
(400,183,q),
(330,234,l),
(334,246,l),
(366,244,o),
(377,244,q),
(401,244,o),
(448,248,o),
(456,249,q),
(658,271,o),
(749,289,q),
(797,299,o),
(825,316,q),
(829,318,o),
(834,315,q),
(920,274,l),
(918,257,l),
(868,252,o),
(566,212,o),
(492,201,q)
);
},
{
closed = 1;
nodes = (
(366,601,l),
(317,597,o),
(244,582,q),
(167,638,l),
(172,651,l),
(217,648,o),
(252,648,q),
(292,648,o),
(330,651,q),
(562,671,o),
(680,683,q),
(727,688,o),
(785,701,o),
(809,715,q),
(814,717,o),
(818,715,q),
(910,665,l),
(907,650,l),
(782,641,o),
(456,610,q)
);
}
);
width = 1000;
}
);
unicode = 101167;
}
{
glyphname = u18B30;
layers = (
{
layerId = master01;
shapes = (
{
closed = 1;
nodes = (
(310,661,l),
(399,597,l),
(393,560,o),
(393,517,q),
(393,476,l),
(393,321,o),
(344,85,o),
(200,-102,o),
(67,-153,q),
(54,-128,l),
(165,-71,o),
(286,101,o),
(328,304,o),
(328,432,q),
(327,492,l),
(326,540,o),
(314,620,o),
(295,652,q)
);
},
{
closed = 1;
nodes = (
(589,500,l),
(589,559,o),
(571,645,o),
(557,668,q),
(567,675,l),
(660,601,l),
(653,573,o),
(653,490,q),
(653,-2,l),
(653,-33,o),
(666,-55,o),
(688,-56,q),
(718,-59,o),
(745,-59,q),
(776,-59,o),
(803,-56,q),
(853,-52,o),
(881,-32,q),
(883,-30,o),
(887,-30,q),
(889,-30,o),
(894,-33,o),
(896,-34,q),
(971,-85,l),
(974,-87,o),
(974,-89,q),
(974,-94,o),
(967,-96,q),
(946,-103,o),
(873,-114,o),
(835,-116,q),
(790,-119,o),
(731,-119,q),
(693,-119,o),
(675,-118,q),
(628,-114,o),
(589,-67,o),
(589,-15,q)
);
},
{
closed = 1;
nodes = (
(216,279,o),
(155,268,o),
(127,262,q),
(50,319,l),
(55,332,l),
(119,328,o),
(140,328,q),
(165,328,o),
(213,332,q),
(482,350,o),
(722,376,q),
(770,381,o),
(825,393,o),
(849,407,q),
(853,409,o),
(857,406,o),
(858,406,q),
(951,355,l),
(948,340,l),
(666,321,o),
(248,281,q)
);
},
{
closed = 1;
nodes = (
(319,628,l),
(262,623,o),
(197,610,q),
(121,668,l),
(126,681,l),
(172,676,o),
(224,676,q),
(244,676,o),
(284,678,q),
(518,693,o),
(657,706,q),
(705,710,o),
(762,722,o),
(786,736,q),
(790,738,o),
(794,735,o),
(795,735,q),
(886,684,l),
(883,669,l),
(760,662,o),
(444,638,q)
);
}
);
width = 1000;
}
);
unicode = 101168;
}
{
glyphname = u18B31;
layers = (
{
layerId = master01;
shapes = (
{
closed = 1;
nodes = (
(300,229,o),
(255,62,o),
(149,-81,o),
(50,-149,q),
(34,-127,l),
(121,-59,o),
(213,93,o),
(245,276,o),
(244,407,q),
(244,438,o),
(224,504,o),
(202,528,q),
(213,540,l),
(317,454,l),
(310,426,o),
(306,350,q)
);
},
{
closed = 1;
nodes = (
(315,598,o),
(242,583,q),
(165,639,l),
(170,652,l),
(215,649,o),
(250,649,q),
(291,649,o),
(328,652,q),
(572,673,o),
(661,682,q),
(708,687,o),
(766,700,o),
(790,714,q),
(795,716,o),
(799,714,q),
(891,664,l),
(888,649,l),
(765,640,o),
(481,613,o),
(433,609,q),
(410,606,o),
(364,602,q)
);
},
{
closed = 1;
nodes = (
(582,-71,l),
(582,308,o),
(578,419,q),
(577,449,o),
(558,515,o),
(537,539,q),
(547,551,l),
(653,465,l),
(643,422,o),
(643,362,q),
(643,-64,l)
);
},
{
closed = 1;
nodes = (
(410,-107,o),
(361,-116,q),
(295,-61,l),
(300,-49,l),
(339,-54,o),
(378,-54,q),
(408,-54,o),
(422,-53,q),
(523,-49,o),
(728,-35,o),
(782,-27,q),
(826,-22,o),
(859,-5,q),
(863,-3,o),
(868,-6,q),
(950,-52,l),
(947,-69,l),
(894,-71,o),
(487,-100,o),
(455,-104,q)
);
},
{
closed = 1;
nodes = (
(502,205,o),
(455,194,q),
(386,245,l),
(391,257,l),
(430,254,o),
(458,254,q),
(482,254,o),
(516,256,q),
(561,259,l),
(680,266,o),
(703,270,q),
(736,275,o),
(770,290,q),
(774,292,o),
(779,290,q),
(865,248,l),
(862,231,l),
(788,227,o),
(580,213,o),
(551,210,q)
);
}
);
width = 1000;
}
);
unicode = 101169;
}
{
glyphname = u18B32;
layers = (
{
layerId = master01;
shapes = (
{
closed = 1;
nodes = (
(403,371,l),
(449.667,373.667,o),
(584.667,390.667,o),
(634,400,cs),
(682,409.333,o),
(717,425,o),
(739,447,cs),
(742.333,450.333,o),
(745.333,450.333,o),
(748,447,cs),
(810,387,ls),
(813.333,384.333,o),
(813.333,381.333,o),
(810,378,cs),
(785,352,ls),
(777.266,344.266,o),
(775,339.351,o),
(775,335,c),
(743,193.667,o),
(684.667,13.333,o),
(638,-68,cs),
(620.667,-98.667,o),
(595,-128.333,o),
(571,-139,cs),
(569.667,-139.667,o),
(568,-140,o),
(566,-140,cs),
(562.667,-140,o),
(560,-138.333,o),
(558,-135,cs),
(527.333,-87,o),
(469,-16.333,o),
(405,41,c),
(419,59,l),
(561,-34,ls),
(566.333,-37.333,o),
(569.333,-39,o),
(570,-39,cs),
(572.667,-39,o),
(576,-35.667,o),
(580,-29,cs),
(624,39,o),
(688,230.667,o),
(712,348,cs),
(713,352,l),
(713,356.667,o),
(710,358.333,o),
(704,357,cs),
(390,318,l),
(390,318,l)
);
},
{
closed = 1;
nodes = (
(19,-124,l),
(208.333,25.333,o),
(349.667,234.667,o),
(403,484,cs),
(411,526,o),
(415,556.667,o),
(415,576,cs),
(415,594,o),
(412,611,o),
(406,627,c),
(421,633,l),
(503,557,l),
(489.667,521.667,o),
(478,485.333,o),
(468,448,cs),
(389.333,170.667,o),
(225.667,-25.667,o),
(35,-147,c)
);
},
{
closed = 1;
nodes = (
(259,580,ls),
(218.333,576.667,o),
(177.333,570.333,o),
(136,561,c),
(58,618,l),
(63,631,l),
(93,629,o),
(120.333,628,o),
(145,628,cs),
(172.333,628,o),
(198.333,629,o),
(223,631,cs),
(421.667,644.333,o),
(528,653.333,o),
(720,672,cs),
(784,678.667,o),
(818,685,o),
(850,705,cs),
(852.667,706.333,o),
(855.667,706,o),
(859,704,cs),
(952,652,l),
(949,637,l),
(771.667,625,o),
(576.333,609,o),
(363,589,cs)
);
}
);
width = 1000;
}
);
unicode = 101170;
}
{
glyphname = u18B35;
layers = (
{
layerId = master01;
shapes = (
{
closed = 1;
nodes = (
(521,171,l),
(563,129,o),
(659,41,q),
(702,2,l),
(758,-49,o),
(864,-95,o),
(942,-108,q),
(942,-137,l),
(760,-151,l),
(758,-151,l),
(749,-151,o),
(737,-141,q),
(596,38,o),
(480,160,q)
);
},
{
closed = 1;
nodes = (
(281,231,o),
(220,170,q),
(213,165,o),
(210,165,q),
(205,165,o),
(203,175,q),
(186,249,l),
(186,251,l),
(186,256,o),
(191,259,q),
(219,272,o),
(263,316,o),
(280,356,q),
(293,386,o),
(291,418,q),
(310,419,l),
(321,386,o),
(321,358,q),
(321,324,o),
(308,293,q)
);
},
{
closed = 1;
nodes = (
(605,448,l),
(643,414,o),
(728,326,o),
(751,298,q),
(756,292,o),
(753,285,q),
(721,195,l),
(717,185,o),
(713,185,q),
(709,185,o),
(706,196,q),
(689,246,o),
(622,378,o),
(587,431,q)
);
},
{
closed = 1;
nodes = (
(532,601,l),
(523,571,o),
(523,529,q),
(520,324,o),
(432,66,o),
(337,-19,q),
(284,-66,o),
(131,-143,o),
(42,-169,q),
(31,-136,l),
(106,-109,o),
(240,-31,o),
(288,14,q),
(376,97,o),
(454,344,o),
(455,534,q),
(455,565,o),
(441,633,o),
(423,660,q),
(442,671,l)
);
},
{
closed = 1;
nodes = (
(267,627,o),
(217,618,q),
(151,669,l),
(156,681,l),
(195,676,o),
(234,676,q),
(264,676,o),
(278,677,q),
(345,680,o),
(594,701,o),
(648,708,q),
(692,714,o),
(725,730,q),
(729,732,o),
(734,729,q),
(816,686,l),
(813,669,l),
(765,667,o),
(337,634,o),
(310,630,q)
);
},
{
closed = 1;
nodes = (
(195,119,o),
(133,105,q),
(55,162,l),
(60,175,l),
(105,172,o),
(142,172,q),
(182,172,o),
(220,175,q),
(376,185,o),
(573,201,o),
(706,215,q),
(758,221,o),
(812,232,o),
(836,246,q),
(840,248,o),
(845,245,q),
(938,193,l),
(935,178,l),
(757,167,o),
(469,144,o),
(256,124,q)
);
},
{
closed = 1;
nodes = (
(194,435,o),
(132,421,q),
(54,478,l),
(59,491,l),
(104,488,o),
(141,488,q),
(181,488,o),
(219,491,q),
(375,501,o),
(572,517,o),
(705,531,q),
(757,537,o),
(811,548,o),
(835,562,q),
(839,564,o),
(844,561,q),
(937,509,l),
(934,494,l),
(756,483,o),
(468,460,o),
(255,440,q)
);
}
);
width = 1000;
}
);
unicode = 101173;
}
{
glyphname = u18B36;
layers = (
{
layerId = master01;
shapes = (
{
closed = 1;
nodes = (
(538,682,l),
(531.333,653.333,o),
(528,619,o),
(528,579,cs),
(527,211,ls),
(525.667,44.333,o),
(525,-78.667,o),
(525,-158,c),
(512,-164,l),
(447,-96,ls),
(445.667,-94.667,o),
(445.667,-91.667,o),
(447,-87,cs),
(455,-69,o),
(459.667,-47.333,o),
(461,-22,cs),
(464.333,71.333,o),
(466,202.667,o),
(466,372,cs),
(466,478,o),
(465,566,o),
(463,636,cs),
(461.667,677.333,o),
(449.333,724,o),
(420,756,c),
(431,768,l),
(431,768,l)
);
},
{
closed = 1;
nodes = (
(213.333,316,o),
(172.667,309.667,o),
(130,301,c),
(54,361,l),
(59,374,l),
(91.667,371.333,o),
(124,370,o),
(156,370,cs),
(183.333,370,o),
(203.667,370.667,o),
(217,372,cs),
(402.333,382.667,o),
(568,395.667,o),
(714,411,cs),
(779.333,416.333,o),
(811,422,o),
(843,442,cs),
(845.667,443.333,o),
(848.667,443,o),
(852,441,cs),
(944,388,l),
(941,373,l),
(751,362.333,o),
(521.333,344.667,o),
(252,320,cs)
);
}
);
width = 1000;
}
);
unicode = 101174;
}
{
glyphname = u18B3B;
layers = (
{
layerId = master01;
shapes = (
{
closed = 1;
nodes = (
(187,417,o),
(123,404,q),
(47,462,l),
(52,475,l),
(101,471,o),
(149,471,q),
(190,471,o),
(210,473,q),
(538,491,o),
(724,510,q),
(773,514,o),
(829,526,o),
(853,541,q),
(857,543,o),
(862,540,q),
(954,487,l),
(951,472,l),
(554,450,o),
(245,423,q)
);
},
{
closed = 1;
nodes = (
(482,304,l),
(482,539,o),
(480,632,q),
(479,661,o),
(457,728,o),
(435,752,q),
(446,764,l),
(550,678,l),
(541,631,o),
(541,575,q),
(541,320,o),
(542,196,q),
(482,189,l)
);
},
{
closed = 1;
nodes = (
(278,208,l),
(358,213,o),
(580,231,q),
(591,231,o),
(611,233,q),
(662,238,o),
(717,251,o),
(740,265,q),
(744,267,o),
(749,264,q),
(841,211,l),
(838,196,l),
(559,180,o),
(281,158,q)
);
},
{
closed = 1;
nodes = (
(432,-34,l),
(556,-26,o),
(584,-23,q),
(635,-18,o),
(690,-5,o),
(713,9,q),
(717,11,o),
(722,8,q),
(814,-45,l),
(811,-60,l),
(530,-75,o),
(293,-94,q),
(293,-44,l)
);
},
{
closed = 1;
nodes = (
(314,201,l),
(310,169,o),
(310,146,q),
(310,117,o),
(312,98,q),
(328,-154,l),
(316,-160,l),
(249,-96,l),
(247,-94,o),
(249,-87,q),
(260,-57,o),
(259,-22,q),
(247,151,l),
(245,180,o),
(221,244,o),
(198,267,q),
(207,280,l)
);
}
);
width = 1000;
}
);
unicode = 101179;
}
{
glyphname = u18B3C;
layers = (
{
layerId = master01;
shapes = (
{
closed = 1;
nodes = (
(466,394,o),
(467,363,q),
(467,348,o),
(478,348,q),
(510,348,o),
(569,355,q),
(635,361,o),
(674,400,q),
(680,406,o),
(685,400,q),
(740,338,l),
(746,333,o),
(740,327,q),
(720,309,l),
(714,304,o),
(708,295,o),
(706,289,q),
(667,201,o),
(483,21,o),
(217,-129,o),
(61,-171,q),
(52,-140,l),
(184,-92,o),
(426,52,o),
(599,216,o),
(629,291,q),
(632,300,o),
(632,304,q),
(632,312,o),
(620,310,q),
(475,298,l),
(466,297,o),
(454,289,q),
(424,268,l),
(417,264,o),
(413,268,q),
(363,330,l),
(358,336,o),
(363,341,q),
(396,374,o),
(405,416,q),
(414,457,o),
(414,633,q),
(414,663,o),
(394,731,o),
(373,756,q),
(384,767,l),
(485,679,l),
(475,641,o),
(472,574,q)
);
},
{
closed = 1;
nodes = (
(182,487,o),
(118,474,q),
(42,532,l),
(47,545,l),
(96,541,o),
(144,541,q),
(185,541,o),
(205,543,q),
(253,546,l),
(514,561,o),
(710,580,q),
(759,584,o),
(815,596,o),
(839,611,q),
(843,613,o),
(848,610,q),
(940,557,l),
(937,542,l),
(613,524,o),
(240,493,q)
);
},
{
closed = 1;
nodes = (
(293,238,o),
(420,152,q),
(535,73,o),
(626,15,q),
(711,-38,o),
(850,-89,o),
(932,-102,q),
(931,-128,l),
(720,-149,l),
(717,-149,l),
(712,-149,o),
(705,-144,q),
(636,-79,o),
(373,123,o),
(237,221,q),
(213,238,o),
(153,252,o),
(113,250,q),
(107,264,l),
(209,307,l),
(250,266,o),
(294,237,q)
);
}
);
width = 1000;
}
);
unicode = 101180;
}
{
glyphname = u18B3F;
layers = (
{
layerId = master01;
shapes = (
{
closed = 1;
nodes = (
(547,684,l),
(540.333,655.333,o),
(537,621,o),
(537,581,cs),
(536,211,ls),
(534.667,43,o),
(534,-80.667,o),
(534,-160,c),
(521,-166,l),
(459,-98,ls),
(457.667,-96.667,o),
(457.667,-93.667,o),
(459,-89,cs),
(467,-71,o),
(471.667,-49.333,o),
(473,-24,cs),
(476.333,68,o),
(478,197.667,o),
(478,365,cs),
(478,470.333,o),
(477,561.333,o),
(475,638,cs),
(473.667,679.333,o),
(461.333,726,o),
(432,758,c),
(443,770,l),
(443,770,l)
);
},
{
closed = 1;
nodes = (
(212,275,ls),
(210.667,316.333,o),
(198.333,363,o),
(169,395,c),
(180,407,l),
(284,321,l),
(277.333,292.333,o),
(274,258,o),
(274,218,cs),
(274,118,l),
(215,114,l),
(215,114,l)
);
},
{
closed = 1;
nodes = (
(204.667,87,o),
(164,81.333,o),
(120,72,c),
(44,130,l),
(49,143,l),
(79.667,139.667,o),
(112.333,138,o),
(147,138,cs),
(160.333,138,o),
(180.333,138.667,o),
(207,140,cs),
(319,146,o),
(475.333,158,o),
(676,176,cs),
(713,179,ls),
(779.667,184.333,o),
(810,189.333,o),
(842,208,cs),
(844.667,209.333,o),
(846.667,209.5,o),
(848,208.5,cs),
(849.333,207.5,o),
(850.333,207,o),
(851,207,c),
(942,154,l),
(939,139,l),
(809,132.333,o),
(675,123.5,o),
(537,112.5,cs),
(399,101.5,o),
(315.333,95,o),
(286,93,cs),
(275.333,91.667,o),
(260.667,90.333,o),
(242,89,cs)
);
},
{
closed = 1;
nodes = (
(265,466.667,o),
(224.333,460.667,o),
(181,452,c),
(105,510,l),
(110,523,l),
(140.667,519.667,o),
(173.333,518,o),
(208,518,cs),
(221.333,518,o),
(241.333,518.667,o),
(268,520,cs),
(358,526,ls),
(385.333,528,o),
(421.5,530.5,o),
(466.5,533.5,cs),
(511.5,536.5,o),
(562.667,540.333,o),
(620,545,cs),
(684,550.333,o),
(717,556.333,o),
(749,575,cs),
(751.667,576.333,o),
(753.667,576.5,o),
(755,575.5,cs),
(756.333,574.5,o),
(757.333,574,o),
(758,574,c),
(849,523,l),
(846,508,l),
(721.333,501.333,o),
(540.333,488.667,o),
(303,470,cs)
);
}
);
width = 1000;
}
);
unicode = 101183;
}
{
glyphname = u18B41;
layers = (
{
layerId = master01;
shapes = (
{
closed = 1;
nodes = (
(243,403,l),
(323,406,o),
(367,410,q),
(597,431,o),
(657,439,q),
(724,449,o),
(761,486,q),
(767,492,o),
(773,486,q),
(829,427,l),
(835,421,o),
(829,415,q),
(804,392,l),
(797,386,o),
(795,382,o),
(794,375,q),
(787,300,o),
(749,132,o),
(723,75,q),
(682,88,l),
(701,148,o),
(728,312,o),
(729,377,q),
(729,389,l),
(729,394,o),
(725,397,o),
(719,396,q),
(605,384,l),
(382,360,l),
(306,353,o),
(250,343,q)
);
},
{
closed = 1;
nodes = (
(521,200,l),
(602,116,o),
(695,24,o),
(740,-12,q),
(786,-49,o),
(884,-91,o),
(952,-99,q),
(952,-125,l),
(762,-142,l),
(758,-142,l),
(748,-142,o),
(745,-137,q),
(697,-72,o),
(543,114,o),
(465,198,q),
(477,245,l)
);
},
{
closed = 1;
nodes = (
(218,546,o),
(152,532,q),
(76,590,l),
(81,603,l),
(127,598,o),
(179,598,q),
(199,598,o),
(239,600,q),
(481,613,o),
(694,632,q),
(744,636,o),
(799,647,o),
(823,661,q),
(827,663,o),
(831,660,o),
(832,660,q),
(923,607,l),
(920,592,l),
(523,570,o),
(274,549,q)
);
},
{
closed = 1;
nodes = (
(48,-140,l),
(237,-67,o),
(422,128,o),
(480,392,o),
(481,612,q),
(481,649,o),
(461,725,o),
(437,753,q),
(448,765,l),
(556,679,l),
(547,649,o),
(547,607,q),
(543,354,o),
(456,67,o),
(254,-103,o),
(60,-170,q)
);
},
{
closed = 1;
nodes = (
(292,389,l),
(283,350,o),
(283,286,q),
(283,33,l),
(270,27,l),
(208,95,l),
(205,98,o),
(208,104,q),
(223,136,o),
(223,169,q),
(223,220,l),
(223,303,o),
(222,343,q),
(221,373,o),
(202,439,o),
(181,463,q),
(191,475,l)
);
}
);
width = 1000;
}
);
unicode = 101185;
}
{
glyphname = u18B42;
layers = (
{
layerId = master01;
shapes = (
{
closed = 1;
nodes = (
(181.667,-112.333,o),
(141,-118,o),
(103,-126,c),
(28,-67,l),
(33,-54,l),
(73,-58,o),
(108.333,-60,o),
(139,-60,cs),
(151,-60,o),
(168.333,-59.333,o),
(191,-58,cs),
(331,-52,o),
(515.333,-41,o),
(744,-25,cs),
(810.667,-21,o),
(842.333,-15.667,o),
(873,3,cs),
(875.667,4.333,o),
(877.667,4.5,o),
(879,3.5,cs),
(880.333,2.5,o),
(881.333,2,o),
(882,2,c),
(973,-52,l),
(970,-67,l),
(725.333,-77.667,o),
(477,-91.667,o),
(225,-109,cs)
);
},
{
closed = 1;
nodes = (
(472,287,ls),
(472,489.667,o),
(471.667,604.667,o),
(471,632,cs),
(469.667,670.667,o),
(455.333,720,o),
(426,752,c),
(437,764,l),
(541,678,l),
(535,646.667,o),
(532,612.333,o),
(532,575,cs),
(532,-64,l),
(472,-71,l),
(472,-71,l)
);
},
{
closed = 1;
nodes = (
(502,46,l),
(596.667,118,o),
(681.333,213.333,o),
(720,284,cs),
(732.667,310.667,o),
(739,336.333,o),
(739,361,cs),
(739,368.333,o),
(738.667,373.667,o),
(738,377,c),
(753,381,l),
(807,269,l),
(799.667,262.333,o),
(792,254,o),
(784,244,cs),
(773.333,232,o),
(765,223.333,o),
(759,218,cs),
(685.667,144.667,o),
(613.333,78.333,o),
(520,21,c)
);
},
{
closed = 1;
nodes = (
(180,337,l),
(259.333,257.667,o),
(316.333,195.667,o),
(351,151,cs),
(353.667,148.333,o),
(354,144.333,o),
(352,139,c),
(330,46,l),
(308,44,l),
(269.333,142.667,o),
(231,219.667,o),
(159,321,c)
);
},
{
closed = 1;
nodes = (
(266.667,435,o),
(226,429.333,o),
(182,420,c),
(106,478,l),
(111,491,l),
(141.667,487.667,o),
(174.333,486,o),
(209,486,cs),
(222.333,486,o),
(242.333,486.667,o),
(269,488,cs),
(429,498,o),
(570.333,508.667,o),
(693,520,cs),
(759.667,525.333,o),
(790,530.333,o),
(822,549,cs),
(824.667,550.333,o),
(826.667,550.5,o),
(828,549.5,cs),
(829.333,548.5,o),
(830.333,548,o),
(831,548,c),
(922,495,l),
(919,480,l),
(719.667,468.667,o),
(514.667,454.333,o),
(304,437,cs)
);
}
);
width = 1000;
}
);
unicode = 101186;
}
{
glyphname = u18B43;
layers = (
{
layerId = master01;
shapes = (
{
closed = 1;
nodes = (
(470,292,ls),
(470,491.333,o),
(469.667,604.667,o),
(469,632,cs),
(467.667,670.667,o),
(453.333,720,o),
(424,752,c),
(435,764,l),
(539,678,l),
(533,646.667,o),
(530,612.333,o),
(530,575,cs),
(530,-54,l),
(470,-61,l),
(470,-61,l)
);
},
{
closed = 1;
nodes = (
(274.333,467,o),
(233.333,461.333,o),
(188,452,c),
(111,510,l),
(116,523,l),
(146.667,519.667,o),
(179.667,518,o),
(215,518,cs),
(229,518,o),
(249.333,518.667,o),
(276,520,cs),
(345.333,523.333,o),
(471.667,531.667,o),
(655,545,cs),
(691,548,ls),
(759,554.667,o),
(789,558.333,o),
(821,577,cs),
(823.667,578.333,o),
(826.667,578,o),
(830,576,cs),
(922,523,l),
(919,508,l),
(643,493.333,o),
(543,487.667,o),
(311,469,cs)
);
},
{
closed = 1;
nodes = (
(210,-81,l),
(210,37,o),
(208.667,133,o),
(206,207,cs),
(204.667,247,o),
(193,295,o),
(165,327,c),
(175,339,l),
(278,253,l),
(271.333,224.333,o),
(268,190,o),
(268,150,cs),
(268,-74,l),
(268,-74,l)
);
},
{
closed = 1;
nodes = (
(353,273,ls),
(567.667,294.333,o),
(681.667,306.333,o),
(695,309,cs),
(723.667,315,o),
(745.333,325.667,o),
(760,341,c),
(764,343.667,o),
(767.667,343.667,o),
(771,341,cs),
(823,298,l),
(826.333,296,o),
(826.333,293,o),
(823,289,cs),
(809,270,ls),
(805.667,265.333,o),
(803.333,260.333,o),
(802,255,cs),
(796.667,233.667,o),
(785,-8.667,o),
(785,-46,c),
(723,-55,l),
(728.333,41,o),
(735.667,190.333,o),
(737,249,cs),
(737,253,ls),
(737,255.667,o),
(734.667,257,o),
(730,257,cs),
(620.667,247.667,o),
(294,217,o),
(238,209,c),
(239,261,l),
(239,261,l)
);
},
{
closed = 1;
nodes = (
(181.667,-112.333,o),
(141,-118,o),
(103,-126,c),
(28,-67,l),
(33,-54,l),
(73,-58,o),
(108.333,-60,o),
(139,-60,cs),
(151,-60,o),
(168.333,-59.333,o),
(191,-58,cs),
(331,-52,o),
(515.333,-41,o),
(744,-25,cs),
(810.667,-21,o),
(842.333,-15.667,o),
(873,3,cs),
(875.667,4.333,o),
(877.667,4.5,o),
(879,3.5,cs),
(880.333,2.5,o),
(881.333,2,o),
(882,2,c),
(973,-52,l),
(970,-67,l),
(725.333,-77.667,o),
(477,-91.667,o),
(225,-109,cs)
);
}
);
width = 1000;
}
);
unicode = 101187;
}
{
glyphname = u18B46;
layers = (
{
layerId = master01;
shapes = (
{
closed = 1;
nodes = (
(598,387,l),
(701,238,o),
(745,180,q),
(795,115,o),
(897,56,o),
(969,45,q),
(969,22,l),
(782,11,l),
(770,11,o),
(766,18,q),
(606,301,o),
(512,446,q),
(534,479,l)
);
},
{
closed = 1;
nodes = (
(485,418,l),
(406,271,o),
(181,52,o),
(42,-39,q),
(25,-17,l),
(165,84,o),
(392,342,o),
(446,480,q),
(485,456,l)
);
},
{
closed = 1;
nodes = (
(545,683,l),
(535,640,o),
(535,580,q),
(534,215,l),
(532,-33,o),
(532,-151,q),
(519,-157,l),
(457,-89,l),
(455,-87,o),
(457,-80,q),
(469,-53,o),
(471,-15,q),
(476,123,o),
(476,376,q),
(476,534,o),
(473,637,q),
(472,668,o),
(452,733,o),
(430,757,q),
(441,769,l)
);
},
{
closed = 1;
nodes = (
(223,418,o),
(170,407,q),
(92,465,l),
(97,478,l),
(138,473,o),
(187,473,q),
(222,473,o),
(257,476,q),
(367,482,o),
(418,486,q),
(532,492,o),
(696,503,q),
(745,507,o),
(802,519,o),
(826,533,q),
(830,535,o),
(835,532,q),
(928,480,l),
(925,465,l),
(752,455,l),
(642,450,o),
(424,436,o),
(293,424,q)
);
}
);
width = 1000;
}
);
unicode = 101190;
}
{
glyphname = u18B47;
layers = (
{
layerId = master01;
shapes = (
{
closed = 1;
nodes = (
(526,477,l),
(586.667,393.667,o),
(655,306.333,o),
(731,215,cs),
(803,128.333,o),
(861,94,o),
(969,78,c),
(969,53,l),
(780,41,ls),
(774,41,o),
(769.333,43,o),
(766,47,c),
(726.667,111.667,o),
(669.667,198.667,o),
(595,308,cs),
(557.667,362.667,o),
(527.333,408,o),
(504,444,c)
);
},
{
closed = 1;
nodes = (
(375,-108.333,o),
(335.667,-113.667,o),
(301,-121,c),
(227,-64,l),
(232,-51,l),
(262.667,-54.333,o),
(294,-56,o),
(326,-56,cs),
(338,-56,o),
(357.333,-55.333,o),
(384,-54,cs),
(469,-48,ls),
(478.333,-46.667,o),
(492.333,-45.333,o),
(511,-44,cs),
(572.333,-38.667,o),
(601.667,-32.667,o),
(635,-14,cs),
(638.333,-12.667,o),
(641.333,-13,o),
(644,-15,cs),
(735,-69,l),
(732,-84,l),
(623.333,-90,o),
(519,-97,o),
(419,-105,cs)
);
},
{
closed = 1;
nodes = (
(463,-76,l),
(463,112,o),
(461.667,561.333,o),
(459,632,cs),
(457.667,672,o),
(446,720,o),
(418,752,c),
(428,764,l),
(534,678,l),
(527.333,649.333,o),
(524,615,o),
(524,575,cs),
(525,-69,l),
(525,-69,l)
);
},
{
closed = 1;
nodes = (
(227.333,415.333,o),
(186.667,409.333,o),
(144,400,c),
(67,458,l),
(72,471,l),
(116.667,467.667,o),
(151.667,466,o),
(177,466,cs),
(189.667,466,o),
(208,466.667,o),
(232,468,cs),
(278,471.333,o),
(350,476.333,o),
(448,483,cs),
(533.333,488.333,o),
(618.333,494.667,o),
(703,502,cs),
(768.333,507.333,o),
(802,513.333,o),
(834,532,cs),
(836.667,533.333,o),
(839.667,533,o),
(843,531,cs),
(935,478,l),
(932,463,l),
(889.333,460.333,o),
(860,458.667,o),
(844,458,cs),
(822.667,456.667,o),
(755.167,452.5,o),
(641.5,445.5,cs),
(527.833,438.5,o),
(402.667,429.333,o),
(266,418,cs)
);
},
{
closed = 1;
nodes = (
(472,462,l),
(472,427,l),
(369.333,251.667,o),
(226,97,o),
(42,-37,c),
(25,-14,l),
(199.667,134.667,o),
(327.333,287.667,o),
(408,445,c)
);
}
);
width = 1000;
}
);
unicode = 101191;
}
{
glyphname = u18B48;
layers = (
{
layerId = master01;
shapes = (
{
closed = 1;
nodes = (
(538,536,l),
(620.667,434,o),
(686.667,354,o),
(736,296,cs),
(812,208,o),
(873.333,159,o),
(968,147,c),
(968,124,l),
(806,112,l),
(801,112,ls),
(793,112,o),
(788,114,o),
(786,118,cs),
(711.333,238,o),
(639.333,336.333,o),
(514,503,c)
);
},
{
closed = 1;
nodes = (
(471,524,l),
(471,489,l),
(368.333,313,o),
(225.333,167.667,o),
(42,53,c),
(27,78,l),
(199.667,206,o),
(324.333,349,o),
(401,507,c)
);
},
{
closed = 1;
nodes = (
(468,-73,l),
(468,115,o),
(466.667,564.333,o),
(464,635,cs),
(462.667,675,o),
(451,723,o),
(423,755,c),
(433,767,l),
(539,681,l),
(532.333,652.333,o),
(529,618,o),
(529,578,cs),
(529,-66,l),
(529,-66,l)
);
},
{
closed = 1;
nodes = (
(296.667,-116.333,o),
(265.667,-121,o),
(239,-127,c),
(170,-71,l),
(175,-59,l),
(203,-62.333,o),
(231.333,-64,o),
(260,-64,cs),
(278,-64,o),
(291,-63.667,o),
(299,-63,cs),
(347,-60,ls),
(498.333,-50.667,o),
(599.667,-42.333,o),
(651,-35,cs),
(680.333,-30.333,o),
(706,-22.667,o),
(728,-12,cs),
(730.667,-10.667,o),
(733.667,-11,o),
(737,-13,cs),
(820,-58,l),
(817,-75,l),
(745,-79,o),
(444,-102.333,o),
(332,-113,cs)
);
},
{
closed = 1;
nodes = (
(412.333,123.667,o),
(380.333,118.333,o),
(349,111,c),
(278,162,l),
(283,174,l),
(309,172,o),
(331.667,171,o),
(351,171,cs),
(367.667,171,o),
(387.333,171.667,o),
(410,173,cs),
(478,178.333,o),
(527.333,183.333,o),
(558,188,cs),
(580,191.333,o),
(596,195.333,o),
(606,200,cs),
(616,204.667,o),
(622.333,207.667,o),
(625,209,cs),
(627.667,210.333,o),
(630.667,210.333,o),
(634,209,cs),
(720,167,l),
(717,150,l),
(639.667,146,o),
(499.667,133.667,o),
(445,127,cs)
);
},
{
closed = 1;
nodes = (
(219.333,464.333,o),
(178.667,458,o),
(144,450,c),
(66,507,l),
(71,520,l),
(103,518,o),
(131.667,517,o),
(157,517,cs),
(174.333,517,o),
(199,517.667,o),
(231,519,cs),
(415,533,o),
(568.333,545.333,o),
(691,556,cs),
(752.333,561.333,o),
(787.667,569,o),
(821,589,cs),
(823.667,590.333,o),
(826.667,590,o),
(830,588,cs),
(923,536,l),
(920,521,l),
(816,513,o),
(756.667,508.333,o),
(742,507,cs),
(588.667,495,o),
(442,483.667,o),
(266,469,cs)
);
}
);
width = 1000;
}
);
unicode = 101192;
}
{
glyphname = u18B4C;
layers = (
{
layerId = master01;
shapes = (
{
closed = 1;
nodes = (
(509,514,l),
(431,405,o),
(193,229,o),
(49,173,q),
(37,199,l),
(179,271,o),
(412,468,o),
(481,581,q)
);
},
{
closed = 1;
nodes = (
(535,556,l),
(658,454,o),
(768,382,q),
(823,346,o),
(918,305,o),
(972,303,q),
(974,278,l),
(814,253,l),
(809,253,l),
(801,253,o),
(797,257,q),
(736,319,o),
(572,471,o),
(509,523,q)
);
},
{
closed = 1;
nodes = (
(312,182,l),
(386,190,o),
(615,218,o),
(634,222,q),
(677,231,o),
(699,254,q),
(705,258,o),
(710,254,q),
(762,211,l),
(767,208,o),
(762,202,q),
(748,183,l),
(743,176,o),
(741,168,q),
(737,150,o),
(717,-27,o),
(717,-47,q),
(655,-56,l),
(659,-17,l),
(676,151,o),
(676,162,q),
(676,166,l),
(676,170,o),
(669,170,q),
(646,169,o),
(388,140,o),
(311,130,q)
);
},
{
closed = 1;
nodes = (
(255,514,o),
(192,500,q),
(114,558,l),
(119,571,l),
(164,567,o),
(209,567,q),
(233,567,o),
(279,569,q),
(466,582,o),
(660,600,q),
(708,604,o),
(765,616,o),
(789,630,q),
(793,632,o),
(798,629,q),
(891,577,l),
(888,562,l),
(730,552,o),
(481,534,o),
(314,519,q)
);
},
{
closed = 1;
nodes = (
(545,-24,l),
(596,-19,o),
(651,-9,o),
(675,5,q),
(679,7,o),
(684,4,q),
(776,-49,l),
(773,-64,l),
(561,-76,o),
(323,-95,q),
(324,-43,l)
);
},
{
closed = 1;
nodes = (
(355,168,l),
(346,129,o),
(346,65,q),
(345,-145,l),
(332,-151,l),
(270,-83,l),
(267,-80,o),
(270,-74,q),
(285,-43,o),
(285,-9,q),
(285,122,l),
(285,151,o),
(265,218,o),
(244,242,q),
(254,254,l)
);
},
{
closed = 1;
nodes = (
(468,365,l),
(468,585,o),
(466,635,q),
(465,665,o),
(446,731,o),
(425,755,q),
(435,767,l),
(540,681,l),
(530,638,o),
(530,578,q),
(530,196,l),
(468,189,l)
);
}
);
width = 1000;
}
);
unicode = 101196;
}
{
glyphname = u18B4F;
layers = (
{
layerId = master01;
shapes = (
{
closed = 1;
nodes = (
(161,-93,o),
(104,-105,q),
(29,-46,l),
(34,-33,l),
(94,-39,o),
(140,-39,q),
(158,-39,o),
(192,-37,q),
(399,-28,o),
(746,-4,q),
(796,-1,o),
(852,10,o),
(875,24,q),
(879,26,o),
(883,23,o),
(884,23,q),
(975,-31,l),
(972,-46,l),
(602,-62,o),
(226,-88,q)
);
},
{
closed = 1;
nodes = (
(562,305,l),
(562,599,o),
(561,640,q),
(560,669,o),
(538,736,o),
(516,760,q),
(527,772,l),
(631,686,l),
(622,639,o),
(622,583,q),
(622,-35,l),
(562,-42,l)
);
},
{
closed = 1;
nodes = (
(372,302,l),
(372,601,o),
(371,642,q),
(370,671,o),
(348,738,o),
(326,762,q),
(337,774,l),
(441,688,l),
(432,641,o),
(432,585,q),
(432,-44,l),
(372,-51,l)
);
},
{
closed = 1;
nodes = (
(228,476,o),
(160,462,q),
(83,520,l),
(88,533,l),
(134,528,o),
(187,528,q),
(208,528,o),
(248,530,q),
(340,535,o),
(606,555,q),
(644,558,l),
(695,563,o),
(750,573,o),
(774,587,q),
(778,589,o),
(783,586,q),
(875,533,l),
(872,518,l),
(689,508,o),
(463,493,o),
(283,479,q)
);
},
{
closed = 1;
nodes = (
(581,140,l),
(645,191,o),
(750,310,o),
(776,359,q),
(795,399,o),
(795,436,q),
(795,447,o),
(794,452,q),
(809,456,l),
(863,344,l),
(852,334,o),
(840,319,q),
(824,301,o),
(815,293,q),
(700,178,o),
(599,111,q)
);
},
{
closed = 1;
nodes = (
(131,397,l),
(173,349,o),
(256,235,o),
(286,186,q),
(288,181,o),
(287,175,q),
(266,55,l),
(248,53,l),
(225,139,o),
(159,299,o),
(110,382,q)
);
}
);
width = 1000;
}
);
unicode = 101199;
}
{
glyphname = u18B51;
layers = (
{
layerId = master01;
shapes = (
{
closed = 1;
nodes = (
(372,190,o),
(317,190,q),
(309,190,o),
(287,188,q),
(281,202,l),
(383,245,l),
(410,216,o),
(444,191,q),
(493,156,o),
(604,79,q),
(614,72,o),
(634,58,o),
(643,52,q),
(736,-12,o),
(837,-69,o),
(919,-92,o),
(982,-98,q),
(982,-124,l),
(811,-144,l),
(807,-144,l),
(797,-144,o),
(789,-138,q),
(686,-53,o),
(529,70,o),
(411,159,q)
);
},
{
closed = 1;
nodes = (
(295,496,o),
(241,485,q),
(165,542,l),
(170,555,l),
(216,550,o),
(268,550,q),
(288,550,o),
(328,552,q),
(453,560,o),
(603,575,q),
(623,577,l),
(670,582,o),
(728,595,o),
(752,609,q),
(756,610,o),
(761,608,q),
(852,559,l),
(849,544,l),
(709,534,o),
(495,516,o),
(363,503,q)
);
},
{
closed = 1;
nodes = (
(559,394,o),
(560,363,q),
(560,348,o),
(571,348,q),
(605,348,o),
(633,353,q),
(702,364,o),
(738,400,q),
(744,406,o),
(749,400,q),
(804,338,l),
(810,333,o),
(804,327,q),
(784,309,l),
(778,304,o),
(772,295,o),
(770,289,q),
(731,201,o),
(572,26,o),
(338,-122,o),
(195,-167,q),
(183,-136,l),
(304,-89,o),
(515,54,o),
(663,216,o),
(693,291,q),
(696,300,o),
(696,304,q),
(696,312,o),
(684,310,q),
(570,298,l),
(561,297,o),
(549,289,q),
(519,268,l),
(512,264,o),
(508,268,q),
(458,330,l),
(453,336,o),
(458,341,q),
(491,374,o),
(500,416,q),
(509,457,o),
(509,633,q),
(509,663,o),
(489,731,o),
(468,756,q),
(479,767,l),
(578,679,l),
(568,641,o),
(565,574,q)
);
},
{
closed = 1;
nodes = (
(254,191,o),
(215,65,o),
(134,-42,o),
(64,-89,q),
(47,-68,l),
(129,-2,o),
(200,173,o),
(203,291,q),
(204,333,o),
(188,394,o),
(166,424,q),
(178,436,l),
(279,352,l),
(271,328,o),
(265,281,q)
);
}
);
width = 1000;
}
);
unicode = 101201;
}
{
glyphname = u18B52;
layers = (
{
layerId = master01;
shapes = (
{
closed = 1;
nodes = (
(963,-102,l),
(786,-114,l),
(779,-114,o),
(773,-106,q),
(720,-37,o),
(581,116,o),
(514,181,q),
(542,211,l),
(625,129,o),
(712,51,q),
(785,-14,o),
(895,-71,o),
(963,-76,q)
);
},
{
closed = 1;
nodes = (
(455,396,l),
(488,398,o),
(617,412,o),
(665,418,q),
(734,428,o),
(770,464,q),
(775,469,o),
(779,464,q),
(837,405,l),
(842,401,o),
(837,396,q),
(815,377,o),
(795,353,q),
(750,301,o),
(660,234,o),
(562,186,o),
(479,153,q),
(462,184,l),
(568,233,o),
(679,307,o),
(725,359,q),
(732,367,o),
(732,371,q),
(732,376,o),
(719,374,q),
(477,343,l)
);
},
{
closed = 1;
nodes = (
(441,661,o),
(413,737,o),
(379,760,q),
(390,772,l),
(516,686,l),
(510,661,o),
(505,620,o),
(505,583,q),
(505,174,o),
(515,5,q),
(516,-26,o),
(511,-60,q),
(505,-92,o),
(488,-131,o),
(475,-151,q),
(468,-161,o),
(460,-153,q),
(384,-75,o),
(273,-5,q),
(286,20,l),
(424,-46,l),
(430,-48,o),
(431,-48,q),
(441,-48,o),
(443,-29,q),
(448,17,o),
(448,184,q),
(448,310,o),
(444,579,o),
(442,625,q)
);
},
{
closed = 1;
nodes = (
(227,499,o),
(159,485,q),
(82,543,l),
(87,556,l),
(133,551,o),
(186,551,q),
(207,551,o),
(247,553,q),
(377,560,o),
(605,577,q),
(619,579,o),
(651,581,q),
(702,586,o),
(757,596,o),
(781,610,q),
(785,612,o),
(790,609,q),
(882,556,l),
(879,541,l),
(694,531,o),
(463,516,o),
(282,502,q)
);
},
{
closed = 1;
nodes = (
(312,354,o),
(265,131,o),
(154,-60,o),
(52,-145,q),
(32,-125,l),
(123,-32,o),
(221,168,o),
(259,408,o),
(259,576,q),
(259,607,o),
(239,673,o),
(217,697,q),
(228,709,l),
(333,623,l),
(326,595,o),
(322,519,q)
);
}
);
width = 1000;
}
);
unicode = 101202;
}
{
glyphname = u18B53;
layers = (
{
layerId = master01;
shapes = (
{
closed = 1;
nodes = (
(419,253,l),
(280,53,o),
(44,-91,q),
(28,-69,l),
(267,115,o),
(385,324,q)
);
},
{
closed = 1;
nodes = (
(626,264,l),
(791,142,o),
(915,9,q),
(919,5,o),
(919,-1,q),
(910,-119,l),
(889,-119,l),
(833,-18,o),
(691,166,o),
(611,239,q)
);
},
{
closed = 1;
nodes = (
(156,646,l),
(243,568,o),
(304,488,q),
(307,484,o),
(305,477,q),
(285,396,l),
(265,396,l),
(244,449,o),
(170,588,o),
(138,631,q)
);
},
{
closed = 1;
nodes = (
(216,282,o),
(148,268,q),
(71,326,l),
(76,339,l),
(122,334,o),
(175,334,q),
(196,334,o),
(236,336,q),
(337,342,o),
(649,365,o),
(718,370,q),
(769,375,o),
(824,385,o),
(848,399,q),
(852,401,o),
(857,398,q),
(949,345,l),
(946,330,l),
(638,314,o),
(271,285,q)
);
},
{
closed = 1;
nodes = (
(608,418,l),
(664,461,o),
(755,560,o),
(781,603,q),
(792,621,o),
(807,671,o),
(805,695,q),
(820,698,l),
(867,583,l),
(842,559,l),
(817,535,l),
(713,444,o),
(615,385,q)
);
},
{
closed = 1;
nodes = (
(447,674,l),
(437,631,o),
(437,571,q),
(436,206,l),
(434,-44,o),
(434,-160,q),
(421,-166,l),
(359,-98,l),
(357,-96,o),
(359,-89,q),
(371,-62,o),
(373,-24,q),
(378,113,o),
(378,359,q),
(378,514,o),
(375,628,q),
(374,659,o),
(354,724,o),
(332,748,q),
(343,760,l)
);
},
{
closed = 1;
nodes = (
(645,668,l),
(635,625,o),
(635,565,q),
(634,203,l),
(632,-43,o),
(632,-160,q),
(619,-166,l),
(557,-98,l),
(555,-96,o),
(557,-89,q),
(569,-62,o),
(571,-24,q),
(576,113,o),
(576,355,q),
(576,508,o),
(573,622,q),
(572,653,o),
(552,718,o),
(530,742,q),
(541,754,l)
);
}
);
width = 1000;
}
);
unicode = 101203;
}
{
glyphname = u18B55;
layers = (
{
layerId = master01;
shapes = (
{
closed = 1;
nodes = (
(194.667,-46.333,o),
(154,-52,o),
(116,-60,c),
(40,-5,l),
(45,8,l),
(72.333,5.333,o),
(101,4,o),
(131,4,cs),
(146.333,4,o),
(170,4.667,o),
(202,6,cs),
(272.667,10.667,o),
(341,15,o),
(407,19,cs),
(473,23,o),
(538.333,27.333,o),
(603,32,cs),
(756,43,ls),
(801.333,45.667,o),
(844.333,56.333,o),
(885,75,cs),
(889.667,77,o),
(893,77,o),
(895,75,cs),
(958,14,ls),
(960.667,12,o),
(960.667,9.667,o),
(958,7,cs),
(938,-17,o),
(806.333,-141.667,o),
(769,-171,c),
(745,-147,l),
(790.333,-100.333,o),
(850,-29,o),
(862,-9,cs),
(865.333,-3.667,o),
(864.333,-1,o),
(859,-1,cs),
(639,-13,o),
(432,-27,o),
(238,-43,cs)
);
},
{
closed = 1;
nodes = (
(269,319.667,o),
(228.333,313.667,o),
(185,305,c),
(109,360,l),
(114,373,l),
(144.667,369.667,o),
(177.333,368,o),
(212,368,cs),
(225.333,368,o),
(245.333,368.667,o),
(272,370,cs),
(415,379,ls),
(539,387,o),
(621.667,393,o),
(663,397,cs),
(729.667,402.333,o),
(760,407.333,o),
(792,426,c),
(795.333,427.333,o),
(798.333,427.333,o),
(801,426,cs),
(892,376,l),
(889,361,l),
(635.667,346.333,o),
(441.667,333.667,o),
(307,323,cs)
);
},
{
closed = 1;
nodes = (
(465,374,ls),
(465,492.667,o),
(464.333,576,o),
(463,624,cs),
(461.667,662.667,o),
(446.333,712,o),
(417,744,c),
(428,756,l),
(536,670,l),
(529.333,641.333,o),
(526,607,o),
(526,567,cs),
(526,4,l),
(464,-3,l),
(464,-3,l)
);
}
);
width = 1000;
}
);
unicode = 101205;
}
{
glyphname = u18B57;
layers = (
{
layerId = master01;
shapes = (
{
closed = 1;
nodes = (
(617,206,l),
(764,106,o),
(913,-38,q),
(917,-42,o),
(915,-49,q),
(895,-175,l),
(878,-179,l),
(827,-86,o),
(676,111,o),
(600,182,q)
);
},
{
closed = 1;
nodes = (
(31,-152,l),
(136,-77,o),
(295,71,o),
(329,128,q),
(340,146,o),
(356,196,o),
(354,220,q),
(369,223,l),
(419,93,l),
(394,70,l),
(369,46,l),
(309,-8,o),
(133,-132,o),
(45,-175,q)
);
},
{
closed = 1;
nodes = (
(198,258,o),
(132,244,q),
(56,302,l),
(61,315,l),
(107,310,o),
(159,310,q),
(179,310,o),
(219,312,q),
(483,326,o),
(734,348,q),
(784,352,o),
(839,363,o),
(863,377,q),
(867,379,o),
(871,376,o),
(872,376,q),
(963,323,l),
(960,308,l),
(617,290,o),
(254,261,q)
);
},
{
closed = 1;
nodes = (
(269,493,o),
(204,480,q),
(128,538,l),
(133,551,l),
(179,546,o),
(231,546,q),
(251,546,o),
(291,548,q),
(365,553,l),
(545,565,o),
(640,574,q),
(688,578,o),
(745,590,o),
(769,604,q),
(773,606,o),
(777,603,o),
(778,603,q),
(869,552,l),
(866,537,l),
(682,526,o),
(326,498,q)
);
},
{
closed = 1;
nodes = (
(482,304,l),
(482,520,o),
(478,631,q),
(477,662,o),
(457,727,o),
(435,751,q),
(446,763,l),
(560,677,l),
(550,634,o),
(550,574,q),
(550,311,l)
);
}
);
width = 1000;
}
);
unicode = 101207;
}
{
glyphname = u18B58;
layers = (
{
layerId = master01;
shapes = (
{
closed = 1;
nodes = (
(670,182,l),
(781,92,o),
(884,-30,q),
(887,-35,o),
(886,-42,q),
(873,-149,l),
(852,-153,l),
(759,27,o),
(651,165,q)
);
},
{
closed = 1;
nodes = (
(477,157,l),
(562,46,o),
(612,-41,q),
(615,-49,o),
(613,-55,q),
(582,-151,l),
(560,-153,l),
(512,21,o),
(456,145,q)
);
},
{
closed = 1;
nodes = (
(294,-9,o),
(192,-139,o),
(152,-177,q),
(134,-175,l),
(107,-84,l),
(106,-78,o),
(110,-77,q),
(136,-69,o),
(154,-54,q),
(215,-5,o),
(291,106,o),
(294,163,q),
(316,163,l),
(320,105,o),
(320,89,q),
(320,53,o),
(310,29,q)
);
},
{
closed = 1;
nodes = (
(199,239,o),
(133,225,q),
(57,283,l),
(62,296,l),
(108,291,o),
(160,291,q),
(180,291,o),
(220,293,q),
(523,310,o),
(733,329,q),
(783,333,o),
(838,344,o),
(862,358,q),
(866,360,o),
(870,357,o),
(871,357,q),
(962,304,l),
(959,289,l),
(612,271,o),
(255,242,q)
);
},
{
closed = 1;
nodes = (
(269,486,o),
(204,473,q),
(128,528,l),
(133,541,l),
(179,536,o),
(231,536,q),
(251,536,o),
(291,538,q),
(528,554,o),
(641,565,q),
(689,569,o),
(746,581,o),
(770,595,q),
(774,597,o),
(778,594,o),
(779,594,q),
(870,544,l),
(867,529,l),
(634,516,o),
(326,491,q)
);
},
{
closed = 1;
nodes = (
(483,304,l),
(483,520,o),
(479,631,q),
(478,662,o),
(458,727,o),
(436,751,q),
(447,763,l),
(559,677,l),
(549,634,o),
(549,574,q),
(549,311,l)
);
}
);
width = 1000;
}
);
unicode = 101208;
}
{
glyphname = u18B5A;
layers = (
{
layerId = master01;
shapes = (
{
closed = 1;
nodes = (
(217,279,o),
(167,269,q),
(91,324,l),
(96,337,l),
(143,332,o),
(179,332,q),
(190,332,o),
(253,335,q),
(444,347,l),
(688,362,o),
(709,365,q),
(753,370,o),
(810,387,o),
(834,407,q),
(839,412,o),
(843,407,q),
(899,351,l),
(903,347,o),
(898,342,q),
(874,321,l),
(867,315,o),
(865,311,o),
(864,304,q),
(845,25,o),
(813,-87,q),
(795,-146,o),
(782,-164,q),
(777,-170,o),
(769,-164,q),
(686,-85,o),
(552,-15,q),
(562,7,l),
(739,-61,l),
(741,-62,o),
(745,-62,q),
(754,-62,o),
(755,-52,q),
(770,7,o),
(797,228,o),
(798,314,q),
(798,323,o),
(791,323,q),
(433,301,o),
(268,285,q)
);
},
{
closed = 1;
nodes = (
(287,484,o),
(222,471,q),
(146,526,l),
(151,539,l),
(197,534,o),
(249,534,q),
(269,534,o),
(309,536,q),
(442,545,o),
(517,553,q),
(593,559,l),
(641,563,o),
(698,575,o),
(722,589,q),
(727,591,o),
(731,588,q),
(822,538,l),
(819,523,l),
(580,510,o),
(344,489,q)
);
},
{
closed = 1;
nodes = (
(93,-58,l),
(167,-8,o),
(290,112,o),
(320,162,q),
(331,180,o),
(346,230,o),
(344,254,q),
(359,257,l),
(406,142,l),
(390,128,o),
(356,94,q),
(259,-1,o),
(110,-86,q)
);
},
{
closed = 1;
nodes = (
(523,240,l),
(622,179,o),
(671,135,q),
(673,134,o),
(675,126,o),
(674,123,q),
(653,32,l),
(630,26,l),
(609,75,o),
(545,178,o),
(507,224,q)
);
},
{
closed = 1;
nodes = (
(448,320,l),
(448,548,o),
(445,631,q),
(444,662,o),
(424,727,o),
(402,751,q),
(413,763,l),
(522,677,l),
(512,634,o),
(512,574,q),
(512,327,l)
);
}
);
width = 1000;
}
);
unicode = 101210;
}
{
glyphname = u18B5B;
layers = (
{
layerId = master01;
shapes = (
{
closed = 1;
nodes = (
(109,-149,l),
(322,4,o),
(381,209,q),
(395,259,o),
(395,300,q),
(395,333,o),
(386,351,q),
(411,355,l),
(478,282,l),
(468,258,o),
(459,228,q),
(422,95,o),
(255,-99,o),
(126,-174,q)
);
},
{
closed = 1;
nodes = (
(410,173,l),
(578,185,o),
(644,193,q),
(689,199,o),
(723,214,o),
(750,237,q),
(756,243,o),
(762,237,q),
(822,180,l),
(827,176,o),
(822,171,q),
(800,152,l),
(793,147,o),
(789,132,q),
(773,62,o),
(746,-31,o),
(725,-76,q),
(713,-99,o),
(674,-146,o),
(653,-159,q),
(643,-166,o),
(639,-159,q),
(576,-73,o),
(495,-2,q),
(510,16,l),
(641,-64,l),
(645,-66,o),
(647,-66,q),
(652,-66,o),
(655,-62,q),
(675,-37,o),
(714,87,o),
(721,142,q),
(721,143,l),
(721,151,o),
(712,149,q),
(605,141,l),
(477,132,o),
(397,124,q)
);
},
{
closed = 1;
nodes = (
(200,309,o),
(134,295,q),
(58,353,l),
(63,366,l),
(109,361,o),
(161,361,q),
(181,361,o),
(221,363,q),
(493,379,o),
(732,400,q),
(782,404,o),
(837,415,o),
(861,429,q),
(865,431,o),
(869,428,o),
(870,428,q),
(961,375,l),
(958,360,l),
(648,344,o),
(256,312,q)
);
},
{
closed = 1;
nodes = (
(319,512,o),
(254,499,q),
(178,554,l),
(183,567,l),
(229,562,o),
(281,562,q),
(301,562,o),
(341,564,q),
(428,570,o),
(571,581,o),
(642,587,q),
(690,591,o),
(747,603,o),
(771,617,q),
(775,619,o),
(779,616,o),
(780,616,q),
(871,566,l),
(868,551,l),
(659,540,o),
(376,517,q)
);
},
{
closed = 1;
nodes = (
(484,351,l),
(484,527,o),
(480,638,q),
(479,669,o),
(460,734,o),
(440,758,q),
(450,770,l),
(557,684,l),
(547,641,o),
(547,581,q),
(547,358,l)
);
}
);
width = 1000;
}
);
unicode = 101211;
}
{
glyphname = u18B5C;
layers = (
{
layerId = master01;
shapes = (
{
closed = 1;
nodes = (
(299,518,o),
(238,505,q),
(161,559,l),
(166,572,l),
(214,568,o),
(260,568,q),
(282,568,o),
(324,570,q),
(519,583,o),
(610,592,q),
(658,596,o),
(715,608,o),
(739,623,q),
(744,625,o),
(748,622,q),
(839,572,l),
(836,557,l),
(566,542,o),
(359,524,q)
);
},
{
closed = 1;
nodes = (
(167,109,o),
(113,97,q),
(37,155,l),
(42,168,l),
(86,164,o),
(131,164,q),
(154,164,o),
(200,166,q),
(315,173,o),
(513,191,q),
(607,200,o),
(732,210,q),
(782,214,o),
(837,225,o),
(861,239,q),
(865,241,o),
(870,238,q),
(961,186,l),
(958,171,l),
(782,162,o),
(454,136,o),
(235,115,q)
);
},
{
closed = 1;
nodes = (
(548,678,l),
(539,639,o),
(539,575,q),
(538,182,l),
(526,175,l),
(464,244,l),
(460,248,o),
(464,253,q),
(472,268,o),
(477,290,o),
(478,307,q),
(480,377,o),
(480,421,q),
(480,480,o),
(476,632,q),
(475,663,o),
(455,728,o),
(434,752,q),
(445,764,l)
);
},
{
closed = 1;
nodes = (
(323,367,l),
(314,328,o),
(314,264,q),
(311,38,o),
(310,-158,q),
(298,-165,l),
(236,-96,l),
(232,-92,o),
(236,-87,q),
(250,-60,o),
(251,-26,q),
(254,45,o),
(254,155,q),
(254,225,o),
(252,321,q),
(251,352,o),
(232,418,o),
(211,442,q),
(222,453,l)
);
},
{
closed = 1;
nodes = (
(776,402,l),
(766,365,o),
(766,299,q),
(760,-158,l),
(748,-165,l),
(687,-95,l),
(683,-91,o),
(687,-86,q),
(700,-63,o),
(702,-26,q),
(706,92,o),
(706,203,q),
(706,266,o),
(704,356,q),
(704,386,o),
(685,452,o),
(664,477,q),
(675,489,l)
);
}
);
width = 1000;
}
);
unicode = 101212;
}
{
glyphname = u18B5D;
layers = (
{
layerId = master01;
shapes = (
{
closed = 1;
nodes = (
(214.333,-69.333,o),
(172,-75.333,o),
(118,-84,c),
(38,-25,l),
(43,-12,l),
(81,-16.667,o),
(117,-19,o),
(151,-19,cs),
(163.667,-19,o),
(182.667,-18.333,o),
(208,-17,cs),
(402.667,-5,o),
(552,6,o),
(720,18,cs),
(792,23.333,o),
(825.333,29.333,o),
(860,48,cs),
(862,49.333,o),
(864.667,49,o),
(868,47,cs),
(964,-7,l),
(961,-21,l),
(684.333,-35,o),
(445.667,-50,o),
(245,-66,cs)
);
},
{
closed = 1;
nodes = (
(281.667,494.333,o),
(241,488.333,o),
(205,481,c),
(129,536,l),
(134,549,l),
(164.667,545.667,o),
(197.333,544,o),
(232,544,cs),
(245.333,544,o),
(265.333,544.667,o),
(292,546,cs),
(400.667,554,o),
(502,562.333,o),
(596,571,cs),
(641,575,ls),
(705,580.333,o),
(738,586.333,o),
(770,605,cs),
(772.667,606.333,o),
(774.667,606.5,o),
(776,605.5,cs),
(777.333,604.5,o),
(778.333,604,o),
(779,604,c),
(870,554,l),
(867,539,l),
(684.333,529.667,o),
(504.333,516.333,o),
(327,499,cs)
);
},
{
closed = 1;
nodes = (
(361.333,229.333,o),
(320.667,223,o),
(272,213,c),
(196,268,l),
(201,281,l),
(239.667,277.667,o),
(270.333,276,o),
(293,276,cs),
(315,276,o),
(337,277,o),
(359,279,cs),
(450.333,285.667,o),
(524,291.667,o),
(580,297,cs),
(644,302.333,o),
(677.333,308,o),
(708,328,c),
(711.333,329.333,o),
(714.333,329,o),
(717,327,c),
(809,278,l),
(806,263,l),
(669,253,ls),
(556.333,245,o),
(464.667,238,o),
(394,232,cs)
);
},
{
closed = 1;
nodes = (
(466,623,ls),
(466,667,o),
(451,710.667,o),
(423,744,c),
(434,756,l),
(540,670,l),
(533.333,644.667,o),
(530,610.667,o),
(530,568,cs),
(530,-24,l),
(466,-30,l),
(466,-30,l)
);
}
);
width = 1000;
}
);
unicode = 101213;
}
{
glyphname = u18B5E;
layers = (
{
layerId = master01;
shapes = (
{
closed = 1;
nodes = (
(508,99,l),
(521,71,l),
(261,-72,l),
(190,-110,o),
(160,-132,q),
(63,-94,l),
(63,-81,l),
(133,-61,o),
(197,-34,q)
);
},
{
closed = 1;
nodes = (
(558,612,l),
(558,645,o),
(536,708,o),
(515,734,q),
(526,746,l),
(632,659,l),
(622,621,o),
(622,557,q),
(622,-10,l),
(622,-41,o),
(635,-63,o),
(657,-64,q),
(697,-66,o),
(720,-66,q),
(798,-66,o),
(866,-56,q),
(882,-55,o),
(892,-43,o),
(893,-27,q),
(901,171,l),
(925,171,l),
(931,99,o),
(953,-49,o),
(966,-87,q),
(967,-88,o),
(967,-91,q),
(967,-96,o),
(962,-98,q),
(925,-114,o),
(850,-121,q),
(788,-128,o),
(717,-128,q),
(694,-128,o),
(644,-126,q),
(598,-124,o),
(558,-76,o),
(558,-23,q)
);
},
{
closed = 1;
nodes = (
(192,286,o),
(146,275,q),
(78,325,l),
(83,337,l),
(115,334,o),
(140,334,q),
(151,334,o),
(205,337,q),
(241,340,o),
(318,348,o),
(345,352,q),
(377,357,o),
(406,371,o),
(409,373,q),
(413,375,o),
(418,373,q),
(501,331,l),
(498,314,l),
(449,311,o),
(287,296,o),
(239,291,q)
);
},
{
closed = 1;
nodes = (
(266,537,l),
(266,570,o),
(244,633,o),
(223,659,q),
(234,671,l),
(336,584,l),
(326,546,o),
(326,482,q),
(326,4,l),
(266,-28,l)
);
}
);
width = 1000;
}
);
unicode = 101214;
}
{
glyphname = u18B60;
layers = (
{
layerId = master01;
shapes = (
{
closed = 1;
nodes = (
(471,103,l),
(484,75,l),
(258,-51,l),
(182,-93,o),
(157,-111,q),
(62,-77,l),
(62,-64,l),
(136,-43,o),
(196,-17,q)
);
},
{
closed = 1;
nodes = (
(536,624,l),
(536,657,o),
(514,720,o),
(493,746,q),
(504,758,l),
(610,671,l),
(600,633,o),
(600,569,q),
(600,1,l),
(600,-30,o),
(613,-52,o),
(635,-53,q),
(685,-55,o),
(716,-55,q),
(805,-55,o),
(853,-47,q),
(869,-46,o),
(879,-34,o),
(880,-18,q),
(888,145,l),
(912,145,l),
(917,83,o),
(939,-37,o),
(953,-78,q),
(954,-79,o),
(954,-82,q),
(954,-87,o),
(949,-89,q),
(912,-105,o),
(837,-112,q),
(783,-118,o),
(722,-118,q),
(671,-118,o),
(622,-115,q),
(576,-113,o),
(536,-65,o),
(536,-12,q)
);
},
{
closed = 1;
nodes = (
(190,309,o),
(144,298,q),
(76,345,l),
(81,357,l),
(113,354,o),
(138,354,q),
(149,354,o),
(203,357,q),
(313,367,o),
(338,372,q),
(360,377,o),
(389,391,o),
(393,393,q),
(397,395,o),
(402,393,q),
(485,354,l),
(482,337,l),
(387,332,o),
(237,314,q)
);
},
{
closed = 1;
nodes = (
(258,542,l),
(258,575,o),
(236,638,o),
(215,664,q),
(226,676,l),
(330,589,l),
(320,551,o),
(320,487,q),
(320,3,l),
(258,-29,l)
);
},
{
closed = 1;
nodes = (
(620,442,l),
(670,446,o),
(725,457,o),
(749,471,q),
(753,473,o),
(757,470,o),
(758,470,q),
(849,417,l),
(846,402,l),
(668,392,l),
(562,386,l),
(562,437,l)
);
},
{
closed = 1;
nodes = (
(638,210,l),
(688,214,o),
(743,225,o),
(767,239,q),
(771,241,o),
(775,238,o),
(776,238,q),
(867,185,l),
(864,170,l),
(686,160,l),
(580,154,l),
(580,205,l)
);
}
);
width = 1000;
}
);
unicode = 101216;
}
{
glyphname = u18B61;
layers = (
{
layerId = master01;
shapes = (
{
closed = 1;
nodes = (
(455,80,l),
(468,52,l),
(256,-63,l),
(188,-99,o),
(155,-123,q),
(60,-89,l),
(60,-76,l),
(126,-57,o),
(194,-29,q)
);
},
{
closed = 1;
nodes = (
(234,293,l),
(187,288,o),
(141,277,q),
(73,324,l),
(78,336,l),
(110,333,o),
(135,333,q),
(146,333,o),
(200,336,q),
(268,342,o),
(313,351,q),
(335,356,o),
(364,370,o),
(368,372,q),
(372,374,o),
(377,372,q),
(460,333,l),
(457,316,l),
(405,314,o),
(256,296,q)
);
},
{
closed = 1;
nodes = (
(241,535,l),
(241,568,o),
(219,631,o),
(198,657,q),
(209,669,l),
(313,582,l),
(303,544,o),
(303,480,q),
(303,-6,l),
(241,-38,l)
);
},
{
closed = 1;
nodes = (
(502,603,l),
(502,636,o),
(480,699,o),
(459,725,q),
(470,737,l),
(576,650,l),
(566,612,o),
(566,548,q),
(566,-14,l),
(566,-45,o),
(579,-67,o),
(601,-68,q),
(651,-71,o),
(711,-71,q),
(811,-71,o),
(864,-62,q),
(880,-61,o),
(890,-49,o),
(891,-33,q),
(899,136,l),
(923,136,l),
(929,73,o),
(950,-53,o),
(964,-93,q),
(965,-94,o),
(965,-97,q),
(965,-102,o),
(960,-104,q),
(923,-120,o),
(848,-127,q),
(791,-134,o),
(716,-134,q),
(672,-134,o),
(588,-130,q),
(542,-128,o),
(502,-80,o),
(502,-27,q)
);
},
{
closed = 1;
nodes = (
(535,384,l),
(650,346,o),
(734,299,q),
(737,297,o),
(739,289,q),
(754,207,l),
(735,199,l),
(696,239,o),
(572,336,o),
(525,363,q)
);
},
{
closed = 1;
nodes = (
(610,566,l),
(615,578,l),
(657,574,o),
(676,574,q),
(708,574,o),
(747,581,q),
(769,585,o),
(802,599,o),
(818,616,q),
(823,621,o),
(827,616,q),
(875,573,l),
(880,568,o),
(875,563,q),
(858,547,l),
(843,532,o),
(839,522,q),
(795,420,l),
(792,413,o),
(800,413,q),
(811,413,o),
(831,417,q),
(848,421,o),
(876,433,o),
(891,448,q),
(896,453,o),
(902,448,q),
(952,410,l),
(955,407,o),
(952,403,q),
(936,381,o),
(935,379,q),
(933,376,o),
(924,361,o),
(922,352,q),
(887,177,o),
(844,96,q),
(832,73,o),
(809,41,o),
(793,28,q),
(790,25,o),
(786,25,q),
(783,25,o),
(778,30,q),
(738,80,o),
(647,152,q),
(660,170,l),
(771,110,l),
(778,106,o),
(782,106,q),
(784,106,o),
(789,113,o),
(790,115,q),
(820,164,o),
(856,294,o),
(865,360,q),
(865,362,l),
(865,372,o),
(855,372,q),
(827,370,o),
(799,366,q),
(791,364,o),
(782,359,o),
(769,346,q),
(764,341,o),
(758,346,q),
(715,398,l),
(711,403,o),
(717,408,q),
(744,423,o),
(754,448,q),
(782,525,l),
(783,527,o),
(783,531,q),
(783,540,o),
(774,538,q),
(709,531,o),
(675,518,q)
);
}
);
width = 1000;
}
);
unicode = 101217;
}
{
glyphname = u18B62;
layers = (
{
layerId = master01;
shapes = (
{
closed = 1;
nodes = (
(196,316,o),
(134,302,q),
(58,360,l),
(63,373,l),
(107,369,o),
(152,369,q),
(175,369,o),
(221,371,q),
(429,384,o),
(705,410,q),
(757,416,o),
(810,426,o),
(834,440,q),
(837,442,o),
(843,439,q),
(934,387,l),
(931,372,l),
(649,355,o),
(256,320,q)
);
},
{
closed = 1;
nodes = (
(287,531,l),
(287,564,o),
(265,627,o),
(244,653,q),
(255,665,l),
(358,578,l),
(348,540,o),
(348,476,q),
(348,17,l),
(287,-15,l)
);
},
{
closed = 1;
nodes = (
(528,117,l),
(541,89,l),
(262,-59,l),
(194,-95,o),
(161,-119,q),
(66,-85,l),
(66,-72,l),
(140,-51,o),
(200,-25,q)
);
},
{
closed = 1;
nodes = (
(581,607,l),
(581,640,o),
(559,703,o),
(538,729,q),
(549,741,l),
(655,654,l),
(645,616,o),
(645,552,q),
(645,-8,l),
(645,-39,o),
(658,-61,o),
(680,-62,q),
(693,-63,o),
(720,-63,q),
(777,-63,o),
(828,-56,q),
(844,-55,o),
(854,-43,o),
(855,-27,q),
(863,166,l),
(887,166,l),
(893,95,o),
(915,-49,o),
(928,-87,q),
(929,-88,o),
(929,-91,q),
(929,-96,o),
(924,-98,q),
(884,-115,o),
(812,-122,q),
(758,-126,o),
(725,-126,q),
(705,-126,o),
(667,-124,q),
(621,-122,o),
(581,-74,o),
(581,-21,q)
);
}
);
width = 1000;
}
);
unicode = 101218;
}
{
glyphname = u18B64;
layers = (
{
layerId = master01;
shapes = (
{
closed = 1;
nodes = (
(290.667,301.667,o),
(255,295.667,o),
(213,287,c),
(135,340,l),
(140,353,l),
(152.667,351.667,o),
(172.333,351,o),
(199,351,cs),
(232.333,351,o),
(267.667,352.333,o),
(305,355,cs),
(387.667,361.667,o),
(466,368.667,o),
(540,376,cs),
(614,383.333,o),
(658,388.333,o),
(672,391,cs),
(721.333,399,o),
(748.333,409.333,o),
(779,432,cs),
(782.333,434.667,o),
(785.333,434.667,o),
(788,432,cs),
(844,379,ls),
(847.333,375.667,o),
(847.333,372.333,o),
(844,369,cs),
(819,344,ls),
(814.149,339.149,o),
(809,336.398,o),
(809,327,cs),
(801,214.333,o),
(785.667,118.667,o),
(763,40,cs),
(751,0.667,o),
(740.667,-25,o),
(732,-37,c),
(728,-41,o),
(724,-41,o),
(720,-37,cs),
(680,8.333,o),
(631.333,48.667,o),
(546,110,c),
(558,131,l),
(688,64,ls),
(691.333,62,o),
(693.667,61,o),
(695,61,cs),
(698.333,61,o),
(701.333,65,o),
(704,73,cs),
(726.667,133,o),
(741.667,243.667,o),
(743,329,cs),
(743,341,ls),
(743,347.667,o),
(741,349.333,o),
(733,348,cs),
(589,333,ls),
(479.667,323,o),
(390,313.667,o),
(320,305,cs)
);
},
{
closed = 1;
nodes = (
(190.333,497.333,o),
(150,490.667,o),
(112,482,c),
(34,538,l),
(39,551,l),
(67,549,o),
(92,548,o),
(114,548,cs),
(133.333,548,o),
(161,549.333,o),
(197,552,cs),
(327,562,o),
(508.667,578.667,o),
(742,602,cs),
(804.667,608.667,o),
(839,615.333,o),
(871,634,cs),
(874.333,636,o),
(877.333,636,o),
(880,634,cs),
(972,583,l),
(969,567,l),
(791,555,o),
(545.667,533.333,o),
(233,502,cs)
);
},
{
closed = 1;
nodes = (
(600,351,l),
(600,489,o),
(599,584.667,o),
(597,638,cs),
(595.667,679.333,o),
(583.333,726,o),
(554,758,c),
(565,770,l),
(671,684,l),
(664.333,655.333,o),
(661,621,o),
(661,581,cs),
(660,358,l),
(660,358,l)
);
},
{
closed = 1;
nodes = (
(309,333,l),
(309,476.333,o),
(308,575.667,o),
(306,631,cs),
(304.667,672.333,o),
(292.333,719,o),
(263,751,c),
(274,763,l),
(380,677,l),
(373.333,648.333,o),
(370,614,o),
(370,574,cs),
(369,340,l),
(369,340,l)
);
},
{
closed = 1;
nodes = (
(482,289,l),
(474.667,258.333,o),
(471,224.333,o),
(471,187,cs),
(465,-157,l),
(452,-163,l),
(391,-94,ls),
(389.667,-92.667,o),
(389.667,-89.667,o),
(391,-85,c),
(399.667,-66.333,o),
(404.667,-45,o),
(406,-21,cs),
(408,14.333,o),
(409,69,o),
(409,143,cs),
(408,244,ls),
(408,277.333,o),
(401.333,307.667,o),
(388,335,c),
(420,341,l),
(420,341,l)
);
}
);
width = 1000;
}
);
unicode = 101220;
}
{
glyphname = u18B68;
layers = (
{
layerId = master01;
shapes = (
{
closed = 1;
nodes = (
(617,391,l),
(736,354,o),
(880,281,q),
(885,279,o),
(885,272,q),
(886,176,l),
(871,169,l),
(827,217,o),
(687,323,o),
(611,363,q)
);
},
{
closed = 1;
nodes = (
(295,293,l),
(386,221,o),
(560,97,o),
(667,27,q),
(759,-34,o),
(879,-85,o),
(954,-89,q),
(954,-115,l),
(786,-138,l),
(782,-138,l),
(774,-138,o),
(770,-135,q),
(667,-52,o),
(393,163,o),
(295,236,q)
);
},
{
closed = 1;
nodes = (
(175,420,o),
(118,407,q),
(40,465,l),
(45,478,l),
(87,475,o),
(120,475,q),
(149,475,o),
(203,479,q),
(339,490,l),
(590,509,o),
(731,524,q),
(778,529,o),
(836,542,o),
(860,556,q),
(865,559,o),
(869,556,q),
(961,503,l),
(958,487,l),
(893,482,l),
(462,450,o),
(239,427,q)
);
},
{
closed = 1;
nodes = (
(358,676,l),
(352,652,o),
(345,607,o),
(345,573,q),
(338,322,l),
(332,148,o),
(330,70,q),
(317,64,l),
(256,135,l),
(253,138,o),
(256,144,q),
(270,170,o),
(272,208,q),
(276,267,o),
(281,495,o),
(281,591,q),
(281,641,l),
(281,669,o),
(262,731,o),
(242,753,q),
(254,765,l)
);
},
{
closed = 1;
nodes = (
(68,-140,l),
(295,-59,o),
(522,144,o),
(603,402,o),
(618,618,q),
(621,651,o),
(599,731,o),
(574,759,q),
(585,771,l),
(695,685,l),
(690,669,o),
(687,620,o),
(686,613,q),
(670,366,o),
(553,77,o),
(306,-101,o),
(78,-172,q)
);
}
);
width = 1000;
}
);
unicode = 101224;
}
{
glyphname = u18B6A;
layers = (
{
layerId = master01;
shapes = (
{
closed = 1;
nodes = (
(666,394,l),
(656,357,o),
(656,291,q),
(650,-154,l),
(638,-161,l),
(577,-91,l),
(573,-87,o),
(577,-82,q),
(590,-59,o),
(592,-22,q),
(596,92,o),
(596,200,q),
(596,262,o),
(594,348,q),
(594,378,o),
(575,444,o),
(554,469,q),
(565,481,l)
);
},
{
closed = 1;
nodes = (
(224,486,o),
(162,472,q),
(86,530,l),
(91,543,l),
(135,539,o),
(180,539,q),
(203,539,o),
(249,541,q),
(464,555,o),
(714,578,q),
(766,584,o),
(819,594,o),
(843,608,q),
(846,610,o),
(852,607,q),
(943,555,l),
(940,540,l),
(650,522,o),
(284,490,q)
);
},
{
closed = 1;
nodes = (
(459,163,o),
(419,154,q),
(352,206,l),
(357,218,l),
(388,214,o),
(419,214,q),
(428,214,o),
(479,217,q),
(629,227,o),
(738,240,q),
(779,245,o),
(815,263,q),
(819,265,o),
(824,262,q),
(907,218,l),
(904,201,l),
(853,198,o),
(581,175,o),
(512,168,q)
);
},
{
closed = 1;
nodes = (
(404,387,o),
(214,83,o),
(64,-50,q),
(42,-28,l),
(179,116,o),
(364,443,o),
(425,638,q),
(437,680,o),
(437,716,q),
(437,741,o),
(431,762,q),
(447,770,l),
(523,658,l),
(513,643,o),
(492,599,o),
(479,567,q)
);
}
);
width = 1000;
}
);
unicode = 101226;
}
{
glyphname = u18B6B;
layers = (
{
layerId = master01;
shapes = (
{
closed = 1;
nodes = (
(657,351,l),
(650.333,326.333,o),
(647,292,o),
(647,248,cs),
(641,-155,l),
(629,-162,l),
(567,-92,ls),
(564.333,-89.333,o),
(564.333,-86.333,o),
(567,-83,c),
(575.667,-67.667,o),
(580.667,-47.667,o),
(582,-23,cs),
(584.667,55.667,o),
(586,133.333,o),
(586,210,cs),
(586,254.667,o),
(585.667,286.333,o),
(585,305,cs),
(585,345,o),
(573,392.667,o),
(545,426,c),
(556,438,l),
(556,438,l)
);
},
{
closed = 1;
nodes = (
(244,487.333,o),
(203.333,481.333,o),
(162,472,c),
(86,530,l),
(91,543,l),
(120.333,540.333,o),
(150,539,o),
(180,539,cs),
(195.333,539,o),
(218.333,539.667,o),
(249,541,cs),
(392.333,550.333,o),
(547.333,562.667,o),
(714,578,cs),
(783.333,586,o),
(811,589.333,o),
(843,608,cs),
(845,609.333,o),
(848,609,o),
(852,607,cs),
(943,555,l),
(940,540,l),
(746.667,528,o),
(528,511.333,o),
(284,490,cs)
);
},
{
closed = 1;
nodes = (
(473.667,134.667,o),
(442.667,130,o),
(416,124,c),
(349,176,l),
(354,188,l),
(374.667,185.333,o),
(395.333,184,o),
(416,184,cs),
(422,184,o),
(442,185,o),
(476,187,cs),
(576,193.667,o),
(662.333,201.333,o),
(735,210,cs),
(762.333,213.333,o),
(788,221,o),
(812,233,cs),
(814.667,234.333,o),
(817.667,234,o),
(821,232,cs),
(904,188,l),
(901,171,l),
(833,167,o),
(601,147.333,o),
(509,138,cs)
);
},
{
closed = 1;
nodes = (
(730,456,l),
(788.667,438.667,o),
(858.333,411.333,o),
(905,390,cs),
(908.333,388,o),
(910.667,384.333,o),
(912,379,cs),
(931,279,l),
(912,266,l),
(865.333,320.667,o),
(792,387,o),
(720,435,c)
);
},
{
closed = 1;
nodes = (
(379,327,o),
(264,127.333,o),
(64,-50,c),
(42,-28,l),
(224.667,164,o),
(343.667,378,o),
(425,638,cs),
(433,666,o),
(437,692,o),
(437,716,cs),
(437,732.667,o),
(435,748,o),
(431,762,c),
(447,770,l),
(523,658,l),
(509.667,638,o),
(496.333,609.667,o),
(479,567,cs)
);
}
);
width = 1000;
}
);
unicode = 101227;
}
{
glyphname = u18B6E;
layers = (
{
layerId = master01;
shapes = (
{
closed = 1;
nodes = (
(386.667,351,o),
(265.333,158,o),
(64,-10,c),
(44,12,l),
(228,192,o),
(351.333,393.333,o),
(426,636,cs),
(434,664,o),
(438,690,o),
(438,714,cs),
(438,730.667,o),
(436,746,o),
(432,760,c),
(448,768,l),
(520,658,l),
(506.667,638,o),
(493.333,609.667,o),
(476,567,cs)
);
},
{
closed = 1;
nodes = (
(244,477.333,o),
(203.333,471.333,o),
(162,462,c),
(86,520,l),
(91,533,l),
(120.333,530.333,o),
(150,529,o),
(180,529,cs),
(195.333,529,o),
(218.333,529.667,o),
(249,531,cs),
(392.333,540.333,o),
(547.333,552.667,o),
(714,568,cs),
(783.333,576,o),
(811,579.333,o),
(843,598,cs),
(845,599.333,o),
(848,599,o),
(852,597,cs),
(943,545,l),
(940,530,l),
(746.667,518,o),
(528,501.333,o),
(284,480,cs)
);
},
{
closed = 1;
nodes = (
(410,321,l),
(462,262.333,o),
(518.667,182.333,o),
(552,121,c),
(553.333,119.667,o),
(556.667,115,o),
(554,111,c),
(508,9,l),
(497,12,l),
(481,97.333,o),
(434.667,229.333,o),
(392,308,c)
);
},
{
closed = 1;
nodes = (
(591,-34,l),
(665.667,78,o),
(720.333,199.667,o),
(739,301,cs),
(740.333,310.333,o),
(741,319.667,o),
(741,329,cs),
(741,354.333,o),
(736.667,376.667,o),
(728,396,c),
(741,404,l),
(831,308,l),
(825,297.333,o),
(815,276.333,o),
(801,245,cs),
(751.667,137,o),
(700.333,43,o),
(615,-53,c)
);
},
{
closed = 1;
nodes = (
(372,-94,o),
(331.667,-100.333,o),
(291,-109,c),
(214,-55,l),
(219,-42,l),
(251,-44.667,o),
(282.333,-46,o),
(313,-46,cs),
(327.667,-46,o),
(349,-45.333,o),
(377,-44,cs),
(397.667,-42.667,o),
(416.5,-41.333,o),
(433.5,-40,cs),
(450.5,-38.667,o),
(465.667,-37.667,o),
(479,-37,cs),
(581,-31,o),
(653.667,-25.667,o),
(697,-21,cs),
(761,-15.667,o),
(794,-10,o),
(826,10,c),
(829.333,11.333,o),
(832.333,11,o),
(835,9,cs),
(926,-41,l),
(923,-56,l),
(904.333,-57.333,o),
(890.333,-58,o),
(881,-58,cs),
(677.667,-70,o),
(521.333,-80.667,o),
(412,-90,cs)
);
}
);
width = 1000;
}
);
unicode = 101230;
}
{
glyphname = u18B6F;
layers = (
{
layerId = master01;
shapes = (
{
closed = 1;
nodes = (
(284,490,l),
(224,486,o),
(162,472,q),
(86,530,l),
(91,543,l),
(135,539,o),
(180,539,q),
(203,539,o),
(249,541,q),
(472,556,o),
(695,578,q),
(747,584,o),
(800,594,o),
(824,608,q),
(827,610,o),
(833,607,q),
(924,555,l),
(921,540,l),
(681,525,o),
(329,494,q)
);
},
{
closed = 1;
nodes = (
(415,438,o),
(315,231,o),
(166,12,o),
(67,-85,q),
(45,-63,l),
(176,87,o),
(353,430,o),
(416,638,q),
(428,680,o),
(428,716,q),
(428,741,o),
(422,762,q),
(438,770,l),
(511,658,l),
(492,630,o),
(467,567,q)
);
},
{
closed = 1;
nodes = (
(329,350,l),
(385,354,o),
(577,372,o),
(613,377,q),
(682,387,o),
(718,423,q),
(723,428,o),
(727,423,q),
(785,364,l),
(790,360,o),
(785,355,q),
(763,336,o),
(743,312,q),
(674,231,o),
(539,137,o),
(433,95,q),
(416,129,l),
(514,174,o),
(618,256,o),
(673,318,q),
(680,326,o),
(680,330,q),
(680,335,o),
(667,333,q),
(320,296,l)
);
},
{
closed = 1;
nodes = (
(270,229,l),
(412,145,o),
(650,12,q),
(741,-39,o),
(879,-87,o),
(954,-94,q),
(955,-120,l),
(786,-146,l),
(782,-146,l),
(774,-146,o),
(770,-143,q),
(667,-74,o),
(373,112,o),
(255,183,q)
);
}
);
width = 1000;
}
);
unicode = 101231;
}
{
glyphname = u18B70;
layers = (
{
layerId = master01;
shapes = (
{
closed = 1;
nodes = (
(70,-109,l),
(295.333,-7.667,o),
(389,106,o),
(421,266,cs),
(437,346,o),
(446.333,460.333,o),
(449,609,cs),
(450.333,655.667,o),
(438.333,712.667,o),
(405,750,c),
(416,762,l),
(527,676,l),
(522.333,660.667,o),
(519.333,637,o),
(518,605,cs),
(510,299.667,o),
(481.333,146.167,o),
(360,21.5,cs),
(299.333,-40.833,o),
(206.667,-94.333,o),
(82,-139,c)
);
},
{
closed = 1;
nodes = (
(242,224,o),
(208.333,218.667,o),
(175,212,c),
(99,267,l),
(104,280,l),
(135.333,276.667,o),
(163,275,o),
(187,275,cs),
(194.333,275,o),
(219,276,o),
(261,278,cs),
(412,288,l),
(687,308,l),
(745.667,314.667,o),
(780,323.333,o),
(812,350,cs),
(815.333,353.333,o),
(818.333,353.333,o),
(821,350,cs),
(877,294,ls),
(879.667,291.333,o),
(879.333,288.333,o),
(876,285,cs),
(852,264,ls),
(842.667,256,o),
(843.333,256.333,o),
(842,247,cs),
(835.333,147,o),
(805,-0.333,o),
(773,-75,cs),
(757,-111,o),
(742.667,-135.333,o),
(730,-148,cs),
(724.667,-153.333,o),
(722.333,-152,o),
(717,-148,c),
(662.333,-96.667,o),
(593.333,-49,o),
(510,-5,c),
(520,17,l),
(701,-51,ls),
(702.333,-51.667,o),
(704,-52,o),
(706,-52,cs),
(710.667,-52,o),
(714.333,-48.667,o),
(717,-42,cs),
(743.667,18,o),
(774.667,167.667,o),
(776,257,cs),
(776,263,o),
(773.667,266,o),
(769,266,cs),
(581.667,254.667,o),
(417.333,242,o),
(276,228,cs)
);
},
{
closed = 1;
nodes = (
(343,465.667,o),
(302.333,459.667,o),
(259,451,c),
(183,506,l),
(188,519,l),
(218.667,515.667,o),
(251.333,514,o),
(286,514,cs),
(299.333,514,o),
(319.333,514.667,o),
(346,516,cs),
(408.667,520.667,o),
(474.667,526,o),
(544,532,cs),
(618,538,ls),
(680.667,543.333,o),
(713.667,550.333,o),
(747,569,cs),
(750.333,570.333,o),
(753.333,570,o),
(756,568,cs),
(847,518,l),
(844,503,l),
(669.333,493.667,o),
(574.333,486.333,o),
(381,469,cs)
);
}
);
width = 1000;
}
);
unicode = 101232;
}
{
glyphname = u18B71;
layers = (
{
layerId = master01;
shapes = (
{
closed = 1;
nodes = (
(376,756,l),
(478,670,l),
(471,634,o),
(466,584,q),
(463,554,l),
(445,375,o),
(373,119,o),
(204,-94,o),
(53,-159,q),
(40,-134,l),
(179,-57,o),
(323,156,o),
(376,386,o),
(395,570,q),
(397,586,o),
(397,615,q),
(397,652,o),
(381,715,o),
(363,746,q)
);
},
{
closed = 1;
nodes = (
(620,252,l),
(620,259,o),
(613,259,q),
(494,251,o),
(255,226,q),
(204,220,o),
(154,210,q),
(78,265,l),
(83,278,l),
(130,273,o),
(166,273,q),
(177,273,o),
(240,276,q),
(351,284,o),
(506,299,q),
(531,301,l),
(575,306,o),
(632,323,o),
(656,343,q),
(661,348,o),
(665,343,q),
(721,287,l),
(725,283,o),
(720,278,q),
(696,257,l),
(688,249,o),
(686,240,q),
(655,113,o),
(644,-3,q),
(643,-9,o),
(643,-19,q),
(643,-40,o),
(659,-55,o),
(679,-57,q),
(696,-58,o),
(735,-58,q),
(816,-58,o),
(864,-51,q),
(880,-50,o),
(891,-38,o),
(891,-22,q),
(894,192,l),
(918,192,l),
(932,10,o),
(964,-82,q),
(965,-83,o),
(965,-86,q),
(965,-91,o),
(960,-93,q),
(923,-109,o),
(848,-116,q),
(807,-121,o),
(740,-121,q),
(712,-121,o),
(662,-119,q),
(577,-114,o),
(577,-25,q),
(577,-11,o),
(578,-3,q),
(590,111,o),
(620,250,q)
);
},
{
closed = 1;
nodes = (
(259,465,o),
(194,452,q),
(118,507,l),
(123,520,l),
(169,515,o),
(221,515,q),
(241,515,o),
(281,517,q),
(389,524,o),
(528,536,q),
(566,539,l),
(613,543,o),
(670,556,o),
(695,570,q),
(700,572,o),
(704,569,q),
(795,519,l),
(792,504,l),
(550,491,o),
(316,470,q)
);
}
);
width = 1000;
}
);
unicode = 101233;
}
{
glyphname = u18B72;
layers = (
{
layerId = master01;
shapes = (
{
closed = 1;
nodes = (
(55,-122,l),
(221.667,-24.667,o),
(285.833,78.5,o),
(306.5,236.5,cs),
(316.833,315.5,o),
(322.333,434,o),
(323,592,cs),
(323,641.333,o),
(311,695.667,o),
(279,733,c),
(290,745,l),
(398,659,l),
(392,639,o),
(389,615,o),
(389,587,cs),
(385,256.333,o),
(359.667,107.5,o),
(273,1.5,cs),
(229.667,-51.5,o),
(162,-102,o),
(70,-150,c)
);
},
{
closed = 1;
nodes = (
(230,299,ls),
(194,297,o),
(153.667,291.333,o),
(109,282,c),
(34,343,l),
(39,356,l),
(69,352.667,o),
(101.333,351,o),
(136,351,cs),
(150,351,o),
(169.667,351.667,o),
(195,353,cs),
(308.333,359.667,o),
(467,372.333,o),
(671,391,cs),
(739,397,ls),
(804.333,402.333,o),
(835,407.333,o),
(867,426,cs),
(869.667,427.333,o),
(872.333,426.333,o),
(875,425,cs),
(965,369,l),
(962,354,l),
(806,345.333,o),
(606,330.667,o),
(362,310,cs)
);
},
{
closed = 1;
nodes = (
(710,674,l),
(703.333,645.333,o),
(700,611,o),
(700,571,cs),
(700,493,o),
(699.333,371.333,o),
(698,206,cs),
(696,81.333,o),
(695,-40.667,o),
(695,-160,c),
(682,-166,l),
(616,-98,ls),
(614.667,-96.667,o),
(614.667,-93.667,o),
(616,-89,cs),
(624,-71,o),
(628.667,-49.333,o),
(630,-24,cs),
(634.667,117.333,o),
(637,261.667,o),
(637,409,cs),
(637,492.333,o),
(636,565.333,o),
(634,628,cs),
(632.667,669.333,o),
(620.333,716,o),
(591,748,c),
(602,760,l),
(602,760,l)
);
}
);
width = 1000;
}
);
unicode = 101234;
}
{
glyphname = u18B73;
layers = (
{
layerId = master01;
shapes = (
{
closed = 1;
nodes = (
(491,190,l),
(485,185,o),
(480,190,q),
(427,259,l),
(423,265,o),
(427,269,q),
(450,290,o),
(467,341,o),
(478,395,q),
(488,449,o),
(515,627,o),
(515,663,q),
(515,706,o),
(496,730,q),
(508,741,l),
(592,666,l),
(580,643,o),
(574,603,q),
(537,385,o),
(523,285,q),
(522,279,l),
(522,269,o),
(534,270,q),
(633,277,o),
(685,285,q),
(745,295,o),
(781,331,q),
(786,336,o),
(790,331,q),
(852,271,l),
(857,267,o),
(852,262,q),
(827,237,l),
(822,232,o),
(818,226,o),
(817,221,o),
(817,220,q),
(794,97,o),
(763,-26,o),
(735,-88,q),
(725,-110,o),
(688,-151,o),
(670,-160,q),
(666,-162,o),
(664,-162,q),
(660,-162,o),
(657,-157,q),
(639,-124,o),
(573,-56,o),
(521,-12,q),
(534,7,l),
(658,-59,l),
(668,-63,o),
(668,-63,q),
(673,-63,o),
(678,-53,q),
(705,1,o),
(736,130,o),
(753,232,q),
(753,234,l),
(753,243,o),
(742,242,q),
(542,222,l),
(530,221,o),
(521,213,q)
);
},
{
closed = 1;
nodes = (
(313,443,o),
(267,258,o),
(163,109,o),
(70,52,q),
(54,75,l),
(135,136,o),
(220,286,o),
(253,460,o),
(260,591,q),
(262,632,o),
(246,693,o),
(223,724,q),
(235,736,l),
(339,651,l),
(328,620,o),
(325,580,q)
);
},
{
closed = 1;
nodes = (
(235,420,l),
(181,417,o),
(114,403,q),
(39,461,l),
(44,474,l),
(89,469,o),
(141,469,q),
(162,469,o),
(200,471,q),
(331,479,o),
(614,504,o),
(651,507,q),
(739,515,l),
(788,519,o),
(843,530,o),
(867,544,q),
(869,545,o),
(873,544,o),
(875,543,q),
(965,490,l),
(962,475,l),
(745,464,o),
(382,432,q)
);
}
);
width = 1000;
}
);
unicode = 101235;
}
{
glyphname = u18B74;
layers = (
{
layerId = master01;
shapes = (
{
closed = 1;
nodes = (
(407,764,l),
(513,676,l),
(507,645.333,o),
(501.333,607.333,o),
(496,562,cs),
(470.667,323.333,o),
(433.833,168.833,o),
(314.5,25.5,cs),
(254.833,-46.167,o),
(170.667,-109,o),
(62,-163,c),
(47,-138,l),
(249.667,-14,o),
(346.5,132,o),
(384.5,288,cs),
(403.5,366,o),
(417.333,462.667,o),
(426,578,cs),
(427.333,598,o),
(428,612,o),
(428,620,cs),
(428,672,o),
(418,712.667,o),
(394,754,c)
);
},
{
closed = 1;
nodes = (
(247,371,o),
(206.667,365.333,o),
(162,356,c),
(87,414,l),
(92,427,l),
(122,423.667,o),
(154.333,422,o),
(189,422,cs),
(203,422,o),
(222.667,422.667,o),
(248,424,cs),
(362,430.667,o),
(512,442.667,o),
(698,460,cs),
(763.333,465.333,o),
(794,470.333,o),
(826,489,cs),
(828.667,490.333,o),
(831.333,489.333,o),
(834,488,cs),
(924,435,l),
(921,420,l),
(729,408.667,o),
(516.333,393,o),
(283,373,cs)
);
},
{
closed = 1;
nodes = (
(631,357,l),
(624.333,331.667,o),
(621,297.667,o),
(621,255,cs),
(621,-5,ls),
(621,-46.333,o),
(626.667,-57.667,o),
(656,-59,cs),
(684,-60.333,o),
(706.333,-61,o),
(723,-61,cs),
(770.333,-61,o),
(813.333,-58.333,o),
(852,-53,cs),
(873.333,-51.667,o),
(877.667,-45.333,o),
(879,-24,cs),
(887,163,l),
(911,163,l),
(919,57,o),
(932.667,-24.667,o),
(952,-82,c),
(952.667,-82.667,o),
(953,-84,o),
(953,-86,cs),
(953,-89.333,o),
(951.333,-91.667,o),
(948,-93,cs),
(923.333,-103.667,o),
(886,-111.333,o),
(836,-116,cs),
(807.333,-119.333,o),
(773,-121,o),
(733,-121,cs),
(714.333,-121,o),
(685,-120.333,o),
(645,-119,cs),
(582.333,-116.333,o),
(559,-87.333,o),
(559,-18,cs),
(559,310,ls),
(559,350.667,o),
(547.667,387.333,o),
(525,420,c),
(552,423,l),
(552,423,l)
);
}
);
width = 1000;
}
);
unicode = 101236;
}
{
glyphname = u18B78;
layers = (
{
layerId = master01;
shapes = (
{
closed = 1;
nodes = (
(145,-134,l),
(367,26,o),
(444,204,q),
(459,240,o),
(459,276,q),
(459,283,o),
(457,299,q),
(470,304,l),
(532,187,l),
(513,167,o),
(489,133,q),
(427,48,o),
(269,-96,o),
(164,-161,q)
);
},
{
closed = 1;
nodes = (
(474,152,l),
(570,95,o),
(704,5,o),
(774,-53,q),
(778,-56,o),
(778,-62,q),
(767,-160,l),
(750,-163,l),
(694,-87,o),
(539,67,o),
(453,129,q)
);
},
{
closed = 1;
nodes = (
(330,266,o),
(56,85,q),
(38,109,l),
(173,217,o),
(376,484,o),
(440,635,q),
(460,685,o),
(460,729,q),
(460,745,o),
(457,758,q),
(473,764,l),
(537,646,l),
(525,632,o),
(501,590,o),
(484,559,q)
);
},
{
closed = 1;
nodes = (
(210,460,o),
(148,446,q),
(72,504,l),
(77,517,l),
(121,513,o),
(166,513,q),
(189,513,o),
(235,515,q),
(450,529,o),
(700,552,q),
(752,558,o),
(805,568,o),
(829,582,q),
(832,584,o),
(838,581,q),
(929,529,l),
(926,514,l),
(636,496,o),
(270,464,q)
);
},
{
closed = 1;
nodes = (
(968,185,l),
(791,173,l),
(784,173,o),
(778,181,q),
(726,249,o),
(566,431,o),
(502,498,q),
(530,528,l),
(530,528,o),
(603,455,q),
(682,374,o),
(719,341,q),
(771,294,o),
(840,245,o),
(915,217,o),
(968,211,q)
);
}
);
width = 1000;
}
);
unicode = 101240;
}
{
glyphname = u18B79;
layers = (
{
layerId = master01;
shapes = (
{
closed = 1;
nodes = (
(578,675,o),
(546,720,o),
(515,738,q),
(521,754,l),
(632,725,l),
(631,709,l),
(631,696,o),
(639,660,o),
(646,634,q),
(685,501,o),
(767,304,q),
(794,239,o),
(837,158,o),
(907,92,o),
(957,82,q),
(958,60,l),
(808,47,l),
(806,47,l),
(800,47,o),
(791,54,o),
(789,58,q),
(690,337,o),
(588,644,q)
);
},
{
closed = 1;
nodes = (
(361,404,o),
(189,114,o),
(80,9,q),
(59,29,l),
(164,153,o),
(321,469,o),
(359,617,q),
(364,639,o),
(364,663,q),
(364,711,o),
(347,746,q),
(361,755,l),
(453,638,l),
(443,622,o),
(424,578,o),
(412,545,q)
);
},
{
closed = 1;
nodes = (
(196,430,o),
(144,418,q),
(66,475,l),
(71,488,l),
(119,485,o),
(157,485,q),
(183,485,o),
(231,487,q),
(301,493,o),
(355,496,q),
(509,507,o),
(702,524,q),
(748,528,o),
(807,542,o),
(832,557,q),
(836,559,o),
(841,556,q),
(934,504,l),
(931,489,l),
(874,484,o),
(705,472,q),
(375,447,o),
(266,437,q)
);
},
{
closed = 1;
nodes = (
(172,-146,l),
(264,-70,o),
(407,117,o),
(444,213,q),
(453,238,o),
(453,267,q),
(453,292,o),
(448,309,q),
(461,315,l),
(533,210,l),
(514,187,o),
(494,153,q),
(440,62,o),
(287,-105,o),
(193,-171,q)
);
},
{
closed = 1;
nodes = (
(461,147,l),
(544,91,o),
(661,2,o),
(722,-56,q),
(727,-59,o),
(725,-65,q),
(709,-164,l),
(691,-166,l),
(645,-92,o),
(514,61,o),
(439,125,q)
);
}
);
width = 1000;
}
);
unicode = 101241;
}
{
glyphname = u18B7A;
layers = (
{
layerId = master01;
shapes = (
{
closed = 1;
nodes = (
(590,554,l),
(656,486.667,o),
(711.667,434,o),
(757,396,cs),
(834.333,330.667,o),
(883.333,304.667,o),
(978,294,c),
(978,266,l),
(821,246,l),
(819,246,ls),
(814.333,246,o),
(809.667,248.333,o),
(805,253,cs),
(791,268.333,o),
(758.333,304.333,o),
(707,361,cs),
(630.333,446.333,o),
(575.333,506.333,o),
(542,541,c)
);
},
{
closed = 1;
nodes = (
(232.333,497.333,o),
(190.667,491.333,o),
(152,484,c),
(73,541,l),
(78,554,l),
(108,551.333,o),
(138.667,550,o),
(170,550,cs),
(186,550,o),
(209.333,550.667,o),
(240,552,cs),
(398.667,564,o),
(550,577,o),
(694,591,cs),
(764.667,599,o),
(793,602.333,o),
(825,621,cs),
(827.667,622.333,o),
(830.667,622,o),
(834,620,cs),
(928,568,l),
(925,553,l),
(718.333,539,o),
(502.333,522,o),
(277,502,cs)
);
},
{
closed = 1;
nodes = (
(480,569,ls),
(370.667,406.333,o),
(238,269,o),
(38,161,c),
(22,187,l),
(206,308.333,o),
(348,465.333,o),
(440,648,cs),
(458,685.333,o),
(467,720,o),
(467,752,cs),
(467,760,o),
(466.667,766,o),
(466,770,c),
(483,775,l),
(538,652,l),
(527.333,640.667,o),
(515,623.667,o),
(501,601,cs)
);
},
{
closed = 1;
nodes = (
(295.333,151,o),
(262,147,o),
(234,139,c),
(160,195,l),
(166,207,l),
(188.667,201.667,o),
(235.667,199.667,o),
(265,201,cs),
(375.667,209,o),
(527,225.333,o),
(627,240,cs),
(651,243.333,o),
(673.333,255.333,o),
(694,276,cs),
(696.667,278.667,o),
(699.333,278.667,o),
(702,276,cs),
(759,219,ls),
(761.667,216.333,o),
(761.333,213.333,o),
(758,210,cs),
(734,189,ls),
(724.667,181,o),
(725.333,181.333,o),
(724,172,cs),
(712.667,66.667,o),
(689.333,-20.333,o),
(654,-89,cs),
(638,-119.667,o),
(615,-149.333,o),
(599,-160,cs),
(595.667,-162.667,o),
(593,-164,o),
(591,-164,cs),
(589,-164,o),
(587,-162.667,o),
(585,-160,cs),
(535.667,-94.667,o),
(498,-55.333,o),
(442,-10,c),
(455,7,l),
(585,-64,ls),
(587.667,-65.333,o),
(589.667,-66,o),
(591,-66,cs),
(595,-66,o),
(598.667,-63.333,o),
(602,-58,cs),
(634,-0.667,o),
(662.333,98,o),
(665,178,cs),
(665,186,o),
(662,189.667,o),
(656,189,cs),
(494,173.667,o),
(385.333,162.333,o),
(330,155,cs)
);
},
{
closed = 1;
nodes = (
(424.333,98.667,o),
(368,7.167,o),
(272,-65.5,cs),
(224,-101.833,o),
(160.667,-137,o),
(82,-171,c),
(69,-143,l),
(214.333,-69.667,o),
(296.167,4.167,o),
(351.5,111.5,cs),
(379.167,165.167,o),
(405.333,234.667,o),
(430,320,cs),
(435.333,341.333,o),
(438,361,o),
(438,379,cs),
(438,404.333,o),
(433.333,427.333,o),
(424,448,c),
(440,457,l),
(519,352,l),
(507,330,o),
(493.667,298,o),
(479,256,cs)
);
}
);
width = 1000;
}
);
unicode = 101242;
}
{
glyphname = u18B7D;
layers = (
{
layerId = master01;
shapes = (
{
closed = 1;
nodes = (
(408,413,o),
(200,105,o),
(64,-9,q),
(43,14,l),
(177,148,o),
(369,475,o),
(411,633,q),
(419,665,o),
(419,691,q),
(419,729,o),
(405,757,q),
(420,767,l),
(508,653,l),
(486,618,o),
(463,560,q)
);
},
{
closed = 1;
nodes = (
(196,460,o),
(144,448,q),
(66,505,l),
(71,518,l),
(119,515,o),
(157,515,q),
(183,515,o),
(231,517,q),
(421,531,l),
(534,539,o),
(652,549,q),
(698,553,o),
(757,567,o),
(782,582,q),
(786,584,o),
(791,581,q),
(884,529,l),
(881,514,l),
(747,504,o),
(672,499,q),
(363,476,o),
(266,467,q)
);
},
{
closed = 1;
nodes = (
(578,520,l),
(605,465,o),
(698,306,o),
(732,254,q),
(785,173,o),
(883,87,o),
(958,77,q),
(958,53,l),
(798,31,l),
(796,31,l),
(786,31,o),
(779,42,q),
(732,122,o),
(585,396,o),
(525,515,q)
);
},
{
closed = 1;
nodes = (
(319,9,o),
(406,135,o),
(426,175,q),
(445,213,o),
(445,250,q),
(445,257,o),
(443,269,q),
(460,277,l),
(527,180,l),
(503,161,o),
(487,142,q),
(302,-72,l),
(662,-18,l),
(668,-49,l),
(317,-124,l),
(275,-133,o),
(252,-143,q),
(246,-145,o),
(242,-139,q),
(199,-78,l),
(197,-76,o),
(197,-73,q),
(197,-68,o),
(203,-66,q),
(232,-61,o),
(267,-44,o),
(281,-30,q)
);
},
{
closed = 1;
nodes = (
(545,99,l),
(615,47,o),
(695,-15,o),
(726,-44,q),
(731,-49,o),
(730,-58,q),
(714,-160,l),
(693,-167,l),
(655,-96,o),
(580,21,o),
(527,83,q)
);
}
);
width = 1000;
}
);
unicode = 101245;
}
{
glyphname = u18B7E;
layers = (
{
layerId = master01;
shapes = (
{
closed = 1;
nodes = (
(398,417,o),
(181,155,o),
(44,63,q),
(26,88,l),
(163,201,o),
(371,487,o),
(424,629,q),
(437,666,o),
(437,702,q),
(437,729,o),
(428,753,q),
(443,762,l),
(522,641,l),
(509,625,o),
(486,588,o),
(468,552,q)
);
},
{
closed = 1;
nodes = (
(196,460,o),
(144,448,q),
(66,505,l),
(71,518,l),
(119,515,o),
(157,515,q),
(183,515,o),
(231,517,q),
(421,531,l),
(534,539,o),
(652,549,q),
(698,553,o),
(757,567,o),
(782,582,q),
(786,584,o),
(791,581,q),
(884,529,l),
(881,514,l),
(747,504,o),
(672,499,q),
(363,476,o),
(266,467,q)
);
},
{
closed = 1;
nodes = (
(548,522,l),
(633,405,o),
(736,296,q),
(783,245,o),
(848,189,o),
(926,152,o),
(978,145,q),
(979,118,l),
(833,98,l),
(830,98,l),
(819,98,o),
(813,106,q),
(753,178,o),
(579,405,o),
(500,513,q)
);
},
{
closed = 1;
nodes = (
(270,168,l),
(341,176,o),
(556,203,o),
(576,207,q),
(619,216,o),
(641,239,q),
(647,243,o),
(652,239,q),
(707,196,l),
(712,193,o),
(707,187,q),
(693,168,l),
(688,161,o),
(686,153,q),
(682,134,o),
(653,-39,o),
(651,-62,q),
(589,-71,l),
(597,-12,o),
(616,138,o),
(616,147,q),
(616,151,l),
(616,155,o),
(609,155,q),
(586,154,o),
(343,125,o),
(269,116,q)
);
},
{
closed = 1;
nodes = (
(475,-42,l),
(526,-37,o),
(581,-27,o),
(605,-13,q),
(609,-11,o),
(614,-14,q),
(706,-67,l),
(703,-82,l),
(490,-94,o),
(277,-111,q),
(278,-59,l)
);
},
{
closed = 1;
nodes = (
(321,153,l),
(314,120,o),
(314,84,q),
(315,50,l),
(317,-58,l),
(320,-160,l),
(307,-167,l),
(243,-100,l),
(240,-97,o),
(243,-91,q),
(256,-61,o),
(256,-26,q),
(252,105,l),
(251,134,o),
(229,201,o),
(208,224,q),
(217,236,l)
);
}
);
width = 1000;
}
);
unicode = 101246;
}
{
glyphname = u18B82;
layers = (
{
layerId = master01;
shapes = (
{
closed = 1;
nodes = (
(50,-146,l),
(286,-50,o),
(400.833,73.5,o),
(449.5,251.5,cs),
(473.833,340.5,o),
(488.333,456.333,o),
(493,599,cs),
(494.333,651,o),
(484,714,o),
(452,750,c),
(463,762,l),
(578,676,l),
(573.333,660.667,o),
(569.667,637,o),
(567,605,cs),
(544.333,286.333,o),
(502.167,117.167,o),
(365.5,-11.5,cs),
(297.167,-75.833,o),
(196.667,-130.333,o),
(64,-175,c)
);
},
{
closed = 1;
nodes = (
(277,488.333,o),
(236.333,482.333,o),
(195,473,c),
(119,531,l),
(124,544,l),
(153.333,541.333,o),
(183,540,o),
(213,540,cs),
(228.333,540,o),
(251.333,540.667,o),
(282,542,cs),
(410.667,550,o),
(546.667,561,o),
(690,575,cs),
(759.333,583,o),
(787,586.333,o),
(819,605,cs),
(821,606.333,o),
(824,606,o),
(828,604,cs),
(919,552,l),
(916,537,l),
(750,526.333,o),
(550.333,511,o),
(317,491,cs)
);
},
{
closed = 1;
nodes = (
(496,329,l),
(565.333,227.667,o),
(619.667,162.333,o),
(729,33,cs),
(743.667,16.333,o),
(751.333,7.667,o),
(752,7,cs),
(796,-43.667,o),
(831.333,-68.333,o),
(874,-83,cs),
(895.333,-90.333,o),
(924.667,-98.333,o),
(962,-107,c),
(961,-134,l),
(770,-143,ls),
(763.333,-143,o),
(758.667,-140.667,o),
(756,-136,cs),
(678.667,-19.333,o),
(587.667,114.333,o),
(483,265,c)
);
},
{
closed = 1;
nodes = (
(726,326,l),
(806,272.667,o),
(858,234.333,o),
(902,189,cs),
(905.333,186.333,o),
(907,182.667,o),
(907,178,cs),
(907,177.333,o),
(906.333,173.667,o),
(905,167,cs),
(884,94,l),
(869,94,l),
(831.667,163.333,o),
(766.333,254.667,o),
(709,308,c)
);
},
{
closed = 1;
nodes = (
(592,158,l),
(642.667,228.667,o),
(693.667,335.667,o),
(703,389,cs),
(706.333,409,o),
(708,424,o),
(708,434,cs),
(708,448,o),
(706,461.333,o),
(702,474,c),
(716,481,l),
(793,396,l),
(777,369,ls),
(768.333,352.333,o),
(759.667,337.667,o),
(751,325,cs),
(703,250.333,o),
(664.667,193.333,o),
(614,140,c)
);
},
{
closed = 1;
nodes = (
(86,50,l),
(164.667,147.333,o),
(245.667,290,o),
(259,362,cs),
(262.333,382,o),
(264,397,o),
(264,407,cs),
(264,421,o),
(262,434.333,o),
(258,447,c),
(272,454,l),
(349,369,l),
(333,342,ls),
(324.333,325.333,o),
(315.667,310.667,o),
(307,298,cs),
(243,196.667,o),
(182.667,108,o),
(108,32,c)
);
},
{
closed = 1;
nodes = (
(267,292,l),
(312.333,270,o),
(351,248.333,o),
(383,227,c),
(385.667,224.333,o),
(388.333,220,o),
(387,216,c),
(375,124,l),
(359,120,l),
(331.667,175.333,o),
(296.667,226.333,o),
(254,273,c)
);
}
);
width = 1000;
}
);
unicode = 101250;
}
{
glyphname = u18B83;
layers = (
{
layerId = master01;
shapes = (
{
closed = 1;
nodes = (
(36,-144,l),
(241,-62,o),
(457,136,o),
(542,397,o),
(549,599,q),
(550,638,o),
(532,723,o),
(508,750,q),
(519,762,l),
(634,676,l),
(627,653,o),
(623,605,q),
(606,376,o),
(512,99,o),
(276,-99,o),
(50,-173,q)
);
},
{
closed = 1;
nodes = (
(217,430,o),
(155,416,q),
(79,474,l),
(84,487,l),
(128,483,o),
(173,483,q),
(196,483,o),
(242,485,q),
(341,491,o),
(518,507,o),
(606,517,q),
(623,518,o),
(685,525,q),
(737,531,o),
(790,541,o),
(814,555,q),
(817,557,o),
(823,554,q),
(914,502,l),
(911,487,l),
(753,477,o),
(463,451,q),
(438,448,o),
(277,434,q)
);
},
{
closed = 1;
nodes = (
(260,270,o),
(214,286,o),
(182,286,q),
(166,286,o),
(157,285,q),
(152,299,l),
(254,340,l),
(278,315,o),
(314,285,q),
(409,214,l),
(559,99,o),
(618,58,q),
(706,-5,o),
(813,-64,o),
(896,-87,o),
(962,-94,q),
(962,-121,l),
(766,-148,l),
(762,-148,l),
(752,-148,o),
(744,-142,q),
(479,99,o),
(281,254,q)
);
}
);
width = 1000;
}
);
unicode = 101251;
}
{
glyphname = u18B84;
layers = (
{
layerId = master01;
shapes = (
{
closed = 1;
nodes = (
(36,-144,l),
(309.333,-34.667,o),
(442.833,92.5,o),
(499.5,266.5,cs),
(527.833,353.5,o),
(544.333,464.333,o),
(549,599,cs),
(550.333,651,o),
(540,714,o),
(508,750,c),
(519,762,l),
(634,676,l),
(629.333,660.667,o),
(625.667,637,o),
(623,605,cs),
(600.333,299.667,o),
(551.333,132,o),
(394,0,cs),
(315.333,-66,o),
(200.667,-123.667,o),
(50,-173,c)
);
},
{
closed = 1;
nodes = (
(237,431.333,o),
(196.333,425.333,o),
(155,416,c),
(79,474,l),
(84,487,l),
(113.333,484.333,o),
(143,483,o),
(173,483,cs),
(188.333,483,o),
(211.333,483.667,o),
(242,485,cs),
(374,493,o),
(488.667,503.667,o),
(606,517,cs),
(617.333,517.667,o),
(643.667,520.333,o),
(685,525,cs),
(754.333,533,o),
(782,536.333,o),
(814,555,cs),
(816,556.333,o),
(819,556,o),
(823,554,cs),
(914,502,l),
(911,487,l),
(805.667,480.333,o),
(656.333,468.333,o),
(463,451,cs),
(446.333,449,o),
(384.333,443.333,o),
(277,434,cs)
);
},
{
closed = 1;
nodes = (
(253,275.333,o),
(224.667,286,o),
(182,286,cs),
(171.333,286,o),
(163,285.667,o),
(157,285,c),
(152,299,l),
(254,340,l),
(270,323.333,o),
(290,305,o),
(314,285,cs),
(409,214,ls),
(509,137.333,o),
(578.667,85.333,o),
(618,58,cs),
(735.333,-26,o),
(799.167,-60.167,o),
(854.5,-75.5,cs),
(882.167,-83.167,o),
(918,-89.333,o),
(962,-94,c),
(962,-121,l),
(766,-148,l),
(762,-148,ls),
(755.333,-148,o),
(749.333,-146,o),
(744,-142,cs),
(567.333,18.667,o),
(413,150.667,o),
(281,254,cs)
);
},
{
closed = 1;
nodes = (
(691,391,l),
(761.667,331,o),
(824.667,276,o),
(862,236,cs),
(865.333,232.667,o),
(866.667,228,o),
(866,222,c),
(843,121,l),
(821,115,l),
(779.667,209.667,o),
(737.333,288,o),
(672,376,c)
);
}
);
width = 1000;
}
);
unicode = 101252;
}
{
glyphname = u18B85;
layers = (
{
layerId = master01;
shapes = (
{
closed = 1;
nodes = (
(282,196,l),
(276,191,o),
(271,196,q),
(218,265,l),
(214,271,o),
(218,275,q),
(239,293,o),
(258,324,o),
(277,368,q),
(299,418,o),
(385,645,o),
(388,674,q),
(390,691,o),
(380,734,o),
(368,750,q),
(379,761,l),
(469,679,l),
(453,659,o),
(429,598,q),
(406,540,l),
(325,342,o),
(309,291,q),
(308,289,o),
(308,285,q),
(308,275,o),
(320,276,q),
(377,280,o),
(576,299,o),
(608,305,q),
(681,319,o),
(713,351,q),
(718,356,o),
(722,351,q),
(784,291,l),
(789,287,o),
(784,282,q),
(759,257,l),
(754,252,o),
(750,246,o),
(749,241,o),
(749,240,q),
(717,66,o),
(645,-89,q),
(635,-111,o),
(598,-152,o),
(580,-161,q),
(576,-163,o),
(574,-163,q),
(570,-163,o),
(567,-158,q),
(542,-124,o),
(439,-28,o),
(386,13,q),
(399,32,l),
(567,-58,l),
(575,-62,o),
(578,-62,q),
(585,-62,o),
(591,-50,q),
(622,10,o),
(671,170,o),
(685,252,q),
(685,254,l),
(685,263,o),
(674,262,q),
(333,228,l),
(321,227,o),
(312,219,q)
);
},
{
closed = 1;
nodes = (
(207,456,o),
(145,442,q),
(69,500,l),
(74,513,l),
(118,509,o),
(163,509,q),
(186,509,o),
(232,511,q),
(465,526,o),
(694,549,q),
(746,555,o),
(799,565,o),
(823,579,q),
(826,581,o),
(832,578,q),
(923,526,l),
(920,511,l),
(632,492,o),
(267,460,q)
);
}
);
width = 1000;
}
);
unicode = 101253;
}
{
glyphname = u18B86;
layers = (
{
layerId = master01;
shapes = (
{
closed = 1;
nodes = (
(282,196,l),
(276,191,o),
(271,196,q),
(218,265,l),
(214,271,o),
(218,275,q),
(239,293,o),
(258,324,o),
(277,368,q),
(299,418,o),
(385,645,o),
(388,674,q),
(390,691,o),
(380,734,o),
(368,750,q),
(379,761,l),
(469,679,l),
(453,659,o),
(429,598,q),
(406,540,l),
(325,342,o),
(309,291,q),
(308,289,o),
(308,285,q),
(308,275,o),
(320,276,q),
(392,281,o),
(672,307,o),
(704,313,q),
(777,327,o),
(809,359,q),
(814,364,o),
(818,359,q),
(880,299,l),
(885,295,o),
(880,290,q),
(855,265,l),
(850,260,o),
(846,254,o),
(845,249,o),
(845,248,q),
(807,42,o),
(746,-89,q),
(736,-111,o),
(699,-152,o),
(681,-161,q),
(677,-163,o),
(675,-163,q),
(671,-163,o),
(668,-158,q),
(644,-126,o),
(551,-35,o),
(504,4,q),
(517,23,l),
(669,-62,l),
(677,-66,o),
(679,-66,q),
(684,-66,o),
(691,-54,q),
(745,45,o),
(781,260,q),
(781,262,l),
(781,271,o),
(770,270,q),
(333,228,l),
(321,227,o),
(312,219,q)
);
},
{
closed = 1;
nodes = (
(183,501,o),
(121,487,q),
(45,545,l),
(50,558,l),
(94,554,o),
(139,554,q),
(162,554,o),
(208,556,q),
(503,574,o),
(733,598,q),
(785,604,o),
(838,614,o),
(862,628,q),
(865,630,o),
(871,627,q),
(962,575,l),
(959,560,l),
(594,535,o),
(243,505,q)
);
},
{
closed = 1;
nodes = (
(548,123,o),
(273,-108,o),
(69,-159,q),
(57,-129,l),
(190,-82,o),
(379,38,o),
(512,229,o),
(541,371,q),
(546,393,o),
(546,417,q),
(546,464,o),
(527,498,q),
(542,508,l),
(631,408,l),
(623,392,o),
(607,342,o),
(598,310,q)
);
}
);
width = 1000;
}
);
unicode = 101254;
}
{
glyphname = u18B87;
layers = (
{
layerId = master01;
shapes = (
{
closed = 1;
nodes = (
(360,248,l),
(354,243,o),
(349,248,q),
(296,317,l),
(292,323,o),
(296,327,q),
(319,348,o),
(336,399,o),
(347,453,q),
(357,503,o),
(375,633,o),
(375,672,q),
(375,715,o),
(356,739,q),
(368,750,l),
(452,675,l),
(440,652,o),
(434,612,q),
(410,472,o),
(392,343,q),
(391,337,l),
(391,327,o),
(403,328,q),
(470,334,o),
(483,336,q),
(543,346,o),
(579,382,q),
(584,387,o),
(588,382,q),
(650,322,l),
(655,318,o),
(650,313,q),
(625,288,l),
(624,287,o),
(617,280,o),
(615,275,o),
(615,271,q),
(607,144,o),
(581,-33,o),
(557,-97,q),
(548,-122,o),
(512,-159,o),
(492,-169,q),
(488,-171,o),
(486,-171,q),
(482,-171,o),
(479,-166,q),
(438,-100,o),
(337,-22,q),
(350,-3,l),
(480,-68,l),
(490,-72,o),
(491,-72,q),
(496,-72,o),
(500,-62,q),
(521,-4,o),
(548,185,o),
(551,283,q),
(551,294,o),
(540,293,q),
(411,280,l),
(399,279,o),
(390,271,q)
);
},
{
closed = 1;
nodes = (
(175,487,o),
(116,475,q),
(39,533,l),
(44,546,l),
(90,541,o),
(143,541,q),
(164,541,o),
(204,543,q),
(427,556,o),
(731,582,q),
(782,587,o),
(837,597,o),
(861,611,q),
(865,613,o),
(870,610,q),
(962,557,l),
(959,542,l),
(570,522,o),
(239,492,q)
);
},
{
closed = 1;
nodes = (
(736,235,l),
(831,122,o),
(913,-20,q),
(915,-27,o),
(913,-32,q),
(879,-141,l),
(857,-141,l),
(793,71,o),
(715,221,q)
);
},
{
closed = 1;
nodes = (
(238,56,o),
(163,-90,o),
(132,-131,q),
(113,-133,l),
(71,-47,l),
(69,-42,o),
(73,-40,q),
(105,-25,o),
(120,-10,q),
(166,38,o),
(215,165,o),
(212,221,q),
(233,225,l),
(243,187,o),
(251,143,o),
(251,125,q),
(251,111,o),
(248,97,q)
);
}
);
width = 1000;
}
);
unicode = 101255;
}
{
glyphname = u18B88;
layers = (
{
layerId = master01;
shapes = (
{
closed = 1;
nodes = (
(182,489,o),
(120,475,q),
(44,533,l),
(49,546,l),
(93,542,o),
(138,542,q),
(161,542,o),
(207,544,q),
(484,561,o),
(735,587,q),
(787,593,o),
(840,603,o),
(864,617,q),
(867,619,o),
(873,616,q),
(964,564,l),
(961,549,l),
(636,527,o),
(242,493,q)
);
},
{
closed = 1;
nodes = (
(344,265,l),
(338,260,o),
(333,265,q),
(280,334,l),
(276,340,o),
(280,344,q),
(303,365,o),
(320,416,o),
(331,470,q),
(341,520,o),
(359,650,o),
(359,689,q),
(359,732,o),
(340,756,q),
(352,767,l),
(436,692,l),
(424,669,o),
(418,629,q),
(392,473,o),
(376,363,q),
(375,357,l),
(375,347,o),
(387,348,q),
(605,363,o),
(723,378,q),
(780,385,o),
(819,424,q),
(824,429,o),
(828,424,q),
(892,364,l),
(897,360,o),
(892,355,q),
(867,330,l),
(866,329,o),
(859,322,o),
(857,317,o),
(857,313,q),
(850,204,o),
(793,-27,o),
(761,-93,q),
(748,-118,o),
(715,-160,o),
(702,-168,q),
(700,-169,o),
(697,-169,q),
(692,-169,o),
(687,-164,q),
(648,-127,o),
(524,-42,o),
(461,-8,q),
(472,16,l),
(679,-61,l),
(687,-63,o),
(689,-63,q),
(697,-63,o),
(702,-53,q),
(737,20,o),
(785,230,o),
(788,321,q),
(788,332,o),
(777,331,q),
(395,297,l),
(383,296,o),
(374,288,q)
);
},
{
closed = 1;
nodes = (
(201,82,o),
(128,67,q),
(52,123,l),
(57,136,l),
(101,132,o),
(146,132,q),
(181,132,o),
(215,135,q),
(335,144,o),
(450,157,q),
(497,162,o),
(554,175,o),
(578,189,q),
(583,191,o),
(587,188,q),
(679,137,l),
(676,122,l),
(467,108,o),
(250,86,q)
);
}
);
width = 1000;
}
);
unicode = 101256;
}
{
glyphname = u18B89;
layers = (
{
layerId = master01;
shapes = (
{
closed = 1;
nodes = (
(182,489,o),
(120,475,q),
(44,533,l),
(49,546,l),
(93,542,o),
(138,542,q),
(161,542,o),
(207,544,q),
(484,561,o),
(735,587,q),
(787,593,o),
(840,603,o),
(864,617,q),
(867,619,o),
(873,616,q),
(964,564,l),
(961,549,l),
(636,527,o),
(242,493,q)
);
},
{
closed = 1;
nodes = (
(390,272,l),
(384,267,o),
(379,272,q),
(326,341,l),
(322,347,o),
(326,351,q),
(349,373,o),
(369,425,o),
(379,475,q),
(390,529,o),
(412,659,o),
(412,690,q),
(412,733,o),
(393,757,q),
(405,768,l),
(489,693,l),
(480,674,o),
(471,630,q),
(449,520,o),
(422,370,q),
(421,364,l),
(421,354,o),
(433,355,q),
(505,360,l),
(655,370,o),
(723,378,q),
(780,385,o),
(819,424,q),
(824,429,o),
(828,424,q),
(892,364,l),
(897,360,o),
(892,355,q),
(867,330,l),
(866,329,o),
(859,322,o),
(857,317,o),
(857,313,q),
(850,202,o),
(799,-19,o),
(767,-84,q),
(754,-110,o),
(716,-158,o),
(701,-167,q),
(695,-169,o),
(694,-169,q),
(690,-169,o),
(686,-165,q),
(612,-96,o),
(459,-11,q),
(470,13,l),
(678,-63,l),
(686,-65,l),
(693,-65,o),
(700,-54,q),
(730,-5,o),
(785,230,o),
(788,321,q),
(788,332,o),
(777,331,q),
(441,304,l),
(429,303,o),
(420,295,q)
);
},
{
closed = 1;
nodes = (
(42,-47,l),
(113,7,o),
(229,133,o),
(256,185,q),
(264,199,o),
(276,241,o),
(276,262,q),
(276,273,o),
(275,278,q),
(290,282,l),
(343,169,l),
(327,154,o),
(296,119,q),
(205,19,o),
(60,-74,q)
);
},
{
closed = 1;
nodes = (
(459,259,l),
(585,181,o),
(643,130,q),
(645,129,o),
(647,121,o),
(646,118,q),
(625,27,l),
(602,21,l),
(551,134,o),
(443,242,q)
);
}
);
width = 1000;
}
);
unicode = 101257;
}
{
glyphname = u18B8B;
layers = (
{
layerId = master01;
shapes = (
{
closed = 1;
nodes = (
(250,227,l),
(244,222,o),
(239,227,q),
(186,296,l),
(182,302,o),
(186,306,q),
(209,328,o),
(224,366,o),
(234,414,q),
(243,458,o),
(265,636,o),
(265,674,q),
(265,717,o),
(246,741,q),
(258,752,l),
(342,677,l),
(330,654,o),
(324,614,q),
(311,538,o),
(290,382,q),
(282,322,l),
(281,316,l),
(281,306,o),
(293,307,q),
(322,310,o),
(349,314,q),
(409,324,o),
(445,360,q),
(450,365,o),
(454,360,q),
(516,300,l),
(521,296,o),
(516,291,q),
(491,266,l),
(490,265,o),
(483,258,o),
(481,253,o),
(481,249,q),
(474,136,o),
(437,-48,o),
(414,-93,q),
(404,-113,o),
(370,-154,o),
(356,-163,q),
(350,-165,o),
(349,-165,q),
(345,-165,o),
(342,-161,q),
(304,-115,o),
(191,-4,o),
(133,42,q),
(146,61,l),
(339,-57,l),
(347,-61,o),
(349,-61,q),
(353,-61,o),
(359,-51,q),
(381,-5,o),
(414,171,o),
(417,261,q),
(417,272,o),
(406,271,q),
(301,259,l),
(289,258,o),
(280,250,q)
);
},
{
closed = 1;
nodes = (
(591,615,l),
(591,648,o),
(569,711,o),
(548,737,q),
(559,749,l),
(665,662,l),
(655,624,o),
(655,560,q),
(655,-10,l),
(655,-41,o),
(668,-63,o),
(690,-64,q),
(728,-66,o),
(751,-66,q),
(815,-66,o),
(866,-58,q),
(882,-57,o),
(892,-45,o),
(893,-29,q),
(901,160,l),
(925,160,l),
(931,90,o),
(953,-50,o),
(966,-89,q),
(967,-90,o),
(967,-93,q),
(967,-98,o),
(962,-100,q),
(925,-116,o),
(850,-123,q),
(811,-128,o),
(756,-128,q),
(731,-128,o),
(677,-126,q),
(631,-124,o),
(591,-76,o),
(591,-23,q)
);
},
{
closed = 1;
nodes = (
(623,415,l),
(751,369,o),
(872,310,q),
(877,308,o),
(877,301,q),
(878,205,l),
(863,198,l),
(822,241,o),
(694,339,o),
(623,381,q)
);
},
{
closed = 1;
nodes = (
(153,477,o),
(109,466,q),
(42,515,l),
(47,527,l),
(84,523,o),
(121,523,q),
(169,524,l),
(214,527,l),
(382,537,o),
(405,542,q),
(435,549,o),
(460,560,q),
(464,562,o),
(469,560,q),
(551,519,l),
(548,502,l),
(498,501,o),
(263,485,o),
(202,480,q)
);
}
);
width = 1000;
}
);
unicode = 101259;
}
{
glyphname = u18B8C;
layers = (
{
layerId = master01;
shapes = (
{
closed = 1;
nodes = (
(234,191,l),
(228,186,o),
(223,191,q),
(170,260,l),
(166,266,o),
(170,270,q),
(194,292,o),
(208,320,o),
(223,365,q),
(239,414,o),
(298,642,o),
(300,676,q),
(301,694,o),
(292,737,o),
(280,752,q),
(292,763,l),
(379,687,l),
(367,663,o),
(357,624,q),
(335,537,o),
(283,348,o),
(266,289,q),
(265,287,o),
(265,283,q),
(265,273,o),
(277,274,q),
(372,281,o),
(635,303,o),
(695,310,q),
(752,317,o),
(791,356,q),
(796,361,o),
(800,356,q),
(864,296,l),
(869,292,o),
(864,287,q),
(839,262,l),
(834,257,o),
(830,251,o),
(829,246,o),
(829,245,q),
(812,146,o),
(736,-32,o),
(694,-95,q),
(678,-120,o),
(639,-159,o),
(621,-168,q),
(617,-170,o),
(615,-170,q),
(610,-170,o),
(605,-165,q),
(532,-89,o),
(376,1,q),
(387,25,l),
(610,-67,l),
(618,-69,l),
(627,-69,o),
(635,-59,q),
(674,-13,o),
(749,168,o),
(763,253,q),
(763,255,l),
(763,264,o),
(752,263,q),
(285,223,l),
(273,222,o),
(264,214,q)
);
},
{
closed = 1;
nodes = (
(299,524,l),
(407,532,o),
(561,549,q),
(662,559,l),
(714,565,o),
(767,575,o),
(791,589,q),
(794,591,o),
(800,588,q),
(891,536,l),
(888,521,l),
(764,513,o),
(485,489,q),
(284,471,l)
);
}
);
width = 1000;
}
);
unicode = 101260;
}
